<?xml version="1.0" standalone="no"?><!DOCTYPE svg PUBLIC "-//W3C//DTD SVG 1.1//EN" "http://www.w3.org/Graphics/SVG/1.1/DTD/svg11.dtd" ><svg xmlns="http://www.w3.org/2000/svg"><metadata></metadata><defs><font id="1.002;MAMA;AlimamaShuHeiTi-Bold" horiz-adv-x="1000"><font-face font-family="Alimama ShuHeiTi" font-weight="700" font-stretch="normal" units-per-em="1000" panose-1="0 0 0 0 0 0 0 0 0 0" ascent="1050" descent="-150" x-height="0" bbox="-20 -232 1000 850" underline-thickness="50" underline-position="-100" unicode-range="U+0020-ff5e" /><missing-glyph horiz-adv-x="1000" d="M900 850 l0 -1000 l-800 0 l0 1000 l800 0 ZM820 -70 l0 840 l-640 0 l0 -840 l640 0 Z" /><glyph glyph-name="A" unicode="A" d="M474 198 l-224 0 l-53 -198 l-175 0 l203 700 l275 0 l203 -700 l-176 0 l-53 198 ZM442 318 l-79 293 l-2 0 l-79 -293 l160 0 Z" /><glyph glyph-name="B" unicode="B" d="M60 700 l322 0 q97 0 153 -47.5 q56 -47.5 56 -135.5 q0 -39 -25 -76 q-25 -37 -67 -64 q61 -26 98 -73 q37 -47 37 -101 q0 -93 -62 -148 q-62 -55 -167 -55 l-345 0 l0 700 ZM362 121 q50 0 77.5 28.5 q27.5 28.5 27.5 75.5 q0 38 -33.5 62 q-33.5 24 -100.5 24 l-108 0 l0 -190 l137 0 ZM338 408 q41 0 64 28.5 q23 28.5 23 62.5 q0 40 -24 68.5 q-24 28.5 -81 28.5 l-95 0 l0 -188 l113 0 Z" /><glyph glyph-name="C" unicode="C" d="M432 -13 q-114 0 -202.5 42 q-88.5 42 -139 122 q-50.5 80 -50.5 190 q0 116 49 199.5 q49 83.5 137 128 q88 44.5 201 44.5 q56 0 113 -11 q57 -11 94 -28 l0 -124 q-101 37 -188 37 q-104 0 -168.5 -61 q-64.5 -61 -64.5 -185 q0 -66 32 -116.5 q32 -50.5 84 -78.5 q52 -28 112 -32 l22 -1 q46 0 91 13 q45 13 80 35 l0 -138 q-43 -20 -91.5 -28 q-48.5 -8 -110.5 -8 Z" /><glyph glyph-name="D" unicode="D" d="M60 700 l266 0 q165 0 251 -93 q86 -93 86 -258 q0 -171 -86 -260 q-86 -89 -255 -89 l-262 0 l0 700 ZM328 124 q42 0 80 27 q38 27 61.5 78 q23.5 51 23.5 119 q0 65 -22.5 116.5 q-22.5 51.5 -60.5 81.5 q-38 30 -82 30 l-103 0 l0 -452 l103 0 Z" /><glyph glyph-name="E" unicode="E" d="M60 700 l492 0 l0 -136 l-327 0 l0 -150 l284 0 l0 -127 l-284 0 l0 -151 l327 0 l0 -136 l-492 0 l0 700 Z" /><glyph glyph-name="F" unicode="F" d="M60 700 l464 0 l0 -135 l-299 0 l0 -152 l258 0 l0 -126 l-258 0 l0 -287 l-165 0 l0 700 Z" /><glyph glyph-name="G" unicode="G" d="M654 30 q-46 -22 -99 -32.5 q-53 -10.5 -123 -10.5 q-115 0 -203 43 q-88 43 -138.5 122.5 q-50.5 79.5 -50.5 186.5 q0 108 49.5 192.5 q49.5 84.5 137 133 q87.5 48.5 200.5 48.5 q55 0 111.5 -11 q56.5 -11 95.5 -27 l0 -120 q-101 34 -188 34 q-108 0 -175 -62 q-67 -62 -67 -188 q0 -68 32.5 -120.5 q32.5 -52.5 87 -76.5 q54.5 -24 117.5 -24 q42 0 74 3 l0 154 l-79 0 l0 125 l218 0 l0 -370 Z" /><glyph glyph-name="H" unicode="H" d="M659 700 l0 -700 l-165 0 l0 296 l-269 0 l0 -296 l-165 0 l0 700 l165 0 l0 -269 l269 0 l0 269 l165 0 Z" /><glyph glyph-name="I" unicode="I" d="M63 700 l165 0 l0 -700 l-165 0 l0 700 Z" /><glyph glyph-name="J" unicode="J" d="M-20 1 q9 -1 26 -1 q40 0 61.5 15.5 q21.5 15.5 29.5 46.5 q8 31 8 84 l0 554 l165 0 l0 -590 q0 -262 -290 -252 l0 143 Z" /><glyph glyph-name="K" unicode="K" d="M500 1 q-66 109 -109 166 q-43 57 -107 116 l-59 0 l0 -283 l-165 0 l0 700 l165 0 l0 -283 l37 0 l195 283 l180 0 l-240 -342 q81 -74 141 -153 q60 -79 134 -204 l-172 0 Z" /><glyph glyph-name="L" unicode="L" d="M225 700 l0 -565 l283 0 l0 -135 l-448 0 l0 700 l165 0 Z" /><glyph glyph-name="M" unicode="M" d="M228 576 l-9 0 l0 -576 l-159 0 l0 700 l287 0 l95 -501 l2 -10 l2 10 l95 501 l287 0 l0 -700 l-159 0 l0 576 l-8 0 l-120 -576 l-194 0 l-119 576 Z" /><glyph glyph-name="N" unicode="N" d="M228 544 l-6 0 l0 -544 l-162 0 l0 700 l263 0 l167 -553 l13 0 l0 553 l162 0 l0 -700 l-269 0 l-168 544 Z" /><glyph glyph-name="O" unicode="O" d="M397 -13 q-110 0 -190 41.5 q-80 41.5 -123.5 121.5 q-43.5 80 -43.5 192 q0 114 43.5 198 q43.5 84 124 128.5 q80.5 44.5 189.5 44.5 q109 0 189 -44.5 q80 -44.5 123.5 -128.5 q43.5 -84 43.5 -198 q0 -113 -43.5 -192.5 q-43.5 -79.5 -122.5 -121 q-79 -41.5 -190 -41.5 ZM215 342 q0 -108 48 -170.5 q48 -62.5 134 -62.5 q85 0 133 62.5 q48 62.5 48 170.5 q0 71 -21 127 q-21 56 -62.5 88 q-41.5 32 -97.5 32 q-56 0 -97 -32 q-41 -32 -63 -88 q-22 -56 -22 -127 Z" /><glyph glyph-name="P" unicode="P" d="M395 700 q110 0 173.5 -59 q63.5 -59 63.5 -168 q0 -108 -63.5 -167 q-63.5 -59 -173.5 -59 l-170 0 l0 -247 l-165 0 l0 700 l335 0 ZM380 379 q50 0 77 27 q27 27 27 67 q0 41 -27 68 q-27 27 -77 27 l-155 0 l0 -189 l155 0 Z" /><glyph glyph-name="Q" unicode="Q" d="M401 -13 q-109 0 -191.5 44 q-82.5 44 -126 124.5 q-43.5 80.5 -43.5 189.5 q0 107 44.5 191 q44.5 84 127 130.5 q82.5 46.5 189.5 46.5 q102 0 185.5 -46 q83.5 -46 129 -130 q45.5 -84 45.5 -192 q0 -117 -49.5 -199.5 q-49.5 -82.5 -139.5 -122.5 q24 -47 51 -111 l-148 0 q-22 48 -37 77 q-23 -2 -37 -2 ZM198 345 q0 -70 25.5 -122.5 q25.5 -52.5 70.5 -82 q45 -29.5 107 -29.5 q61 0 105.5 29.5 q44.5 29.5 70 82 q25.5 52.5 25.5 122.5 q0 64 -24.5 119.5 q-24.5 55.5 -70 91.5 q-45.5 36 -108.5 36 q-59 0 -104 -34.5 q-45 -34.5 -71 -90 q-26 -55.5 -26 -122.5 Z" /><glyph glyph-name="R" unicode="R" d="M384 700 q106 0 167.5 -54.5 q61.5 -54.5 61.5 -153.5 q0 -82 -42.5 -134 q-42.5 -52 -119.5 -67 q58 -64 103 -133 q45 -69 86 -158 l-152 0 q-47 95 -87 157 q-40 62 -104 127 l-72 0 l0 -284 l-165 0 l0 700 l324 0 ZM372 399 q51 0 79 27 q28 27 28 66 q0 40 -28.5 66.5 q-28.5 26.5 -78.5 26.5 l-147 0 l0 -186 l147 0 Z" /><glyph glyph-name="S" unicode="S" d="M312 -12 q-11 -1 -34 -1 q-135 0 -240 58 l0 147 q55 -34 121 -57 q66 -23 120 -23 q44 0 69.5 22 q25.5 22 25.5 50 q0 39 -30 71.5 q-30 32.5 -96 52.5 q-76 24 -118.5 48.5 q-42.5 24.5 -64 61.5 q-21.5 37 -21.5 94 q0 54 26 98.5 q26 44.5 76.5 71.5 q50.5 27 120.5 30 q9 1 28 1 q52 0 104.5 -10.5 q52.5 -10.5 88.5 -26.5 l0 -129 q-39 17 -91 28 q-52 11 -92 11 q-51 0 -78 -18 q-27 -18 -27 -50 q0 -29 29 -52 q29 -23 90 -44 q73 -21 119 -47.5 q46 -26.5 72 -69 q26 -42.5 26 -106.5 q0 -61 -28 -108 q-28 -47 -78.5 -73.5 q-50.5 -26.5 -117.5 -29.5 Z" /><glyph glyph-name="T" unicode="T" d="M17 700 l526 0 l0 -135 l-180 0 l0 -565 l-166 0 l0 565 l-180 0 l0 135 Z" /><glyph glyph-name="U" unicode="U" d="M368 -13 q-141 0 -224.5 76 q-83.5 76 -83.5 209 l0 428 l165 0 l0 -428 q0 -44 19.5 -76 q19.5 -32 52.5 -49.5 q33 -17.5 71 -17.5 q39 0 71.5 17.5 q32.5 17.5 51.5 50 q19 32.5 19 75.5 l0 428 l165 0 l0 -428 q0 -133 -83.5 -209 q-83.5 -76 -223.5 -76 Z" /><glyph glyph-name="V" unicode="V" d="M10 700 l179 0 l168 -589 l4 0 l168 589 l179 0 l-216 -700 l-266 0 l-216 700 Z" /><glyph glyph-name="W" unicode="W" d="M469 453 l-4 0 l-79 -453 l-201 0 l-170 700 l172 0 l100 -528 l4 0 l100 528 l151 0 l100 -528 l4 0 l100 528 l172 0 l-170 -700 l-201 0 l-78 453 Z" /><glyph glyph-name="X" unicode="X" d="M367 223 l-4 0 l-152 -223 l-191 0 l244 347 l-249 353 l189 0 l159 -229 l4 0 l159 229 l189 0 l-248 -353 l244 -347 l-192 0 l-152 223 Z" /><glyph glyph-name="Y" unicode="Y" d="M10 700 l182 0 l130 -265 l4 0 l130 265 l182 0 l-231 -416 l0 -284 l-165 0 l0 282 l-232 418 Z" /><glyph glyph-name="Z" unicode="Z" d="M411 566 l-361 0 l0 134 l563 0 l0 -134 l-368 -431 l377 0 l0 -135 l-587 0 l0 135 l376 431 Z" /><glyph glyph-name="a" unicode="a" d="M280 -13 q-76 0 -132.5 36 q-56.5 36 -87 99 q-30.5 63 -30.5 147 q0 83 30.5 147.5 q30.5 64.5 86 100.5 q55.5 36 129.5 36 q34 0 68.5 -12.5 q34.5 -12.5 64.5 -34.5 l0 34 l160 0 l0 -414 q0 -81 20 -126 l-150 0 q-7 14 -12 36 q-62 -49 -147 -49 ZM183 269 q0 -46 18.5 -84 q18.5 -38 49 -60.5 q30.5 -22.5 64.5 -22.5 q24 0 54 10.5 q30 10.5 52 45.5 l0 224 q-22 35 -51.5 45 q-29.5 10 -54.5 10 q-34 0 -64.5 -22 q-30.5 -22 -49 -60.5 q-18.5 -38.5 -18.5 -85.5 Z" /><glyph glyph-name="b" unicode="b" d="M343 -13 q-88 0 -151 49 q-5 -22 -12 -36 l-150 0 q20 45 20 125 l0 644 l160 0 l0 -264 q30 23 64.5 35 q34.5 12 68.5 12 q74 0 129.5 -36 q55.5 -36 86 -100.5 q30.5 -64.5 30.5 -147.5 q0 -82 -30 -146 q-30 -64 -86 -99.5 q-56 -35.5 -130 -35.5 ZM193 165 q21 -40 53 -52 q32 -12 58 -12 q34 0 64.5 22.5 q30.5 22.5 49 60.5 q18.5 38 18.5 84 q0 47 -18.5 86 q-18.5 39 -49 61 q-30.5 22 -64.5 22 q-26 0 -58 -12.5 q-32 -12.5 -53 -51.5 l0 -208 Z" /><glyph glyph-name="c" unicode="c" d="M500 18 q-77 -31 -158 -31 q-85 0 -156.5 34.5 q-71.5 34.5 -113.5 98 q-42 63.5 -42 146.5 q0 87 40 152 q40 65 109.5 99.5 q69.5 34.5 155.5 34.5 q78 0 158 -28 l0 -123 q-61 26 -125 26 q-79 0 -131 -37.5 q-52 -37.5 -52 -123.5 q0 -49 27 -83 q27 -34 70 -51.5 q43 -17.5 91 -17.5 q37 0 70.5 10.5 q33.5 10.5 56.5 29.5 l0 -136 Z" /><glyph glyph-name="d" unicode="d" d="M276 -13 q-74 0 -130 35.5 q-56 35.5 -86 99.5 q-30 64 -30 146 q0 83 30.5 147.5 q30.5 64.5 86 100.5 q55.5 36 129.5 36 q34 0 68.5 -12 q34.5 -12 64.5 -35 l0 264 l160 0 l0 -644 q0 -80 20 -125 l-150 0 q-7 14 -12 36 q-63 -49 -151 -49 ZM183 268 q0 -46 18.5 -84 q18.5 -38 49 -60.5 q30.5 -22.5 64.5 -22.5 q27 0 59.5 13 q32.5 13 53.5 54 l0 201 q-21 42 -53.5 55 q-32.5 13 -59.5 13 q-34 0 -64.5 -22 q-30.5 -22 -49 -61 q-18.5 -39 -18.5 -86 Z" /><glyph glyph-name="e" unicode="e" d="M541 29 q-38 -23 -88.5 -34 q-50.5 -11 -97.5 -11 q-160 0 -242.5 76 q-82.5 76 -82.5 213 q0 136 73.5 208.5 q73.5 72.5 200.5 72.5 q126 0 199.5 -72.5 q73.5 -72.5 73.5 -208.5 q0 -15 -2 -43 l-389 0 q22 -129 169 -129 q103 0 186 61 l0 -133 ZM426 342 q-13 50 -45 74 q-32 24 -77 24 q-42 0 -71.5 -25 q-29.5 -25 -41.5 -73 l235 0 Z" /><glyph glyph-name="f" unicode="f" d="M102 418 l-95 0 l0 122 l95 0 l0 71 q0 64 17.5 98.5 q17.5 34.5 60 48.5 q42.5 14 111.5 14 q21 0 45 -1.5 q24 -1.5 43 -3.5 l0 -121 q-8 2 -27 3 q-19 1 -34 1 q-23 0 -35 -5.5 q-12 -5.5 -16.5 -20.5 q-4.5 -15 -4.5 -44 l0 -40 l132 0 l0 -122 l-132 0 l0 -418 l-160 0 l0 418 Z" /><glyph glyph-name="g" unicode="g" d="M288 -228 q-61 0 -122.5 8 q-61.5 8 -110.5 23 l0 131 q107 -24 214 -24 q68 0 103 30 q35 30 35 83 q-55 -36 -131 -36 q-74 0 -130 36 q-56 36 -86 99.5 q-30 63.5 -30 146.5 q0 83 30.5 147.5 q30.5 64.5 86 100.5 q55.5 36 129.5 36 q69 0 131 -46 l0 33 l156 0 l0 -538 q0 -230 -275 -230 ZM183 269 q0 -46 18.5 -84 q18.5 -38 49 -60.5 q30.5 -22.5 64.5 -22.5 q25 0 56 11.5 q31 11.5 53 48.5 l5 20 l0 185 q-21 43 -54 56.5 q-33 13.5 -60 13.5 q-34 0 -64.5 -22 q-30.5 -22 -49 -60.5 q-18.5 -38.5 -18.5 -85.5 Z" /><glyph glyph-name="h" unicode="h" d="M210 769 l0 -287 q36 30 80 46.5 q44 16.5 89 16.5 q77 0 122.5 -45 q45.5 -45 45.5 -117 l0 -383 l-160 0 l0 356 q0 29 -24 47.5 q-24 18.5 -57 18.5 q-19 0 -47 -12 q-28 -12 -49 -30 l0 -380 l-160 0 l0 769 l160 0 Z" /><glyph glyph-name="i" unicode="i" d="M223 540 l0 -540 l-160 0 l0 540 l160 0 ZM63 769 l160 0 l0 -160 l-160 0 l0 160 Z" /><glyph glyph-name="j" unicode="j" d="M-20 -96 q9 0 25 1 q59 5 80.5 39 q21.5 34 21.5 106 l0 490 l160 0 l0 -516 q0 -136 -72.5 -196 q-72.5 -60 -214.5 -56 l0 132 ZM107 769 l160 0 l0 -160 l-160 0 l0 160 Z" /><glyph glyph-name="k" unicode="k" d="M50 0 l0 769 l160 0 l0 -405 l24 0 l124 176 l167 0 l-173 -236 q55 -52 99 -126 q44 -74 88 -178 l-151 0 q-44 96 -73.5 146.5 q-29.5 50.5 -76.5 92.5 l-28 0 l0 -239 l-160 0 Z" /><glyph glyph-name="l" unicode="l" d="M232 -8 q-90 0 -136 50.5 q-46 50.5 -46 148.5 l0 578 l160 0 l0 -538 q0 -40 6 -61 q6 -21 20 -32 q11 -9 24.5 -11.5 q13.5 -2.5 47.5 -2.5 l0 -132 l-76 0 Z" /><glyph glyph-name="m" unicode="m" d="M210 541 l0 -57 q36 29 80 45 q44 16 89 16 q45 0 78 -16.5 q33 -16.5 52 -45.5 q37 30 81 46 q44 16 89 16 q76 0 117 -45 q41 -45 41 -117 l0 -383 l-160 0 l0 356 q0 29 -19.5 47.5 q-19.5 18.5 -51.5 18.5 q-14 0 -33 -6 q-19 -6 -37 -16 q1 -6 1 -17 l0 -383 l-160 0 l0 356 q0 29 -19.5 47.5 q-19.5 18.5 -51.5 18.5 q-19 0 -47 -11 q-28 -11 -49 -29 l0 -382 l-160 0 l0 541 l160 0 Z" /><glyph glyph-name="n" unicode="n" d="M210 542 l0 -65 q37 32 84.5 50 q47.5 18 94.5 18 q77 0 122.5 -45 q45.5 -45 45.5 -117 l0 -381 l-160 0 l0 354 q0 29 -24 47.5 q-24 18.5 -57 18.5 q-21 0 -52.5 -14 q-31.5 -14 -53.5 -34 l0 -372 l-160 0 l0 540 l160 0 Z" /><glyph glyph-name="o" unicode="o" d="M314 -13 q-85 0 -149.5 35 q-64.5 35 -99.5 99.5 q-35 64.5 -35 152.5 q0 135 76 207 q76 72 208 72 q131 0 207 -72 q76 -72 76 -207 q0 -88 -35 -152.5 q-35 -64.5 -99 -99.5 q-64 -35 -149 -35 ZM188 274 q0 -77 35 -124 q35 -47 91 -47 q56 0 90.5 47 q34.5 47 34.5 124 q0 80 -33.5 121.5 q-33.5 41.5 -91.5 41.5 q-58 0 -92 -41.5 q-34 -41.5 -34 -121.5 Z" /><glyph glyph-name="p" unicode="p" d="M30 -228 q12 34 16 95 q4 61 4 111 l0 562 l160 0 l0 -50 q33 30 72.5 46.5 q39.5 16.5 79.5 16.5 q74 0 129.5 -36 q55.5 -36 86 -100.5 q30.5 -64.5 30.5 -147.5 q0 -83 -30 -146.5 q-30 -63.5 -86 -99.5 q-56 -36 -130 -36 q-90 0 -152 52 l0 -61 q0 -53 -5.5 -113.5 q-5.5 -60.5 -14.5 -92.5 l-160 0 ZM210 169 q21 -41 53.5 -54 q32.5 -13 59.5 -13 q34 0 64.5 22.5 q30.5 22.5 49 60.5 q18.5 38 18.5 84 q0 47 -18.5 85.5 q-18.5 38.5 -49 60.5 q-30.5 22 -64.5 22 q-27 0 -59.5 -13 q-32.5 -13 -53.5 -54 l0 -201 Z" /><glyph glyph-name="q" unicode="q" d="M448 -228 q-9 32 -14.5 92.5 q-5.5 60.5 -5.5 113.5 l0 61 q-62 -52 -152 -52 q-74 0 -130 36 q-56 36 -86 99.5 q-30 63.5 -30 146.5 q0 83 30.5 147.5 q30.5 64.5 86 100.5 q55.5 36 129.5 36 q40 0 79.5 -16.5 q39.5 -16.5 72.5 -46.5 l0 50 l160 0 l0 -562 q0 -50 4 -111 q4 -61 16 -95 l-160 0 ZM183 269 q0 -46 18.5 -84 q18.5 -38 49 -60.5 q30.5 -22.5 64.5 -22.5 q27 0 59.5 13 q32.5 13 53.5 54 l0 201 q-21 41 -53.5 54 q-32.5 13 -59.5 13 q-34 0 -64.5 -22 q-30.5 -22 -49 -60.5 q-18.5 -38.5 -18.5 -85.5 Z" /><glyph glyph-name="r" unicode="r" d="M210 540 l0 -58 q26 28 62.5 43.5 q36.5 15.5 72.5 15.5 q25 0 47 -7 l0 -123 q-28 7 -53 7 q-38 0 -72 -12.5 q-34 -12.5 -57 -39.5 l0 -366 l-160 0 l0 540 l160 0 Z" /><glyph glyph-name="s" unicode="s" d="M267 -12 q-61 -3 -123.5 9.5 q-62.5 12.5 -108.5 38.5 l0 144 q41 -30 98.5 -49.5 q57.5 -19.5 101.5 -16.5 q31 2 45 13.5 q14 11.5 16 23.5 q5 31 -15 47 q-20 16 -75 31 q-61 17 -97 39.5 q-36 22.5 -54.5 51 q-18.5 28.5 -18.5 72.5 q0 46 24 82.5 q24 36.5 76 57.5 q52 21 112 21 q45 0 91 -8.5 q46 -8.5 77 -22.5 l0 -129 q-32 16 -75.5 28.5 q-43.5 12.5 -75.5 12.5 q-68 0 -74 -36 q-3 -21 19.5 -37 q22.5 -16 64.5 -29 q60 -19 98.5 -39 q38.5 -20 60.5 -52 q22 -32 22 -82 q0 -74 -53 -120.5 q-53 -46.5 -136 -50.5 Z" /><glyph glyph-name="t" unicode="t" d="M92 540 l0 154 l150 0 l0 -154 l104 0 l0 -122 l-104 0 l0 -232 q0 -29 4.5 -44 q4.5 -15 16.5 -20.5 q12 -5.5 35 -5.5 q15 0 25.5 1 q10.5 1 18.5 3 l0 -123 q-42 -5 -78 -5 q-69 0 -103 14 q-34 14 -51.5 48.5 q-17.5 34.5 -17.5 98.5 l0 265 l-78 0 l0 122 l78 0 Z" /><glyph glyph-name="u" unicode="u" d="M426 -1 q-16 30 -19 64 q-37 -33 -88.5 -54.5 q-51.5 -21.5 -101.5 -21.5 q-77 0 -122.5 45 q-45.5 45 -45.5 116 l0 392 l160 0 l0 -365 q0 -29 19.5 -47.5 q19.5 -18.5 51.5 -18.5 q21 0 56.5 15 q35.5 15 59.5 33 l0 383 l160 0 l0 -437 q0 -33 4 -55.5 q4 -22.5 16 -48.5 l-150 0 Z" /><glyph glyph-name="v" unicode="v" d="M5 540 l162 0 l129 -442 l5 0 l130 442 l161 0 l-171 -540 l-245 0 l-171 540 Z" /><glyph glyph-name="w" unicode="w" d="M442 355 l-5 0 l-73 -355 l-189 0 l-160 540 l158 0 l98 -406 l4 0 l94 406 l143 0 l93 -406 l4 0 l98 406 l158 0 l-160 -540 l-189 0 l-74 355 Z" /><glyph glyph-name="x" unicode="x" d="M305 172 l-4 0 l-113 -172 l-164 0 l189 268 l-193 272 l162 0 l119 -177 l4 0 l119 177 l162 0 l-193 -272 l189 -268 l-164 0 l-113 172 Z" /><glyph glyph-name="y" unicode="y" d="M410 -13 q-33 -105 -115 -157 q-82 -54 -243 -58 l0 129 q68 0 118 15 q46 15 67 40 q22 25 33 65 l13 46 l-88 0 l-195 473 l163 0 l146 -379 l106 379 l166 0 l-171 -553 Z" /><glyph glyph-name="z" unicode="z" d="M310 418 l-259 0 l0 122 l433 0 l0 -122 l-280 -297 l287 1 l0 -122 l-461 0 l0 120 l280 298 Z" /><glyph glyph-name="uni4E00" unicode="&#x4e00;" d="M50 453 l900 0 l0 -138 l-900 0 l0 138 Z" /><glyph glyph-name="uni4E01" unicode="&#x4e01;" d="M293 35 l152 0 l0 590 l-395 0 l0 135 l900 0 l0 -135 l-365 0 l0 -725 l-292 0 l0 135 Z" /><glyph glyph-name="uni4E03" unicode="&#x4e03;" d="M312 347 l-272 -60 l0 137 l272 60 l0 316 l142 0 l0 -285 l506 111 l0 -137 l-506 -111 l0 -339 l462 0 l0 -136 l-604 0 l0 444 Z" /><glyph glyph-name="uni4E07" unicode="&#x4e07;" d="M38 47 q103 40 151.5 128.5 q48.5 88.5 48.5 210.5 l0 249 l-188 0 l0 129 l900 0 l0 -129 l-582 0 l0 -153 l513 0 l0 -582 l-272 0 l0 130 l143 0 l0 324 l-384 0 q-6 -167 -85.5 -287 q-79.5 -120 -244.5 -172 l0 152 Z" /><glyph glyph-name="uni4E08" unicode="&#x4e08;" d="M950 -110 q-297 57 -472 177 q-150 -101 -410 -172 l0 143 q172 44 300 123 q-130 138 -164 351 l131 0 q37 -169 135 -273 q135 124 161 307 l-581 0 l0 130 l586 0 l0 124 l130 0 l0 -124 l184 0 l0 -130 l-187 0 q-21 -240 -183 -397 q70 -44 161 -76.5 q91 -32.5 209 -58.5 l0 -124 Z" /><glyph glyph-name="uni4E09" unicode="&#x4e09;" d="M40 65 l920 0 l0 -131 l-920 0 l0 131 ZM92 762 l816 0 l0 -131 l-816 0 l0 131 ZM159 431 l682 0 l0 -129 l-682 0 l0 129 Z" /><glyph glyph-name="uni4E0A" unicode="&#x4e0a;" d="M40 57 l337 0 l0 743 l138 0 l0 -240 l382 0 l0 -130 l-382 0 l0 -373 l445 0 l0 -136 l-920 0 l0 136 Z" /><glyph glyph-name="uni4E0B" unicode="&#x4e0b;" d="M374 636 l-334 0 l0 136 l920 0 l0 -136 l-448 0 l0 -736 l-138 0 l0 736 ZM723 507 l182 -427 l-142 0 l-182 427 l142 0 Z" /><glyph glyph-name="uni4E0D" unicode="&#x4e0d;" d="M435 403 q-147 -179 -395 -276 l0 142 q137 63 232 153.5 q95 90.5 157 217.5 l-359 0 l0 127 l860 0 l0 -127 l-357 0 q-35 -87 -84 -163 l76 0 l0 -577 l-129 0 l-1 503 ZM634 411 l326 -140 l0 -136 l-326 140 l0 136 Z" /><glyph glyph-name="uni4E0E" unicode="&#x4e0e;" d="M556 28 l217 0 l17 334 l-659 0 l40 446 l131 0 l-6 -70 l624 0 l0 -126 l-636 0 l-11 -124 l652 0 l-30 -588 l-339 0 l0 128 ZM30 247 l670 0 l0 -127 l-670 0 l0 127 Z" /><glyph glyph-name="uni4E10" unicode="&#x4e10;" d="M600 29 l161 0 l14 201 l-650 0 l0 375 l128 0 l0 -248 l174 0 l0 303 l-377 0 l0 127 l900 0 l0 -127 l-395 0 l0 -83 l315 0 l0 -126 l-315 0 l0 -94 l361 0 l-30 -457 l-286 0 l0 129 Z" /><glyph glyph-name="uni4E11" unicode="&#x4e11;" d="M289 48 l25 244 l-164 0 l0 128 l177 0 l24 232 l-241 0 l0 129 l778 0 l-38 -733 l100 0 l0 -130 l-900 0 l0 130 l239 0 ZM718 48 l13 244 l-283 0 l-25 -244 l295 0 ZM737 420 l12 232 l-264 0 l-24 -232 l276 0 Z" /><glyph glyph-name="uni4E13" unicode="&#x4e13;" d="M860 -110 q-364 85 -720 99 l0 123 q252 -14 448 -45 l69 136 l-491 0 l74 206 l-190 0 l0 122 l233 0 l32 88 l-222 0 l0 122 l265 0 l28 77 l134 0 l-28 -77 l415 0 l0 -122 l-458 0 l-32 -88 l533 0 l0 -122 l-576 0 l-30 -84 l509 0 l-141 -279 q80 -16 148 -33 l0 -123 Z" /><glyph glyph-name="uni4E14" unicode="&#x4e14;" d="M150 47 l0 733 l700 0 l0 -733 l110 0 l0 -127 l-920 0 l0 127 l110 0 ZM720 47 l0 126 l-440 0 l0 -126 l440 0 ZM720 296 l0 119 l-440 0 l0 -119 l440 0 ZM720 538 l0 119 l-440 0 l0 -119 l440 0 Z" /><glyph glyph-name="uni4E16" unicode="&#x4e16;" d="M142 615 l0 165 l132 0 l0 -165 l119 0 l0 195 l130 0 l0 -195 l161 0 l0 195 l130 0 l0 -195 l146 0 l0 -133 l-146 0 l0 -330 l-420 0 l-1 330 l-119 0 l0 -430 l656 0 l0 -132 l-787 0 l-1 562 l-102 0 l0 133 l102 0 ZM685 283 l0 199 l-162 0 l0 -199 l162 0 Z" /><glyph glyph-name="uni4E1A" unicode="&#x4e1a;" d="M40 45 l275 0 l0 765 l128 0 l0 -765 l114 0 l0 765 l128 0 l0 -765 l275 0 l0 -129 l-920 0 l0 129 ZM189 716 l80 -535 l-130 0 l-80 535 l130 0 ZM811 716 l130 0 l-80 -535 l-130 0 l80 535 Z" /><glyph glyph-name="uni4E1B" unicode="&#x4e1b;" d="M38 80 q91 166 127 343.5 q36 177.5 36 387.5 l129 0 q0 -87 -4 -155 l108 0 l96 -431 q52 135 73.5 278.5 q21.5 143.5 21.5 308.5 l129 0 q0 -106 -7 -196 l87 0 l126 -536 l-130 0 l-97 411 q-30 -215 -112 -411 l-159 0 q29 53 48 98 l-100 0 l-90 405 q-23 -266 -123 -503 l-159 0 ZM50 30 l900 0 l0 -122 l-900 0 l0 122 Z" /><glyph glyph-name="uni4E1C" unicode="&#x4e1c;" d="M366 28 l97 0 l0 247 l-381 0 l0 125 l63 0 l88 205 l-162 0 l0 127 l217 0 l34 80 l149 0 l-34 -80 l492 0 l0 -127 l-547 0 l-88 -205 l169 0 l0 147 l130 0 l0 -147 l305 0 l0 -125 l-305 0 l0 -375 l-227 0 l0 128 ZM33 -76 q87 153 132 292 l139 0 q-46 -148 -120 -292 l-151 0 ZM835 216 q45 -139 132 -292 l-151 0 q-74 144 -120 292 l139 0 Z" /><glyph glyph-name="uni4E1D" unicode="&#x4e1d;" d="M524 256 l77 0 l57 111 l-163 92 l0 149 l69 -40 l126 241 l137 0 l-157 -301 l51 -29 l105 203 l138 0 l-220 -426 l180 0 l0 -126 l-400 0 l0 126 ZM50 43 l900 0 l0 -126 l-900 0 l0 126 ZM60 595 l55 -31 l128 245 l136 0 l-158 -304 l50 -28 l107 205 l139 0 l-220 -426 l173 0 l0 -126 l-400 0 l0 126 l83 0 l56 107 l-149 84 l0 148 Z" /><glyph glyph-name="uni4E24" unicode="&#x4e24;" d="M927 -100 l-127 0 l0 66 l-97 0 l-51 332 q-24 -176 -57 -332 l-125 0 q12 50 21 94 l-85 0 l-35 227 q-21 -143 -56 -321 l-115 0 l0 -66 l-127 0 l0 671 l213 0 l6 93 l-248 0 l0 126 l912 0 l0 -126 l-244 0 q-1 -46 -6 -93 l221 0 l0 -671 ZM200 9 q48 208 74 439 l-74 0 l0 -439 ZM455 404 l46 -296 q33 162 53 340 l-139 0 l-5 -44 l45 0 ZM566 571 q3 32 7 93 l-141 0 q-2 -40 -4 -62 l-2 -31 l140 0 ZM738 404 l62 -399 l0 443 l-105 0 q-1 -13 -5 -44 l48 0 Z" /><glyph glyph-name="uni4E25" unicode="&#x4e25;" d="M330 662 l-262 0 l0 126 l864 0 l0 -126 l-262 0 l0 -230 l280 0 l0 -128 l-707 0 l0 -3 q0 -112 -14.5 -209 q-14.5 -97 -49.5 -192 l-144 0 q42 92 59 189 q17 97 17 212 l0 131 l219 0 l0 230 ZM221 626 l49 -159 l-118 0 l-49 159 l118 0 ZM542 432 l0 230 l-84 0 l0 -230 l84 0 ZM779 626 l118 0 l-49 -159 l-118 0 l49 159 Z" /><glyph glyph-name="uni4E2A" unicode="&#x4e2a;" d="M50 468 q212 120 299 332 l302 0 q87 -212 299 -332 l0 -142 q-121 45 -219.5 135 q-98.5 90 -159.5 207 l-142 0 q-61 -117 -159.5 -207 q-98.5 -90 -219.5 -135 l0 142 ZM432 530 l136 0 l0 -630 l-136 0 l0 630 Z" /><glyph glyph-name="uni4E2D" unicode="&#x4e2d;" d="M565 810 l0 -116 l362 0 l0 -565 l-362 0 l0 -229 l-130 0 l0 229 l-362 0 l0 565 l362 0 l0 116 l130 0 ZM435 258 l0 307 l-232 0 l0 -307 l232 0 ZM797 258 l0 307 l-232 0 l0 -307 l232 0 Z" /><glyph glyph-name="uni4E30" unicode="&#x4e30;" d="M434 82 l-394 0 l0 128 l394 0 l0 130 l-319 0 l0 126 l319 0 l0 130 l-357 0 l0 128 l357 0 l0 86 l132 0 l0 -86 l357 0 l0 -128 l-357 0 l0 -130 l319 0 l0 -126 l-319 0 l0 -130 l394 0 l0 -128 l-394 0 l0 -182 l-132 0 l0 182 Z" /><glyph glyph-name="uni4E34" unicode="&#x4e34;" d="M439 365 l500 0 l0 -460 l-500 0 l0 460 ZM64 729 l126 0 l0 -699 l-126 0 l0 699 ZM241 800 l129 0 l0 -900 l-129 0 l0 900 ZM375 416 q96 190 130 384 l137 0 l-8 -51 l322 0 l0 -128 l-350 0 q-29 -110 -77 -205 l-154 0 ZM630 23 l0 224 l-64 0 l0 -224 l64 0 ZM782 584 l60 -178 l-132 0 l-60 178 l132 0 ZM812 23 l0 224 l-66 0 l0 -224 l66 0 Z" /><glyph glyph-name="uni4E3A" unicode="&#x4e3a;" d="M44 40 q287 113 323 395 l-305 0 l0 130 l310 0 l0 245 l134 0 l0 -245 l381 0 l0 -665 l-322 0 l0 132 l192 0 l0 403 l-255 0 q-4 -42 -12 -81 l89 0 l99 -244 l-135 0 l-72 176 q-47 -142 -154.5 -244 q-107.5 -102 -272.5 -152 l0 150 ZM242 800 l80 -197 l-130 0 l-80 197 l130 0 Z" /><glyph glyph-name="uni4E3B" unicode="&#x4e3b;" d="M41 49 l392 0 l0 212 l-313 0 l0 126 l313 0 l0 194 l-361 0 l0 128 l362 0 l-32 111 l136 0 l32 -111 l358 0 l0 -128 l-361 0 l0 -194 l313 0 l0 -126 l-313 0 l0 -212 l392 0 l0 -128 l-918 0 l0 128 Z" /><glyph glyph-name="uni4E3D" unicode="&#x4e3d;" d="M533 589 l393 0 l0 -689 l-122 0 l0 563 l-149 0 l0 -563 l-122 0 l0 689 ZM50 776 l900 0 l0 -124 l-900 0 l0 124 ZM74 589 l393 0 l0 -689 l-122 0 l0 563 l-149 0 l0 -563 l-122 0 l0 689 ZM300 391 l34 -339 l-93 0 l-34 339 l93 0 ZM759 391 l34 -339 l-93 0 l-34 339 l93 0 Z" /><glyph glyph-name="uni4E3E" unicode="&#x4e3e;" d="M661 601 l74 199 l129 0 l-74 -199 l160 0 l0 -122 l-212 0 q33 -54 87.5 -91 q54.5 -37 134.5 -60 l0 -137 q-121 34 -206 91 l0 -74 l-188 0 l0 -69 l341 0 l0 -124 l-341 0 l0 -115 l-132 0 l0 115 l-341 0 l0 124 l341 0 l0 69 l-188 0 l0 74 q-85 -57 -206 -91 l0 137 q80 23 134.5 60 q54.5 37 87.5 91 l-212 0 l0 122 l611 0 ZM255 800 l65 -162 l-129 0 l-65 162 l129 0 ZM436 332 l0 94 l128 0 l0 -94 l125 0 q-66 60 -104 147 l-170 0 q-38 -87 -104 -147 l125 0 ZM528 800 l65 -162 l-129 0 l-65 162 l129 0 Z" /><glyph glyph-name="uni4E43" unicode="&#x4e43;" d="M40 40 q117 46 168 141.5 q51 95.5 51 259.5 l0 198 l-165 0 l0 136 l788 0 l-94 -287 l146 0 l0 -588 l-278 0 l0 136 l150 0 l0 322 l-202 0 l92 281 l-308 0 l0 -204 q0 -214 -79 -350.5 q-79 -136.5 -269 -194.5 l0 150 Z" /><glyph glyph-name="uni4E45" unicode="&#x4e45;" d="M50 23 q221 69 347 203.5 q126 134.5 184 355.5 l-234 0 q-89 -170 -278 -270 l0 146 q93 65 147.5 152.5 q54.5 87.5 79.5 209.5 l122 0 q-6 -58 -21 -110 l341 0 q-35 -211 -104 -357 q261 -172 321 -452 l-130 0 q-61 226 -254 338 q-85 -129 -213.5 -215.5 q-128.5 -86.5 -307.5 -133.5 l0 133 Z" /><glyph glyph-name="uni4E48" unicode="&#x4e48;" d="M114 36 l137 0 q203 317 359 649 l149 0 q-152 -348 -336 -649 l355 0 l-89 275 l138 0 l131 -407 l-844 0 l0 132 ZM31 207 q208 292 350 593 l151 0 q-138 -310 -331 -593 l-170 0 Z" /><glyph glyph-name="uni4E49" unicode="&#x4e49;" d="M46 31 q209 58 337 128 q-225 211 -257 590 l133 0 q17 -177 76.5 -301.5 q59.5 -124.5 164.5 -210.5 q105 86 164.5 210.5 q59.5 124.5 76.5 301.5 l133 0 q-32 -379 -257 -590 q128 -70 337 -128 l0 -141 q-277 62 -454 177 q-177 -115 -454 -177 l0 141 ZM528 820 l60 -249 l-130 0 l-60 249 l130 0 Z" /><glyph glyph-name="uni4E4B" unicode="&#x4e4b;" d="M50 39 q432 202 635 534 l-604 0 l0 131 l353 0 l0 116 l132 0 l0 -116 l331 0 q-157 -414 -529 -654 q54 -12 124 -12 l468 0 l0 -131 l-468 0 q-98 0 -163 11.5 q-65 11.5 -121 40.5 q-89 -44 -158 -70 l0 150 Z" /><glyph glyph-name="uni4E4E" unicode="&#x4e4e;" d="M320 26 l124 0 l0 200 l-397 0 l0 126 l397 0 l0 305 q-175 -6 -352 -6 l0 124 q405 0 816 33 l0 -124 q-147 -12 -328 -22 l0 -310 l373 0 l0 -126 l-373 0 l0 -326 l-260 0 l0 126 ZM267 613 l70 -220 l-130 0 l-70 220 l130 0 ZM737 613 l130 0 l-70 -220 l-130 0 l70 220 Z" /><glyph glyph-name="uni4E4F" unicode="&#x4e4f;" d="M50 23 q382 128 580 343 l-540 0 l0 128 l345 0 l0 111 l130 0 l0 -111 l308 0 q-139 -280 -458 -455 q32 -4 77 -4 l468 0 l0 -128 l-468 0 q-91 0 -153 9.5 q-62 9.5 -114 33.5 q-86 -34 -175 -60 l0 133 ZM70 761 q422 0 860 47 l0 -130 q-438 -48 -860 -47 l0 130 Z" /><glyph glyph-name="uni4E50" unicode="&#x4e50;" d="M366 28 l97 0 l0 310 l-385 0 l60 454 q373 0 771 26 l0 -123 q-311 -24 -656 -27 l-28 -210 l238 0 l0 139 l130 0 l0 -139 l357 0 l0 -120 l-357 0 l0 -438 l-227 0 l0 128 ZM33 -66 q87 176 132 336 l139 0 q-46 -173 -120 -336 l-151 0 ZM835 270 q45 -160 132 -336 l-151 0 q-74 163 -120 336 l139 0 Z" /><glyph glyph-name="uni4E54" unicode="&#x4e54;" d="M116 -100 q67 75 95 153.5 q28 78.5 28 166.5 l0 43 q-85 -47 -199 -77 l0 134 q164 41 238 130 l-228 0 l0 126 l384 0 l0 82 q-142 -3 -320 -3 l0 126 q252 0 421.5 6.5 q169.5 6.5 351.5 24.5 l0 -126 q-171 -17 -321 -24 l0 -86 l384 0 l0 -126 l-228 0 q74 -89 238 -130 l0 -134 q-100 26 -181 67 l0 -353 l-130 0 l0 395 l60 0 q-94 64 -141 155 l-136 0 q-42 -81 -125 -143 l60 0 l0 -87 q0 -96 -19 -172.5 q-19 -76.5 -64 -147.5 l-168 0 Z" /><glyph glyph-name="uni4E58" unicode="&#x4e58;" d="M436 64 q-173 -112 -386 -155 l0 123 q163 35 318 123 l-118 0 l0 37 l-183 -42 l0 115 l183 39 l0 45 l-173 0 l0 110 l173 0 l0 44 l124 0 l0 -345 l45 27 q5 4 9.5 6.5 q4.5 2.5 7.5 4.5 l0 322 l-377 0 l0 112 l377 0 l0 46 q-154 -3 -321 -3 l0 112 q405 0 770 22 l0 -114 q-129 -10 -321 -15 l0 -48 l377 0 l0 -112 l-377 0 l0 -322 q186 -121 386 -164 l0 -123 q-213 43 -386 155 l0 -164 l-128 0 l0 164 ZM626 503 l124 0 l0 -55 l173 37 l0 -111 l-173 -40 l0 -47 l173 0 l0 -109 l-297 0 l0 325 Z" /><glyph glyph-name="uni4E59" unicode="&#x4e59;" d="M584 632 l-441 0 l0 135 l712 0 l-528 -702 l461 0 l0 187 l134 0 l0 -322 l-866 0 l528 702 Z" /><glyph glyph-name="uni4E5D" unicode="&#x4e5d;" d="M40 44 q116 46 167.5 140.5 q51.5 94.5 51.5 256.5 l0 109 l-181 0 l0 134 l181 0 l0 126 l133 0 l0 -126 l424 0 l0 -648 l154 0 l0 -136 l-287 0 l0 650 l-291 0 l0 -115 q0 -213 -81 -350 q-81 -137 -271 -195 l0 154 Z" /><glyph glyph-name="uni4E5E" unicode="&#x4e5e;" d="M565 373 l-358 0 l0 129 l658 0 l-456 -464 l541 0 l0 -130 l-842 0 l457 465 ZM70 587 q46 36 79.5 79 q33.5 43 59.5 101 l721 0 l0 -128 l-645 0 q-37 -66 -91.5 -116 q-54.5 -50 -123.5 -77 l0 141 Z" /><glyph glyph-name="uni4E5F" unicode="&#x4e5f;" d="M156 333 l-116 -38 l0 154 l116 38 l0 243 l130 0 l0 -199 l172 57 l0 216 l130 0 l0 -173 l302 100 l0 -611 l-130 0 l0 414 l-172 -57 l0 -357 l-130 0 l0 314 l-172 -57 l0 -338 l674 0 l0 -132 l-804 0 l0 426 Z" /><glyph glyph-name="uni4E60" unicode="&#x4e60;" d="M606 30 l168 0 l0 600 l-681 0 l0 131 l812 0 l0 -861 l-299 0 l0 130 ZM104 85 l558 227 l0 -145 l-558 -227 l0 145 ZM416 577 l104 -258 l-146 0 l-104 258 l146 0 Z" /><glyph glyph-name="uni4E61" unicode="&#x4e61;" d="M50 18 q376 11 584 182 l-578 0 l0 126 l230 0 l73 63 l-242 110 l0 135 l88 -40 l254 226 l190 0 l-315 -284 l128 -58 l220 189 l201 0 l-396 -341 l264 0 q41 56 69 120 l139 0 q-93 -274 -327 -410.5 q-234 -136.5 -582 -145.5 l0 128 Z" /><glyph glyph-name="uni4E66" unicode="&#x4e66;" d="M475 709 l305 0 l-17 -330 l181 0 l-20 -428 l-294 0 l0 118 l167 0 l10 187 l-332 0 l0 -364 l-131 0 l0 364 l-304 0 l0 123 l303 0 l0 207 l-263 0 l0 123 l263 0 l0 99 l132 0 l0 -99 ZM633 379 l12 207 l-170 0 l0 -207 l158 0 ZM908 800 l50 -216 l-128 0 l-50 216 l128 0 Z" /><glyph glyph-name="uni4E71" unicode="&#x4e71;" d="M41 549 l180 0 l0 109 q-73 -3 -154 -3 l0 125 q224 0 438 26 l0 -125 q-67 -9 -156 -16 l0 -116 l182 0 l0 -124 l-182 0 l0 -113 l146 0 l0 -402 l-419 0 l0 402 l145 0 l0 113 l-180 0 l0 124 ZM367 35 l0 153 l-163 0 l0 -153 l163 0 ZM600 800 l130 0 l0 -770 l86 0 l19 237 l129 0 l-29 -367 l-335 0 l0 900 Z" /><glyph glyph-name="uni4E86" unicode="&#x4e86;" d="M285 36 l194 0 l0 408 q118 97 192 202 l-547 0 l0 138 l787 0 q-118 -224 -294 -380 l0 -506 l-332 0 l0 138 Z" /><glyph glyph-name="uni4E88" unicode="&#x4e88;" d="M330 28 l160 0 l0 322 l-440 0 l0 128 l302 0 l-83 152 l140 0 l83 -152 l74 0 l100 184 l-532 0 l0 126 l747 0 l-168 -310 l237 0 l0 -258 l-130 0 l0 130 l-200 0 l0 -450 l-290 0 l0 128 Z" /><glyph glyph-name="uni4E89" unicode="&#x4e89;" d="M837 800 q-39 -101 -96 -190 l142 0 l0 -187 l77 0 l0 -129 l-77 0 l0 -191 l-300 0 l0 -203 l-272 0 l0 128 l140 0 l0 75 l-320 0 l0 125 l320 0 l0 70 l-401 0 l0 121 l401 0 l0 67 l-270 0 l0 48 q-45 -27 -105 -46 l0 129 q125 62 179 183 l582 0 ZM593 610 q24 32 42 63 l-309 0 q-24 -36 -49 -63 l316 0 ZM755 228 l0 70 l-172 0 l0 -70 l172 0 ZM755 419 l0 67 l-172 0 l0 -67 l172 0 Z" /><glyph glyph-name="uni4E8B" unicode="&#x4e8b;" d="M440 770 l0 50 l133 0 l0 -50 l367 0 l0 -105 l-367 0 l0 -34 l306 0 l0 -213 l-306 0 l0 -34 l322 0 l0 -123 l75 -1 l0 -114 l-75 0 l0 -120 l-322 0 l0 -136 l-272 0 l0 100 l139 0 l0 36 l-360 0 l0 92 l360 0 l0 36 l-410 0 l0 101 l410 -1 l0 38 l-360 0 l0 92 l360 0 l0 34 l-319 0 l0 213 l319 0 l0 34 l-380 0 l0 105 l380 0 ZM440 502 l0 47 l-192 0 l0 -47 l192 0 ZM770 118 l0 36 l-197 0 l0 -36 l197 0 ZM770 253 l0 39 l-197 0 l0 -38 l197 -1 ZM752 502 l0 47 l-179 0 l0 -47 l179 0 Z" /><glyph glyph-name="uni4E8C" unicode="&#x4e8c;" d="M50 83 l900 0 l0 -135 l-900 0 l0 135 ZM103 746 l794 0 l0 -135 l-794 0 l0 135 Z" /><glyph glyph-name="uni4E8E" unicode="&#x4e8e;" d="M286 30 l175 0 l0 288 l-411 0 l0 131 l411 0 l0 202 l-354 0 l0 131 l786 0 l0 -131 l-294 0 l0 -202 l351 0 l0 -131 l-351 0 l0 -418 l-313 0 l0 130 Z" /><glyph glyph-name="uni4E91" unicode="&#x4e91;" d="M87 57 l70 0 l172 301 l-279 0 l0 128 l900 0 l0 -128 l-468 0 l-172 -301 l439 0 l-63 148 l146 0 l118 -277 l-863 0 l0 129 ZM121 765 l758 0 l0 -128 l-758 0 l0 128 Z" /><glyph glyph-name="uni4E92" unicode="&#x4e92;" d="M921 778 l0 -128 l-583 0 l-12 -93 l532 0 l-49 -513 l146 0 l0 -128 l-910 0 l0 128 l632 0 l10 111 l-542 0 l62 495 l-128 0 l0 128 l842 0 ZM699 281 l15 150 l-404 0 l-18 -150 l407 0 Z" /><glyph glyph-name="uni4E94" unicode="&#x4e94;" d="M276 50 l50 288 l-168 0 l0 128 l191 0 l32 183 l-294 0 l0 128 l826 0 l0 -128 l-400 0 l-32 -183 l366 0 l0 -416 l123 0 l0 -129 l-940 0 l0 129 l246 0 ZM718 50 l0 288 l-260 0 l-50 -288 l310 0 Z" /><glyph glyph-name="uni4E95" unicode="&#x4e95;" d="M254 686 l0 134 l130 0 l0 -134 l246 0 l0 134 l129 0 l0 -134 l160 0 l0 -126 l-160 0 l0 -242 l201 0 l0 -126 l-201 0 l0 -292 l-129 0 l0 292 l-258 0 q-12 -79 -37.5 -150 q-25.5 -71 -67.5 -142 l-171 0 q107 132 141 292 l-197 0 l0 126 l213 0 q1 19 1 58 l0 184 l-173 0 l0 126 l173 0 ZM630 318 l0 242 l-246 0 l0 -184 q0 -39 -1 -58 l247 0 Z" /><glyph glyph-name="uni4E9A" unicode="&#x4e9a;" d="M321 41 l0 613 l-261 0 l0 128 l880 0 l0 -128 l-261 0 l0 -613 l281 0 l0 -128 l-920 0 l0 128 l281 0 ZM196 575 l74 -426 l-129 0 l-74 426 l129 0 ZM551 41 l0 613 l-102 0 l0 -613 l102 0 ZM805 575 l129 0 l-75 -426 l-129 0 l75 426 Z" /><glyph glyph-name="uni4E9B" unicode="&#x4e9b;" d="M45 373 l43 6 l0 351 l126 0 l0 -334 l76 11 l0 393 l128 0 l0 -116 l114 0 l0 -126 l-114 0 l0 -134 l114 16 l0 -135 l-487 -67 l0 135 ZM50 39 l900 0 l0 -124 l-900 0 l0 124 ZM135 219 l730 0 l0 -122 l-730 0 l0 122 ZM570 800 l129 0 l0 -151 q144 44 241 88 l0 -134 q-93 -45 -241 -88 l0 -111 l255 0 l0 -129 l-384 0 l0 525 Z" /><glyph glyph-name="uni4EA1" unicode="&#x4ea1;" d="M155 592 l-105 0 l0 130 l390 0 l0 98 l132 0 l0 -98 l388 0 l0 -130 l-672 0 l0 -541 l628 0 l0 -131 l-760 0 l-1 672 Z" /><glyph glyph-name="uni4EA4" unicode="&#x4ea4;" d="M950 625 l-358 0 q165 -83 334 -132 l0 -142 q-90 25 -163 52 q-48 -188 -159 -301 q65 -33 149.5 -55 q84.5 -22 196.5 -36 l0 -121 q-144 14 -255 45 q-111 31 -195 83 q-84 -52 -195 -83 q-111 -31 -255 -45 l0 121 q112 14 196.5 36 q84.5 22 149.5 55 q-111 113 -159 301 q-73 -27 -163 -52 l0 142 q169 49 334 132 l-358 0 l0 126 l384 0 l0 69 l132 0 l0 -69 l384 0 l0 -126 ZM362 415 q46 -155 138 -241 q92 86 138 241 l94 0 q-77 31 -152 69 l0 141 l-160 0 l0 -141 q-75 -38 -152 -69 l94 0 Z" /><glyph glyph-name="uni4EA6" unicode="&#x4ea6;" d="M60 30 q137 49 208 151 q71 102 71 283 l0 132 l-281 0 l0 130 l375 0 l0 94 l134 0 l0 -94 l375 0 l0 -130 l-226 0 l0 -706 l-263 0 l0 122 l134 0 l0 584 l-120 0 l0 -132 q0 -222 -104 -370 q-104 -148 -303 -204 l0 140 ZM39 165 q84 180 99 372 l116 0 q-5 -103 -26.5 -194 q-21.5 -91 -60.5 -178 l-128 0 ZM914 506 q41 -220 41 -435 l-121 0 q0 220 -43 435 l123 0 Z" /><glyph glyph-name="uni4EA7" unicode="&#x4ea7;" d="M35 -100 q42 92 59 189 q17 97 17 212 l0 167 l134 0 l-53 143 l136 0 l53 -143 l238 0 l53 143 l136 0 l-53 -143 l195 0 l0 -128 l-707 0 l0 -39 q0 -112 -14.5 -209 q-14.5 -97 -49.5 -192 l-144 0 ZM68 761 l387 0 l0 58 l132 0 l0 -58 l345 0 l0 -128 l-864 0 l0 128 Z" /><glyph glyph-name="uni4EAB" unicode="&#x4eab;" d="M36 192 l517 0 q43 21 85 49 l-527 0 l0 116 l799 0 q-78 -98 -167 -165 l221 0 l0 -117 l-341 0 l0 -175 l-299 0 l0 120 l169 0 l0 55 l-457 0 l0 117 ZM67 777 l367 0 l0 43 l132 0 l0 -43 l367 0 l0 -115 l-866 0 l0 115 ZM145 630 l710 0 l0 -237 l-710 0 l0 237 ZM725 487 l0 51 l-450 0 l0 -51 l450 0 Z" /><glyph glyph-name="uni4EAC" unicode="&#x4eac;" d="M105 581 l790 0 l0 -332 l-330 0 l0 -349 l-130 0 l0 349 l-330 0 l0 332 ZM50 768 l384 0 l0 52 l132 0 l0 -52 l384 0 l0 -123 l-900 0 l0 123 ZM54 -78 q80 144 121 278 l139 0 q-40 -139 -109 -278 l-151 0 ZM765 367 l0 98 l-530 0 l0 -98 l530 0 ZM825 200 q41 -134 121 -278 l-151 0 q-69 139 -109 278 l139 0 Z" /><glyph glyph-name="uni4EB2" unicode="&#x4eb2;" d="M566 820 l0 -55 l347 0 l0 -125 l-126 0 l-39 -105 l210 0 l0 -126 l-393 0 l0 -76 l361 0 l0 -124 l-361 0 l0 -309 l-130 0 l0 309 l-361 0 l0 124 l361 0 l0 76 l-393 0 l0 126 l210 0 l-39 105 l-126 0 l0 125 l347 0 l0 55 l132 0 ZM41 -70 q87 119 130 235 l147 0 q-39 -118 -115 -235 l-162 0 ZM399 535 l202 0 l39 105 l-280 0 l39 -105 ZM829 165 q43 -116 130 -235 l-162 0 q-76 117 -115 235 l147 0 Z" /><glyph glyph-name="uni4EBA" unicode="&#x4eba;" d="M39 37 q185 73 289 212.5 q104 139.5 104 340.5 l-1 213 l138 0 l0 -213 q0 -201 103.5 -340.5 q103.5 -139.5 288.5 -212.5 l0 -149 q-165 53 -281.5 151 q-116.5 98 -179.5 231 q-63 -133 -179.5 -231 q-116.5 -98 -281.5 -151 l0 149 Z" /><glyph glyph-name="uni4EBF" unicode="&#x4ebf;" d="M703 635 l-309 0 l0 132 l529 0 l-372 -716 l281 0 l0 201 l128 0 l0 -333 l-628 0 l371 716 ZM38 469 q116 133 162 331 l131 0 q-24 -140 -76 -252 l0 -648 l-128 0 l0 450 q-39 -45 -89 -87 l0 206 Z" /><glyph glyph-name="uni4EC0" unicode="&#x4ec0;" d="M43 458 q125 137 178 342 l127 0 q-22 -120 -64 -218 l0 -682 l-131 0 l0 469 q-51 -59 -110 -106 l0 195 ZM353 483 l240 0 l0 317 l132 0 l0 -317 l241 0 l0 -133 l-241 0 l0 -450 l-131 0 l0 450 l-241 0 l0 133 Z" /><glyph glyph-name="uni4EC1" unicode="&#x4ec1;" d="M349 800 q-24 -136 -78 -249 l0 -651 l-130 0 l0 455 q-49 -54 -98 -92 l0 199 q126 135 176 338 l130 0 ZM948 -52 l0 132 l-626 0 l0 -132 l626 0 ZM910 612 l0 130 l-549 0 l0 -130 l549 0 Z" /><glyph glyph-name="uni4EC5" unicode="&#x4ec5;" d="M960 -112 q-192 85 -322 220 q-132 -135 -323 -220 l0 159 q137 68 233 167 q-123 173 -166 407 l-53 0 l0 129 l581 0 q-27 -315 -183 -536 q96 -99 233 -167 l0 -159 ZM38 462 q119 136 165 338 l128 0 q-26 -149 -82 -265 l0 -635 l-128 0 l0 443 q-38 -43 -83 -80 l0 199 ZM514 621 q38 -170 124 -297 q85 128 123 297 l-247 0 Z" /><glyph glyph-name="uni4EC6" unicode="&#x4ec6;" d="M48 458 q125 137 178 342 l127 0 q-20 -106 -55 -196 l0 -704 l-131 0 l0 480 q-52 -63 -119 -117 l0 195 ZM519 800 l130 0 l0 -900 l-130 0 l0 900 ZM822 631 q87 -258 116 -542 l-127 0 q-28 273 -125 542 l136 0 Z" /><glyph glyph-name="uni4EC7" unicode="&#x4ec7;" d="M749 539 l-184 0 l0 -77 q0 -147 -28.5 -284.5 q-28.5 -137.5 -98.5 -277.5 l-160 0 q89 136 123.5 272 q34.5 136 34.5 290 l0 77 l-109 0 l0 130 l109 0 l0 131 l130 0 l0 -131 l312 0 l0 -639 l92 0 l0 -130 l-221 0 l0 639 ZM38 462 q119 136 165 338 l128 0 q-23 -140 -81 -263 l0 -637 l-129 0 l0 443 q-38 -43 -83 -80 l0 199 Z" /><glyph glyph-name="uni4ECA" unicode="&#x4eca;" d="M255 20 q139 1 229.5 21 q90.5 20 145 58 q54.5 38 88.5 97 l-598 0 l0 129 l747 0 l0 -124 q-39 -98 -109 -166 q-70 -68 -193 -106.5 q-123 -38.5 -310 -38.5 l0 130 ZM40 468 q212 120 299 332 l322 0 q87 -212 299 -332 l0 -138 q-121 45 -220 135.5 q-99 90.5 -158 208.5 l-164 0 q-59 -118 -158 -208.5 q-99 -90.5 -220 -135.5 l0 138 ZM555 573 l32 -179 l-134 0 l-32 179 l134 0 Z" /><glyph glyph-name="uni4ECB" unicode="&#x4ecb;" d="M960 338 q-109 40 -201 117 l0 -555 l-130 0 l0 582 l99 0 q-87 81 -145 192 l-166 0 q-58 -111 -145 -192 l112 0 l0 -106 q0 -148 -27.5 -258 q-27.5 -110 -94.5 -218 l-166 0 q88 109 123 224.5 q35 115.5 35 251.5 l0 90 q-98 -85 -214 -128 l0 139 q213 118 299 323 l322 0 q86 -205 299 -323 l0 -139 Z" /><glyph glyph-name="uni4ECD" unicode="&#x4ecd;" d="M289 -100 q68 132 97 267.5 q29 135.5 29 294.5 l0 189 l-63 0 l0 129 l534 0 l-68 -294 l108 0 l0 -586 l-244 0 l0 130 l116 0 l0 332 l-130 0 l67 289 l-192 0 l0 -189 q0 -154 -24.5 -290 q-24.5 -136 -79.5 -272 l-150 0 ZM40 462 q119 136 165 338 l128 0 q-23 -138 -79 -259 l0 -641 l-128 0 l0 446 q-39 -44 -86 -83 l0 199 Z" /><glyph glyph-name="uni4ECE" unicode="&#x4ece;" d="M462 -100 q37 59 59 104 l-111 0 l-81 391 q-9 -133 -39.5 -254.5 q-30.5 -121.5 -90.5 -240.5 l-161 0 q89 144 126 293.5 q37 149.5 37 319.5 l0 297 l131 0 l0 -297 l103 0 l100 -479 q49 110 69.5 227.5 q20.5 117.5 20.5 251.5 l0 297 l131 0 l0 -297 l0 -10 l88 0 l126 -603 l-129 0 l-93 443 q-22 -237 -125 -443 l-161 0 Z" /><glyph glyph-name="uni4ED3" unicode="&#x4ed3;" d="M176 400 q-69 -45 -136 -70 l0 138 q212 120 299 332 l322 0 q87 -212 299 -332 l0 -138 q-83 31 -160 87 l0 -302 l-289 0 l0 124 l161 0 l0 145 l-368 0 l0 -356 l596 0 l0 -128 l-724 0 l0 500 ZM696 510 q-67 71 -114 164 l-164 0 q-47 -93 -114 -164 l392 0 Z" /><glyph glyph-name="uni4ED6" unicode="&#x4ed6;" d="M368 379 l-93 -30 l0 150 l93 30 l0 231 l126 0 l0 -190 l93 30 l0 204 l126 0 l0 -163 l218 70 l0 -594 l-126 0 l0 403 l-92 -29 l0 -374 l-126 0 l0 333 l-93 -30 l0 -384 l466 0 l0 -129 l-592 0 l0 472 ZM40 469 q116 133 162 331 l131 0 q-25 -141 -76 -253 l0 -652 l-128 0 l0 454 q-36 -41 -89 -86 l0 206 Z" /><glyph glyph-name="uni4ED7" unicode="&#x4ed7;" d="M959 -110 q-188 51 -328 162 q-125 -111 -316 -162 l0 142 q129 34 219 110 q-70 80 -109.5 168.5 q-39.5 88.5 -45.5 177.5 l127 0 q5 -66 34 -131 q29 -65 78 -122 q72 104 72 233 l0 75 l-372 0 l0 129 l372 0 l0 128 l130 0 l0 -128 l130 0 l0 -129 l-130 0 l0 -75 q0 -86 -26 -169 q-26 -83 -79 -155 q111 -84 244 -118 l0 -136 ZM40 469 q116 133 162 331 l131 0 q-24 -140 -76 -252 l0 -653 l-128 0 l0 455 q-39 -45 -89 -87 l0 206 Z" /><glyph glyph-name="uni4ED8" unicode="&#x4ed8;" d="M591 30 l135 0 l0 524 l-365 0 l0 130 l365 0 l0 116 l132 0 l0 -116 l102 0 l0 -130 l-102 0 l-1 -654 l-266 0 l0 130 ZM45 469 q127 133 178 331 l132 0 q-24 -132 -74 -239 l0 -666 l-130 0 l0 468 q-52 -58 -106 -100 l0 206 ZM535 459 l98 -296 l-143 0 l-98 296 l143 0 Z" /><glyph glyph-name="uni4ED9" unicode="&#x4ed9;" d="M335 687 l126 0 l0 -641 l111 0 l0 754 l128 0 l0 -754 l111 0 l0 641 l126 0 l0 -771 l-602 0 l0 771 ZM42 462 q119 136 165 338 l128 0 q-23 -140 -80 -261 l0 -639 l-128 0 l0 445 q-44 -49 -85 -82 l0 199 Z" /><glyph glyph-name="uni4EE3" unicode="&#x4ee3;" d="M932 -110 q-172 52 -272 180.5 q-100 128.5 -114 310.5 l-222 -31 l0 131 l220 31 l0 288 l132 0 l0 -270 l274 38 l0 -131 l-273 -38 q7 -129 66.5 -218 q59.5 -89 188.5 -143 l0 -148 ZM45 469 q116 133 162 331 l131 0 q-21 -122 -62 -221 l0 -680 l-132 0 l0 462 q-42 -51 -99 -98 l0 206 ZM843 789 l46 -184 l-121 0 l-46 184 l121 0 Z" /><glyph glyph-name="uni4EE4" unicode="&#x4ee4;" d="M960 338 q-121 44 -219.5 132.5 q-98.5 88.5 -157.5 203.5 l-166 0 q-59 -115 -157.5 -203.5 q-98.5 -88.5 -219.5 -132.5 l0 139 q213 118 299 323 l322 0 q86 -205 299 -323 l0 -139 ZM110 356 l757 0 q-96 -177 -208 -285 q91 -22 170 -46 l0 -135 q-341 100 -680 137 l0 135 q224 -31 369 -61 q72 62 127 129 l-535 0 l0 126 ZM555 587 l31 -175 l-134 0 l-31 175 l134 0 Z" /><glyph glyph-name="uni4EE5" unicode="&#x4ee5;" d="M390 31 q188 48 275 161 q87 113 87 304 l0 304 l130 0 l0 -313 q0 -164 -50 -280 l138 -307 l-153 0 l-75 169 q-119 -129 -352 -181 l0 143 ZM98 800 l130 0 l0 -719 l126 38 l0 -142 l-256 -77 l0 900 ZM505 782 l60 -315 l-135 0 l-60 315 l135 0 Z" /><glyph glyph-name="uni4EEA" unicode="&#x4eea;" d="M958 -110 q-187 70 -315 189 q-129 -119 -316 -189 l0 149 q133 58 224 139 q-166 215 -179 549 l128 0 q18 -277 143 -448 q124 172 142 448 l128 0 q-13 -334 -179 -549 q91 -81 224 -139 l0 -149 ZM40 469 q116 133 162 331 l131 0 q-22 -134 -74 -248 l0 -657 l-130 0 l0 455 q-39 -45 -89 -87 l0 206 ZM679 805 l45 -208 l-126 0 l-45 208 l126 0 Z" /><glyph glyph-name="uni4EEC" unicode="&#x4eec;" d="M689 30 l102 0 l0 617 l-219 0 l0 131 l347 0 l0 -878 l-230 0 l0 130 ZM40 462 q113 135 158 338 l127 0 q-24 -144 -78 -261 l0 -639 l-128 0 l0 441 q-33 -39 -79 -78 l0 199 ZM330 588 l128 0 l0 -688 l-128 0 l0 688 ZM485 800 l53 -189 l-124 0 l-54 189 l125 0 Z" /><glyph glyph-name="uni4EF0" unicode="&#x4ef0;" d="M594 783 l345 0 l0 -800 l-181 0 l0 128 l59 0 l0 542 l-97 0 l0 -753 l-126 0 l0 883 ZM40 474 q102 130 144 326 l127 0 q-21 -135 -67 -244 l0 -656 l-127 0 l0 443 q-41 -48 -77 -80 l0 211 ZM289 78 l44 11 l0 698 q109 0 242 26 l0 -131 q-56 -12 -113 -18 l0 -544 l109 27 l0 -138 l-282 -69 l0 138 Z" /><glyph glyph-name="uni4EF6" unicode="&#x4ef6;" d="M40 462 q113 135 158 338 l127 0 q-22 -134 -73 -250 l0 -650 l-130 0 l0 444 q-35 -40 -82 -81 l0 199 ZM290 405 q65 169 92 375 l123 0 q-10 -84 -17 -122 l92 0 l0 142 l130 0 l0 -142 l226 0 l0 -129 l-226 0 l0 -264 l251 0 l0 -130 l-251 0 l0 -235 l-130 0 l0 235 l-284 0 l0 130 l284 0 l0 264 l-119 0 q-13 -55 -35 -124 l-136 0 Z" /><glyph glyph-name="uni4EF7" unicode="&#x4ef7;" d="M40 469 q116 133 162 331 l131 0 q-20 -121 -67 -232 l0 -673 l-130 0 l0 463 q-45 -53 -96 -95 l0 206 ZM313 545 q126 108 184 255 l269 0 q58 -147 184 -255 l0 -154 q-169 107 -256 279 l-125 0 q-87 -172 -256 -279 l0 154 ZM328 -100 q54 86 76 169 q22 83 22 189 l0 197 l129 0 l0 -197 q0 -103 -16.5 -188.5 q-16.5 -85.5 -54.5 -169.5 l-156 0 ZM722 455 l129 0 l0 -555 l-129 0 l0 555 Z" /><glyph glyph-name="uni4EFB" unicode="&#x4efb;" d="M40 469 q116 133 162 331 l131 0 q-22 -134 -74 -248 l0 -657 l-130 0 l0 455 q-39 -45 -89 -87 l0 206 ZM316 445 l256 0 l0 212 q-111 -3 -222 -3 l0 126 q300 0 576 26 l0 -126 q-123 -12 -222 -17 l0 -218 l256 0 l0 -128 l-256 0 l0 -264 l242 0 l0 -128 l-616 0 l0 128 l242 0 l0 264 l-256 0 l0 128 Z" /><glyph glyph-name="uni4EFD" unicode="&#x4efd;" d="M639 28 l105 0 l8 279 l-154 0 q-22 -158 -99 -262.5 q-77 -104.5 -208 -153.5 l0 146 q149 73 179 270 l-101 0 l0 79 q-43 -33 -90 -59 l0 158 q76 50 121.5 131 q45.5 81 62.5 184 l128 0 q-21 -121 -61 -210 q-40 -89 -107 -157 l393 0 q-67 68 -107 157 q-40 89 -61 210 l128 0 q17 -103 62.5 -184 q45.5 -81 121.5 -131 l0 -158 q-47 26 -79 50 l-14 -477 l-228 0 l0 128 ZM40 462 q113 135 158 338 l127 0 q-24 -149 -81 -268 l0 -632 l-128 0 l0 437 q-40 -43 -76 -74 l0 199 Z" /><glyph glyph-name="uni4F01" unicode="&#x4f01;" d="M960 358 q-119 42 -216.5 125 q-97.5 83 -157.5 191 l-172 0 q-69 -125 -184 -213 l83 0 l0 -427 l162 0 l0 529 l129 0 l0 -205 l276 0 l0 -125 l-276 0 l0 -199 l346 0 l0 -127 l-900 0 l0 127 l134 0 l0 395 q-69 -45 -144 -71 l0 135 q212 112 299 307 l322 0 q87 -195 299 -307 l0 -135 Z" /><glyph glyph-name="uni4F0A" unicode="&#x4f0a;" d="M355 365 l173 0 l0 92 l-233 0 l0 116 l233 0 l0 92 l-173 0 l0 124 l549 0 l0 -210 l66 0 l0 -128 l-66 0 l0 -210 l-253 0 q-19 -183 -100 -341 l-154 0 q98 161 120 341 l-162 0 l0 124 ZM40 469 q116 133 162 331 l131 0 q-22 -133 -74 -248 l0 -657 l-130 0 l0 454 q-36 -41 -89 -86 l0 206 ZM780 365 l0 92 l-124 0 l0 -92 l124 0 ZM780 573 l0 92 l-124 0 l0 -92 l124 0 Z" /><glyph glyph-name="uni4F0D" unicode="&#x4f0d;" d="M129 352 q-36 -43 -89 -89 l0 199 q113 135 158 338 l127 0 q-20 -127 -68 -239 l0 -661 l-128 0 l0 452 ZM299 40 l131 0 l39 298 l-111 0 l0 128 l128 0 l25 188 l-170 0 l0 128 l586 0 l0 -128 l-287 0 l-25 -188 l267 0 l0 -426 l78 0 l0 -129 l-661 0 l0 129 ZM754 40 l0 298 l-156 0 l-39 -298 l195 0 Z" /><glyph glyph-name="uni4F0F" unicode="&#x4f0f;" d="M297 -101 q86 94 138 178.5 q52 84.5 78.5 179 q26.5 94.5 29.5 214.5 l-246 0 l0 130 l247 0 l0 199 l129 0 l0 -199 l276 0 l0 -130 l-276 0 q-2 -53 -6 -101 l94 0 l207 -470 l-143 0 l-170 386 q-19 -102 -61 -194 q-42 -92 -117 -193 l-180 0 ZM40 462 q113 135 158 338 l127 0 q-21 -127 -66 -234 l0 -666 l-130 0 l0 452 q-36 -43 -89 -89 l0 199 ZM854 784 l33 -136 l-125 0 l-33 136 l125 0 Z" /><glyph glyph-name="uni4F11" unicode="&#x4f11;" d="M838 -58 q-45 140 -75 289 q-30 149 -52 320 l-24 0 l0 -651 l-128 0 l0 651 l-24 0 q-22 -171 -52 -320 q-30 -149 -75 -289 l-132 0 q96 290 136 609 l-93 0 l0 128 l239 0 l0 122 l130 0 l0 -122 l263 0 l0 -128 l-117 0 q40 -319 136 -609 l-132 0 ZM40 469 q116 133 162 331 l131 0 q-22 -131 -73 -246 l0 -659 l-128 0 l0 458 q-41 -46 -92 -90 l0 206 Z" /><glyph glyph-name="uni4F17" unicode="&#x4f17;" d="M950 330 q-111 43 -201 119 l0 -56 q0 -28 -2 -82 l87 0 l126 -411 l-130 0 l-94 305 q-24 -163 -112 -305 l-167 0 q31 38 56 79 l-103 0 l-84 307 q-9 -103 -37.5 -197.5 q-28.5 -94.5 -83.5 -188.5 l-167 0 q91 112 127 232 q36 120 36 261 l0 17 q-73 -51 -151 -80 l0 138 q212 120 299 332 l302 0 q87 -212 299 -332 l0 -138 ZM330 491 l0 -98 l0 -27 l104 0 l98 -356 q48 88 68 181.5 q20 93.5 20 201.5 l0 98 l84 0 q-81 83 -132 183 l-144 0 q-51 -100 -132 -183 l34 0 Z" /><glyph glyph-name="uni4F18" unicode="&#x4f18;" d="M289 -100 q103 135 146 269 q43 134 43 305 l0 8 l-158 0 l0 130 l158 0 l0 188 l130 0 l0 -188 l341 0 l0 -130 l-132 0 l0 -454 l152 0 l0 -128 l-280 0 l0 582 l-83 0 l0 -8 q0 -162 -35.5 -301 q-35.5 -139 -115.5 -273 l-166 0 ZM40 462 q113 135 158 338 l127 0 q-20 -123 -67 -236 l0 -664 l-129 0 l0 452 q-36 -43 -89 -89 l0 199 ZM812 786 l35 -143 l-118 0 l-35 143 l118 0 Z" /><glyph glyph-name="uni4F19" unicode="&#x4f19;" d="M309 -100 q129 145 190.5 289.5 q61.5 144.5 61.5 328.5 l0 282 l128 0 l0 -282 q0 -119 -19 -217 l125 0 q123 -194 166 -401 l-131 0 q-41 186 -164 383 q-21 -100 -65 -193 q-44 -93 -113 -190 l-179 0 ZM40 462 q113 135 158 338 l127 0 q-20 -123 -67 -236 l0 -664 l-129 0 l0 452 q-36 -43 -89 -89 l0 199 ZM449 725 l53 -366 l-129 0 l-53 366 l129 0 ZM809 725 l129 0 l-53 -366 l-129 0 l53 366 Z" /><glyph glyph-name="uni4F1A" unicode="&#x4f1a;" d="M960 375 q-126 37 -226 116 l0 -62 l-468 0 l0 62 q-100 -79 -226 -116 l0 135 q119 51 188.5 121.5 q69.5 70.5 111.5 168.5 l320 0 q42 -98 111.5 -168.5 q69.5 -70.5 188.5 -121.5 l0 -135 ZM50 336 l900 0 l0 -127 l-513 0 l-117 -173 l426 0 l-56 117 l142 0 l118 -245 l-863 0 l0 128 l79 0 l117 173 l-233 0 l0 127 ZM666 553 q-50 53 -88 121 l-156 0 q-38 -68 -88 -121 l332 0 Z" /><glyph glyph-name="uni4F20" unicode="&#x4f20;" d="M130 353 q-40 -48 -90 -90 l0 199 q113 135 158 338 l127 0 q-20 -123 -67 -236 l0 -664 l-128 0 l0 453 ZM303 516 l179 0 l23 91 l-169 0 l0 122 l200 0 l18 71 l137 0 l-18 -71 l247 0 l0 -122 l-278 0 l-24 -91 l332 0 l0 -124 l-363 0 l-19 -72 l329 0 q-12 -72 -45.5 -138.5 q-33.5 -66.5 -89.5 -120.5 q69 -16 146 -41 l0 -130 q-281 87 -538 102 l0 127 q133 -10 250 -30 q72 54 109 119 l-326 0 l47 184 l-147 0 l0 124 Z" /><glyph glyph-name="uni4F26" unicode="&#x4f26;" d="M403 449 q-50 -41 -90 -66 l0 162 q126 108 184 255 l269 0 q58 -147 184 -255 l0 -162 q-174 111 -262 287 l-113 0 q-54 -110 -146 -197 l104 0 l0 -141 q163 26 339 94 l0 -126 q-168 -70 -339 -95 l0 -165 l397 0 l0 -130 l-527 0 l0 539 ZM40 469 q116 133 162 331 l131 0 q-20 -121 -67 -232 l0 -668 l-130 0 l0 458 q-45 -53 -96 -95 l0 206 Z" /><glyph glyph-name="uni4F2A" unicode="&#x4f2a;" d="M277 -100 q119 134 173 260 q54 126 64 277 l-201 0 l0 132 l203 0 l0 231 l128 0 l0 -231 l291 0 l0 -669 l-226 0 l0 131 l96 0 l0 406 l-163 0 q-2 -31 -10 -96 l85 0 l48 -228 l-112 0 l-34 160 q-43 -195 -172 -373 l-170 0 ZM40 469 q116 133 162 331 l131 0 q-25 -141 -76 -253 l0 -652 l-128 0 l0 454 q-36 -41 -89 -86 l0 206 ZM453 791 l38 -178 l-116 0 l-38 178 l116 0 Z" /><glyph glyph-name="uni4F2F" unicode="&#x4f2f;" d="M926 -86 l-562 0 l0 793 l189 0 l28 104 l133 0 l-28 -104 l240 0 l0 -793 ZM40 462 q113 135 158 338 l127 0 q-23 -135 -70 -244 l0 -656 l-128 0 l0 449 q-42 -48 -87 -86 l0 199 ZM798 37 l0 220 l-306 0 l0 -220 l306 0 ZM798 377 l0 207 l-306 0 l0 -207 l306 0 Z" /><glyph glyph-name="uni4F34" unicode="&#x4f34;" d="M40 469 q116 133 162 331 l131 0 q-20 -121 -67 -232 l0 -669 l-130 0 l0 459 q-45 -53 -96 -95 l0 206 ZM312 254 l269 0 l0 147 l-240 0 l0 124 l240 0 l0 279 l130 0 l0 -279 l222 0 l0 -124 l-222 0 l0 -147 l251 0 l0 -125 l-251 0 l0 -234 l-130 0 l0 234 l-269 0 l0 125 ZM462 772 l49 -196 l-122 0 l-49 196 l122 0 ZM830 772 l122 0 l-49 -196 l-122 0 l49 196 Z" /><glyph glyph-name="uni4F3C" unicode="&#x4f3c;" d="M505 -100 q138 128 197.5 263 q59.5 135 67.5 294 l18 343 l127 0 l-18 -343 q-1 -37 -6 -72 l29 0 l50 -485 l-113 0 l-24 236 q-48 -120 -148 -236 l-180 0 ZM40 462 q109 135 151 338 l126 0 q-23 -140 -69 -247 l0 -653 l-126 0 l0 446 q-36 -43 -82 -83 l0 199 ZM338 800 l126 0 l0 -711 l105 40 l0 -142 l-231 -87 l0 900 ZM648 782 l63 -315 l-124 0 l-63 315 l124 0 Z" /><glyph glyph-name="uni4F46" unicode="&#x4f46;" d="M909 147 l-551 0 l0 633 l551 0 l0 -633 ZM40 462 q109 135 151 338 l126 0 q-21 -127 -65 -237 l0 -663 l-128 0 l0 448 q-42 -49 -84 -85 l0 199 ZM297 41 l674 0 l0 -127 l-674 0 l0 127 ZM781 272 l0 130 l-295 0 l0 -130 l295 0 ZM781 525 l0 130 l-295 0 l0 -130 l295 0 Z" /><glyph glyph-name="uni4F4D" unicode="&#x4f4d;" d="M40 462 q109 135 151 338 l126 0 q-21 -129 -64 -235 l0 -665 l-129 0 l0 448 q-42 -49 -84 -85 l0 199 ZM300 41 l664 0 l0 -129 l-664 0 l0 129 ZM318 695 l249 0 l0 111 l130 0 l0 -111 l248 0 l0 -128 l-627 0 l0 128 ZM500 509 l76 -412 l-132 0 l-76 412 l132 0 ZM764 509 l132 0 l-76 -412 l-132 0 l76 412 Z" /><glyph glyph-name="uni4F4E" unicode="&#x4f4e;" d="M802 -100 q-55 113 -82 226 q-27 113 -31 241 l-201 0 l0 -339 l66 0 l0 -128 l-194 0 l0 880 q298 0 568 26 l0 -128 q-40 -4 -112 -10 l0 -173 l146 0 l0 -128 l-145 0 q4 -127 37 -241 q33 -114 106 -226 l-158 0 ZM40 469 q116 133 162 331 l131 0 q-23 -131 -68 -234 l0 -667 l-129 0 l0 459 q-45 -53 -96 -95 l0 206 ZM688 495 l0 165 q-88 -5 -200 -7 l0 -158 l200 0 ZM667 171 l58 -271 l-119 0 l-58 271 l119 0 Z" /><glyph glyph-name="uni4F4F" unicode="&#x4f4f;" d="M40 462 q109 135 151 338 l126 0 q-20 -121 -58 -219 l0 -681 l-130 0 l0 454 q-38 -46 -89 -91 l0 199 ZM314 42 l260 0 l0 206 l-209 0 l0 127 l209 0 l0 186 l-233 0 l0 128 l225 0 l-21 118 l132 0 l21 -118 l230 0 l0 -128 l-224 0 l0 -186 l200 0 l0 -127 l-200 0 l0 -206 l251 0 l0 -128 l-641 0 l0 128 Z" /><glyph glyph-name="uni4F50" unicode="&#x4f50;" d="M276 198 q147 146 209 376 l-159 0 l0 128 l186 0 q8 49 12 98 l125 0 q-3 -56 -10 -98 l311 0 l0 -128 l-334 0 q-21 -81 -46 -146 l360 0 l0 -128 l-167 0 l0 -272 l197 0 l0 -128 l-574 0 l0 128 l249 0 l0 272 l-124 0 q-92 -170 -235 -272 l0 170 ZM40 462 q109 135 151 338 l126 0 q-19 -120 -61 -227 l0 -673 l-128 0 l0 453 q-42 -50 -88 -90 l0 199 Z" /><glyph glyph-name="uni4F53" unicode="&#x4f53;" d="M40 469 q116 133 162 331 l131 0 q-24 -137 -75 -250 l0 -655 l-129 0 l0 454 q-41 -45 -89 -86 l0 206 ZM290 -58 q87 294 117 627 l-88 0 l0 128 l246 0 l0 104 l130 0 l0 -104 l256 0 l0 -128 l-98 0 q30 -333 117 -627 l-126 0 q-23 82 -35 140 l-116 0 l0 -182 l-126 0 l0 182 l-116 0 q-12 -58 -35 -140 l-126 0 ZM567 210 l0 359 l-43 0 q-17 -192 -47 -359 l90 0 ZM783 210 q-30 167 -47 359 l-43 0 l0 -359 l90 0 Z" /><glyph glyph-name="uni4F55" unicode="&#x4f55;" d="M333 800 q-23 -131 -68 -234 l0 -666 l-129 0 l0 458 q-45 -53 -96 -95 l0 206 q116 133 162 331 l131 0 ZM351 545 l335 0 l0 -425 l-335 0 l0 425 ZM351 764 l609 0 l0 -130 l-61 0 l0 -734 l-264 0 l0 128 l135 0 l0 606 l-419 0 l0 130 ZM570 244 l0 177 l-103 0 l0 -177 l103 0 Z" /><glyph glyph-name="uni4F5B" unicode="&#x4f5b;" d="M310 -100 q107 125 138 281 l-163 0 l28 333 l148 0 l0 92 l-144 0 l0 125 l144 0 l0 69 l118 0 l0 -69 l64 0 l0 69 l118 0 l0 -69 l156 0 l0 -338 l-156 0 l0 -91 l179 0 l0 -352 l-162 0 l0 116 l46 0 l0 115 l-63 0 l0 -281 l-118 0 l0 281 l-74 0 q-23 -154 -104 -281 l-155 0 ZM40 462 q109 135 151 338 l126 0 q-21 -131 -68 -244 l0 -656 l-126 0 l0 447 q-36 -43 -83 -84 l0 199 ZM461 302 l0 29 l0 62 l-49 0 l-8 -91 l57 0 ZM643 302 l0 91 l-64 0 l0 -62 l0 -29 l64 0 ZM643 514 l0 92 l-64 0 l0 -92 l64 0 ZM812 514 l0 92 l-51 0 l0 -92 l51 0 Z" /><glyph glyph-name="uni4F5C" unicode="&#x4f5c;" d="M40 462 q109 135 151 338 l126 0 q-18 -109 -53 -206 l0 -694 l-129 0 l0 462 q-46 -57 -95 -99 l0 199 ZM280 398 q78 203 120 402 l125 0 q-4 -24 -14 -72 l439 0 l0 -129 l-298 0 l0 -134 l265 0 l0 -128 l-265 0 l0 -131 l265 0 l0 -128 l-265 0 l0 -178 l-130 0 l0 699 l-41 0 q-24 -99 -62 -201 l-139 0 Z" /><glyph glyph-name="uni4F60" unicode="&#x4f60;" d="M40 469 q116 133 162 331 l131 0 q-25 -141 -76 -253 l0 -647 l-128 0 l0 449 q-36 -41 -89 -86 l0 206 ZM295 -58 q75 212 75 425 l118 0 q0 -216 -60 -425 l-133 0 ZM320 461 q71 170 85 339 l132 0 l-6 -60 l431 0 q-14 -140 -59 -278 l-134 0 q25 67 46 151 l-307 0 q-18 -78 -49 -152 l-139 0 ZM502 24 l78 0 l0 510 l124 0 l0 -634 l-202 0 l0 124 ZM895 368 q55 -207 55 -425 l-118 0 q0 215 -64 425 l127 0 Z" /><glyph glyph-name="uni4F63" unicode="&#x4f63;" d="M735 31 l66 0 l0 141 l-113 0 l0 -242 l-122 0 l0 242 l-120 0 q-11 -145 -45 -272 l-138 0 q61 174 61 390 l-1 498 l604 0 l0 -888 l-192 0 l0 131 ZM40 468 q105 134 143 332 l125 0 q-22 -144 -76 -268 l0 -632 l-128 0 l0 428 q-33 -38 -64 -65 l0 205 ZM566 296 l0 120 l-116 0 l0 -120 l116 0 ZM566 540 l0 120 l-116 0 l0 -120 l116 0 ZM801 296 l0 120 l-113 0 l0 -120 l113 0 ZM801 540 l0 120 l-113 0 l0 -120 l113 0 Z" /><glyph glyph-name="uni4F69" unicode="&#x4f69;" d="M777 665 l-356 0 l0 -343 q0 -224 -51 -422 l-128 0 q31 102 45 205 q14 103 14 217 l0 468 l596 0 l0 -760 l73 0 l0 -130 l-193 0 l0 765 ZM35 471 q102 133 144 329 l122 0 q-19 -126 -62 -236 l0 -664 l-122 0 l0 451 q-37 -48 -82 -88 l0 208 ZM441 616 l314 0 l0 -126 l-98 0 l0 -51 l95 0 l0 -465 l-78 0 l0 339 l-30 0 l0 -413 l-90 0 l0 413 l-30 0 l0 -339 l-78 0 l0 465 l95 0 l0 51 l-100 0 l0 126 Z" /><glyph glyph-name="uni4F7F" unicode="&#x4f7f;" d="M544 188 q25 48 32 99 l-215 0 l0 297 l217 0 l0 56 l-242 0 l0 115 l242 0 l0 50 l130 0 l0 -50 l242 0 l0 -115 l-242 0 l0 -56 l217 0 l0 -297 l-222 0 q-8 -83 -42 -155 l299 -113 l0 -129 l-368 139 q-49 -53 -117 -88.5 q-68 -35.5 -151 -50.5 l0 132 q79 19 138 67 l-115 44 l0 131 l197 -76 ZM40 469 q116 133 162 331 l131 0 q-24 -140 -76 -252 l0 -653 l-128 0 l0 455 q-39 -45 -89 -87 l0 206 ZM582 389 l0 93 l-95 0 l0 -93 l95 0 ZM799 389 l0 93 l-95 0 l0 -93 l95 0 Z" /><glyph glyph-name="uni4F8B" unicode="&#x4f8b;" d="M697 28 l121 0 l0 777 l120 0 l0 -905 l-241 0 l0 128 ZM40 474 q96 128 137 326 l122 0 q-19 -127 -62 -237 l0 -663 l-123 0 l0 448 q-34 -43 -74 -80 l0 206 ZM240 256 q54 99 82.5 195.5 q28.5 96.5 34.5 202.5 l-61 0 l0 126 l339 0 l0 -126 l-159 0 q-2 -48 -7 -84 l150 0 q0 -172 -12.5 -277 q-12.5 -105 -46.5 -193.5 q-34 -88.5 -103 -199.5 l-150 0 q48 67 80 118.5 q32 51.5 54 100.5 l-87 0 l-12 137 l-102 0 ZM441 338 l16 -180 q21 59 32 127 q11 68 15 161 l-63 0 q-13 -50 -35 -108 l35 0 ZM658 748 l110 0 l0 -643 l-110 0 l0 643 Z" /><glyph glyph-name="uni4F9B" unicode="&#x4f9b;" d="M40 469 q116 133 162 331 l131 0 q-23 -130 -69 -236 l0 -664 l-129 0 l0 456 q-46 -53 -95 -93 l0 206 ZM298 326 l118 0 l0 211 l-87 0 l0 129 l87 0 l0 134 l129 0 l0 -134 l170 0 l0 134 l129 0 l0 -134 l87 0 l0 -129 l-87 0 l0 -211 l118 0 l0 -129 l-664 0 l0 129 ZM318 -100 q66 114 107 236 l136 0 q-36 -135 -86 -236 l-157 0 ZM715 326 l0 211 l-170 0 l0 -211 l170 0 ZM865 136 q41 -122 107 -236 l-157 0 q-50 101 -86 236 l136 0 Z" /><glyph glyph-name="uni4F9D" unicode="&#x4f9d;" d="M964 -82 q-195 97 -282.5 242.5 q-87.5 145.5 -87.5 334.5 l122 0 q1 -103 31 -183 l93 221 l120 0 l-97 -230 l-113 0 q56 -144 214 -229 l0 -156 ZM40 469 q116 133 162 331 l131 0 q-24 -137 -75 -250 l0 -655 l-129 0 l0 454 q-41 -45 -89 -86 l0 206 ZM280 272 q150 117 189 332 l-143 0 l0 128 l249 0 l0 73 l130 0 l0 -73 l249 0 l0 -128 l-360 0 q-17 -111 -58 -205 l0 -371 l105 0 l0 -128 l-233 0 l0 302 q-59 -62 -128 -101 l0 171 Z" /><glyph glyph-name="uni4FA0" unicode="&#x4fa0;" d="M960 -110 q-237 94 -337 280 q-100 -186 -337 -280 l0 144 q169 79 236 214 l-234 0 l0 120 l269 0 l-1 250 l-234 0 l0 120 l234 0 l0 68 l127 0 l0 -68 l235 0 l0 -120 l-235 0 l1 -250 l268 0 l0 -120 l-228 0 q67 -135 236 -214 l0 -144 ZM37 462 q109 135 151 338 l126 0 q-23 -142 -71 -252 l0 -648 l-128 0 l0 441 q-36 -42 -78 -78 l0 199 ZM461 580 l47 -173 l-128 0 l-46 173 l127 0 ZM778 580 l128 0 l-47 -173 l-127 0 l46 173 Z" /><glyph glyph-name="uni4FA3" unicode="&#x4fa3;" d="M933 322 l0 -412 l-578 0 l0 412 l578 0 ZM40 469 q116 133 162 331 l131 0 q-24 -136 -75 -250 l0 -650 l-130 0 l0 448 q-45 -50 -88 -85 l0 206 ZM395 790 l488 0 l0 -388 l-488 0 l0 388 ZM803 38 l0 156 l-318 0 l0 -156 l318 0 ZM753 530 l0 132 l-228 0 l0 -132 l228 0 Z" /><glyph glyph-name="uni4FA6" unicode="&#x4fa6;" d="M349 589 l183 0 l0 216 l129 0 l0 -49 l289 0 l0 -110 l-289 0 l0 -57 l257 0 l0 -485 l-130 0 l0 363 l-311 0 l0 -363 l-128 0 l0 485 ZM40 469 q116 133 162 331 l131 0 q-20 -121 -67 -232 l0 -673 l-130 0 l0 463 q-45 -53 -96 -95 l0 206 ZM314 25 q137 22 195 86.5 q58 64.5 62 180.5 l0 110 l128 0 l0 -110 q0 -89 -28 -160 l283 -112 l0 -130 l-297 117 l0 93 q-43 -84 -128.5 -138.5 q-85.5 -54.5 -214.5 -71.5 l0 135 Z" /><glyph glyph-name="uni4FA7" unicode="&#x4fa7;" d="M271 785 l381 0 l0 -614 l-80 0 q95 -96 125 -271 l-121 0 q-16 122 -91 197 q-29 -77 -89 -130.5 q-60 -53.5 -149 -76.5 l0 132 q78 20 121 84.5 q43 64.5 43 142.5 l0 354 l100 0 l0 -354 q0 -19 -1 -28 q18 -10 33 -24 l0 462 l-164 0 l0 -498 l-109 0 l1 624 ZM32 474 q85 131 122 326 l112 0 q-13 -98 -41 -189 l0 -711 l-120 0 l0 463 q-30 -43 -73 -87 l0 198 ZM690 750 l96 0 l0 -647 l-96 0 l0 647 ZM730 26 l91 0 l0 774 l114 0 l0 -900 l-205 0 l0 126 Z" /><glyph glyph-name="uni4FAF" unicode="&#x4faf;" d="M40 469 q116 133 162 331 l131 0 q-22 -135 -74 -249 l0 -656 l-130 0 l0 454 q-41 -47 -89 -86 l0 206 ZM295 233 l265 0 l0 68 l-250 0 l63 169 l134 0 l-19 -52 l434 0 l0 -117 l-232 0 l0 -68 l265 0 l0 -118 l-244 0 q53 -39 110.5 -62.5 q57.5 -23.5 130.5 -38.5 l0 -124 q-110 22 -185.5 55 q-75.5 33 -141.5 95 q-66 -62 -141.5 -95 q-75.5 -33 -185.5 -55 l0 124 q73 15 130.5 38.5 q57.5 23.5 110.5 62.5 l-244 0 l0 118 ZM311 606 l388 0 l18 67 l-331 0 l0 116 l496 0 l-48 -183 l116 0 l0 -116 l-639 0 l0 116 Z" /><glyph glyph-name="uni4FB5" unicode="&#x4fb5;" d="M933 -110 q-174 27 -299 78 q-124 -51 -299 -78 l0 109 q92 13 171 38 q-111 76 -147 184 l-41 0 l0 176 l632 0 l0 -176 l-41 0 q-36 -108 -147 -184 q79 -25 171 -38 l0 -109 ZM40 469 q116 133 162 331 l131 0 q-20 -121 -67 -232 l0 -673 l-130 0 l0 463 q-45 -53 -96 -95 l0 206 ZM360 527 l412 0 l0 38 l-382 0 l0 88 l382 0 l0 38 l-412 0 l0 99 l540 0 l0 -362 l-540 0 l0 99 ZM826 243 l0 50 l-385 0 l0 -50 l385 0 ZM539 146 q41 -41 96 -70 q54 29 93 70 l-189 0 Z" /><glyph glyph-name="uni4FBF" unicode="&#x4fbf;" d="M570 625 l0 46 l-247 0 l0 119 l626 0 l0 -119 l-249 0 l0 -46 l227 0 l0 -393 l-233 0 q-9 -66 -37 -118 l303 -101 l0 -123 l-378 126 q-106 -98 -297 -126 l0 121 q96 17 157 52 l-129 43 l0 123 l224 -75 q19 35 28 78 l-222 0 l0 393 l227 0 ZM37 462 q109 135 151 338 l126 0 q-24 -142 -69 -247 l0 -653 l-127 0 l0 444 q-37 -43 -81 -81 l0 199 ZM574 332 l0 51 l-108 0 l0 -51 l108 0 ZM574 474 l0 51 l-108 0 l0 -51 l108 0 ZM804 332 l0 51 l-108 0 l0 -51 l108 0 ZM804 474 l0 51 l-108 0 l0 -51 l108 0 Z" /><glyph glyph-name="uni4FCA" unicode="&#x4fca;" d="M312 14 q131 26 213 61 q-52 48 -86 102 q-51 -40 -125 -63 l0 127 q81 37 121 107 l459 0 q-29 -163 -151 -273 q82 -35 213 -61 l0 -124 q-191 34 -322 107 q-131 -73 -322 -107 l0 124 ZM37 460 q111 139 152 340 l125 0 q-20 -128 -67 -243 l0 -657 l-127 0 l0 447 q-36 -43 -83 -84 l0 197 ZM290 451 q125 31 253 94 l-224 0 l0 122 l73 0 l79 133 l146 0 l-80 -133 l211 0 l-39 82 l149 0 l96 -204 l-253 0 q121 -52 253 -75 l0 -124 q-163 28 -274 78 l0 121 l-117 0 l0 -122 q-110 -59 -273 -98 l0 126 ZM541 238 q36 -58 93 -101 q56 42 94 101 l-187 0 Z" /><glyph glyph-name="uni4FD1" unicode="&#x4fd1;" d="M38 462 q119 136 165 338 l128 0 q-26 -149 -82 -265 l0 -635 l-128 0 l0 443 q-38 -43 -83 -80 l0 199 ZM325 566 l151 0 l-32 76 l133 0 l32 -76 l63 0 l45 105 l-374 0 l0 126 l566 0 l-100 -231 l129 0 l0 -666 l-128 0 l0 130 l-118 0 l0 -121 l-122 0 l0 121 l-117 0 l0 -130 l-128 0 l0 666 ZM570 150 l0 85 l-117 0 l0 -85 l117 0 ZM570 355 l0 85 l-117 0 l0 -85 l117 0 ZM810 150 l0 85 l-118 0 l0 -85 l118 0 ZM810 355 l0 85 l-118 0 l0 -85 l118 0 Z" /><glyph glyph-name="uni4FDD" unicode="&#x4fdd;" d="M900 790 l0 -362 l-207 0 l0 -93 l260 0 l0 -126 l-103 0 q34 -151 117 -309 l-134 0 q-68 147 -99 309 l-41 0 l0 -310 l-126 0 l0 310 l-36 0 q-31 -162 -99 -309 l-133 0 q83 158 117 309 l-103 0 l0 126 l254 0 l0 93 l-207 0 l0 362 l540 0 ZM38 469 q116 133 162 331 l131 0 q-24 -136 -75 -250 l0 -650 l-129 0 l0 450 q-39 -45 -89 -87 l0 206 ZM771 545 l0 127 l-282 0 l0 -127 l282 0 Z" /><glyph glyph-name="uni4FE1" unicode="&#x4fe1;" d="M932 211 l0 -305 l-585 0 l0 305 l585 0 ZM40 469 q116 133 162 331 l131 0 q-22 -134 -74 -248 l0 -657 l-130 0 l0 455 q-39 -45 -89 -87 l0 206 ZM324 727 l251 0 l0 78 l130 0 l0 -78 l250 0 l0 -118 l-631 0 l0 118 ZM364 379 l551 0 l0 -106 l-551 0 l0 106 ZM364 547 l551 0 l0 -106 l-551 0 l0 106 ZM803 10 l0 97 l-327 0 l0 -97 l327 0 Z" /><glyph glyph-name="uni4FEE" unicode="&#x4fee;" d="M428 464 q91 21 161 60 q-38 41 -64 86 q-36 -29 -91 -51 l0 130 q67 38 96 107 l387 0 q-24 -161 -128 -272 q70 -39 161 -60 l0 -126 q-53 12 -103 29 l0 -46 q-161 -71 -367 -103 l0 102 q141 20 295 75 q-46 21 -86 47 q-106 -70 -261 -104 l0 126 ZM38 469 q99 130 141 331 l122 0 q-21 -138 -67 -249 l0 -656 l-120 0 l0 450 q-35 -44 -76 -82 l0 206 ZM289 699 l114 0 l0 -704 l-114 0 l0 704 ZM426 6 q268 36 524 147 l0 -117 q-219 -114 -524 -146 l0 116 ZM449 170 q244 37 473 132 l0 -111 q-212 -97 -473 -132 l0 111 ZM616 686 q31 -66 73 -106 q43 43 73 106 l-146 0 Z" /><glyph glyph-name="uni4FF1" unicode="&#x4ff1;" d="M401 53 l144 0 l-60 -153 l-144 0 l60 153 ZM40 469 q116 133 162 331 l131 0 q-24 -140 -76 -252 l0 -653 l-128 0 l0 455 q-39 -45 -89 -87 l0 206 ZM305 191 l66 0 l0 600 l522 0 l0 -600 l66 0 l0 -116 l-654 0 l0 116 ZM765 187 l0 56 l-266 0 l0 -56 l266 0 ZM765 334 l0 56 l-266 0 l0 -56 l266 0 ZM765 481 l0 56 l-266 0 l0 -56 l266 0 ZM765 627 l0 56 l-266 0 l0 -56 l266 0 ZM863 53 l60 -153 l-144 0 l-60 153 l144 0 Z" /><glyph glyph-name="uni500D" unicode="&#x500d;" d="M899 -95 l-560 0 l0 393 l560 0 l0 -393 ZM37 460 q111 139 152 340 l125 0 q-23 -142 -71 -252 l0 -648 l-128 0 l0 441 q-36 -42 -78 -78 l0 197 ZM288 492 l125 0 l-33 108 l132 0 l33 -108 l148 0 l33 108 l132 0 l-33 -108 l125 0 l0 -124 l-662 0 l0 124 ZM317 749 l237 0 l0 62 l130 0 l0 -62 l237 0 l0 -124 l-604 0 l0 124 ZM770 29 l0 145 l-302 0 l0 -145 l302 0 Z" /><glyph glyph-name="uni5012" unicode="&#x5012;" d="M721 26 l92 0 l0 774 l119 0 l0 -900 l-211 0 l0 126 ZM32 474 q91 130 128 326 l115 0 q-17 -119 -52 -218 l0 -682 l-122 0 l0 454 q-31 -42 -69 -78 l0 198 ZM256 33 l122 13 l0 135 l-112 0 l0 124 l112 0 l0 90 l-114 0 l0 115 l23 0 l40 166 l-50 0 l0 115 l336 0 l0 -115 l-160 0 l-40 -166 l87 0 l-25 133 l114 0 l46 -248 l-129 0 l0 -90 l108 0 l0 -124 l-108 0 l0 -121 l127 13 l0 -118 l-377 -40 l0 118 ZM655 752 l112 0 l0 -667 l-112 0 l0 667 Z" /><glyph glyph-name="uni5014" unicode="&#x5014;" d="M127 350 q-39 -45 -89 -87 l0 206 q116 133 162 331 l131 0 q-24 -140 -76 -252 l0 -648 l-128 0 l0 450 ZM276 -100 q37 106 51 207.5 q14 101.5 14 234.5 l0 452 l596 0 l0 -301 l-468 0 l0 -151 q0 -247 -54 -442 l-139 0 ZM807 607 l0 66 l-338 0 l0 -66 l338 0 ZM500 156 l108 0 l0 -138 l62 0 l0 181 l-161 0 l0 240 l105 0 l0 -127 l56 0 l0 159 l110 0 l0 -159 l56 0 l0 127 l105 0 l0 -240 l-161 0 l0 -181 l62 0 l0 138 l108 0 l0 -254 l-450 0 l0 254 Z" /><glyph glyph-name="uni5019" unicode="&#x5019;" d="M32 463 q104 137 146 337 l118 0 q-9 -60 -24 -118 l99 0 l0 -720 l-112 0 l0 673 q-22 -72 -49 -128 l0 -612 l-122 0 l0 425 q-31 -35 -56 -57 l0 200 ZM392 14 q66 15 118 38.5 q52 23.5 99 62.5 l-216 0 l0 118 l215 0 l0 68 l-209 0 l57 169 l125 0 l-18 -52 l362 0 l0 -117 l-189 0 l0 -68 l219 0 l0 -118 l-220 0 q47 -39 99 -62.5 q52 -23.5 118 -38.5 l0 -124 q-93 20 -158.5 50 q-65.5 30 -121.5 85 q-56 -55 -121.5 -85 q-65.5 -30 -158.5 -50 l0 124 ZM404 606 l332 0 l16 67 l-305 0 l0 116 l462 0 l-45 -183 l86 0 l0 -116 l-546 0 l0 116 Z" /><glyph glyph-name="uni501A" unicode="&#x501a;" d="M314 800 q-23 -140 -72 -254 l0 -646 l-127 0 l0 441 q-36 -42 -78 -78 l0 197 q111 139 152 340 l125 0 ZM276 471 l683 0 l0 -122 l-63 0 l0 -449 l-210 0 l0 90 l-352 0 l0 312 l374 0 l0 -278 l64 0 l0 325 l-496 0 l0 122 ZM308 743 l249 0 l0 68 l130 0 l0 -68 l249 0 l0 -122 l-127 0 q49 -63 124 -132 l-156 0 q-61 63 -111 132 l-87 0 q-49 -67 -113 -132 l-156 0 q74 66 126 132 l-128 0 l0 122 ZM586 96 l0 100 l-130 0 l0 -100 l130 0 Z" /><glyph glyph-name="uni501F" unicode="&#x501f;" d="M899 -92 l-560 0 l0 461 l560 0 l0 -461 ZM37 460 q111 139 152 340 l125 0 q-23 -140 -72 -254 l0 -646 l-127 0 l0 441 q-36 -42 -78 -78 l0 197 ZM282 542 l142 0 l0 77 l-118 0 l0 119 l118 0 l0 62 l128 0 l0 -62 l134 0 l0 62 l128 0 l0 -62 l118 0 l0 -119 l-118 0 l0 -77 l142 0 l0 -120 l-674 0 l0 120 ZM773 22 l0 65 l-308 0 l0 -65 l308 0 ZM773 191 l0 64 l-308 0 l0 -64 l308 0 ZM686 542 l0 77 l-134 0 l0 -77 l134 0 Z" /><glyph glyph-name="uni503C" unicode="&#x503c;" d="M123 347 q-36 -43 -83 -84 l0 202 q107 133 152 335 l126 0 q-20 -127 -67 -241 l0 -659 l-128 0 l0 447 ZM290 35 l54 0 l0 555 l221 0 l0 54 l-248 0 l0 114 l248 0 l0 50 l130 0 l0 -50 l255 0 l0 -114 l-255 0 l0 -54 l221 0 l0 -555 l54 0 l0 -127 l-680 0 l0 127 ZM788 23 l0 48 l-316 0 l0 -48 l316 0 ZM788 163 l0 48 l-316 0 l0 -48 l316 0 ZM788 303 l0 48 l-316 0 l0 -48 l316 0 ZM788 443 l0 48 l-316 0 l0 -48 l316 0 Z" /><glyph glyph-name="uni503E" unicode="&#x503e;" d="M553 608 l124 0 l11 68 l-150 0 l0 114 l418 0 l0 -114 l-142 0 l-11 -68 l137 0 l0 -471 l-108 0 q92 -78 132 -238 l-114 0 q-15 96 -85 156 q-29 -63 -85.5 -105.5 q-56.5 -42.5 -141.5 -59.5 l0 125 q77 13 117.5 65 q40.5 52 40.5 129 l0 236 l99 0 l0 -241 q0 -13 -2 -39 q21 -13 37 -26 l0 357 l-169 0 l0 -359 l-108 0 l0 471 ZM40 474 q96 128 137 326 l125 0 q-19 -127 -62 -237 l0 -663 l-126 0 l0 443 q-34 -43 -74 -80 l0 211 ZM319 800 l126 0 l0 -233 l79 0 l0 -130 l-79 0 l0 -301 l93 28 l0 -142 l-219 -65 l0 843 Z" /><glyph glyph-name="uni5047" unicode="&#x5047;" d="M960 -110 q-103 41 -171 106 q-70 -65 -172 -106 l0 126 q51 26 98 70 q-81 128 -87 325 l321 0 q-6 -197 -87 -325 q47 -44 98 -70 l0 -126 ZM40 474 q96 128 137 326 l125 0 q-19 -127 -62 -237 l0 -663 l-126 0 l0 443 q-34 -43 -74 -80 l0 211 ZM318 800 l304 0 l0 -368 l-178 0 l0 -77 l167 0 l0 -123 l-167 0 l0 -73 l167 0 l0 -123 l-167 0 l0 -136 l-126 0 l0 900 ZM503 550 l0 132 l-62 0 l0 -132 l62 0 ZM652 583 l153 0 l0 84 l-153 0 l0 123 l286 0 l0 -330 l-286 0 l0 123 ZM744 295 q17 -62 44 -112 q28 49 45 112 l-89 0 Z" /><glyph glyph-name="uni504F" unicode="&#x504f;" d="M437 404 l500 0 l-1 -504 l-109 0 l0 165 l-39 0 l0 -165 l-82 0 l0 165 l-38 0 l0 -165 l-82 0 l0 165 l-39 0 l0 -165 l-110 0 l0 504 ZM37 458 q101 141 140 342 l120 0 q-22 -142 -67 -253 l0 -647 l-124 0 l0 436 q-30 -37 -69 -73 l0 195 ZM239 -100 q34 100 46 187.5 q12 87.5 12 197.5 l0 481 l245 0 l0 54 l130 0 l0 -54 l255 0 l0 -314 l-510 0 l0 -167 q0 -211 -46 -385 l-132 0 ZM799 571 l0 76 l-375 0 l0 -76 l375 0 ZM586 179 l0 103 l-39 0 l0 -103 l39 0 ZM706 179 l0 103 l-38 0 l0 -103 l38 0 ZM827 179 l0 103 l-39 0 l0 -103 l39 0 Z" /><glyph glyph-name="uni505A" unicode="&#x505a;" d="M381 391 l0 176 l-124 0 l0 124 q-12 -55 -30 -104 l0 -687 l-124 0 l0 453 q-31 -41 -71 -81 l0 202 q91 130 128 326 l117 0 q-8 -59 -19 -105 l123 0 l0 105 l126 0 l0 -105 l121 0 l0 -128 l-121 0 l0 -176 l99 0 l0 -452 q90 133 132 226 l-79 245 l-61 0 q51 178 60 388 l122 0 q-1 -29 -5 -87 l185 0 l0 -130 l-31 0 q-4 -123 -19.5 -218 q-15.5 -95 -42.5 -177 l102 -286 l-119 0 l-46 135 q-32 -61 -76 -135 l-149 0 q6 8 8 12 l-305 0 l0 479 l99 0 ZM486 40 l0 223 l-84 0 l0 -223 l84 0 ZM797 343 q23 107 29 238 l-69 0 q-6 -44 -10 -66 l50 -172 Z" /><glyph glyph-name="uni505C" unicode="&#x505c;" d="M309 770 l250 0 l0 50 l131 0 l0 -50 l250 0 l0 -110 l-632 0 l0 106 q-22 -117 -65 -218 l0 -648 l-128 0 l0 441 q-36 -42 -78 -78 l0 197 q111 139 152 340 l125 0 l-5 -30 ZM287 356 l674 0 l0 -145 l-129 0 l0 40 l-417 0 l0 -40 l-128 0 l0 145 ZM332 194 l584 0 l0 -108 l-216 0 l0 -196 l-209 0 l0 113 l79 0 l0 83 l-238 0 l0 108 ZM360 625 l528 0 l0 -232 l-528 0 l0 232 ZM760 485 l0 50 l-272 0 l0 -50 l272 0 Z" /><glyph glyph-name="uni5065" unicode="&#x5065;" d="M35 474 q95 138 130 326 l124 0 q-17 -121 -58 -230 l0 -670 l-123 0 l0 448 q-32 -40 -73 -80 l0 206 ZM237 -100 q50 107 73.5 199 q23.5 92 30.5 198 l-73 0 l0 128 l35 0 l39 230 l-53 0 l0 128 l192 0 l-61 -358 l45 0 q0 -104 -8.5 -186 q-8.5 -82 -28.5 -163 q45 -25 99.5 -35.5 q54.5 -10.5 132.5 -10.5 l300 0 l0 -120 l-300 0 q-94 0 -156 11 q-62 11 -112 37 q-8 -26 -21 -58 l-134 0 ZM464 623 l173 0 l0 42 l-145 0 l0 98 l145 0 l0 44 l122 0 l0 -44 l163 0 l0 -125 l38 0 l0 -118 l-38 0 l0 -125 l-163 0 l0 -51 l170 0 l0 -98 l-170 0 l0 -49 l184 0 l0 -100 l-184 0 l0 -52 l-122 0 l0 52 l-161 0 l0 100 l161 0 l0 49 l-147 0 l0 98 l147 0 l0 51 l-147 0 l0 98 l147 0 l0 42 l-173 0 l0 88 ZM825 493 l0 42 l-70 0 l0 -42 l70 0 ZM825 623 l0 42 l-70 0 l0 -42 l70 0 Z" /><glyph glyph-name="uni5076" unicode="&#x5076;" d="M559 311 l0 57 l-230 0 l0 426 l586 0 l0 -426 l-230 0 l0 -57 l263 0 l0 -411 l-126 0 l0 291 l-137 0 l0 -76 l42 0 l70 20 l0 -138 l-353 0 l0 118 l115 0 l0 76 l-137 0 l0 -291 l-126 0 l0 411 l263 0 ZM40 469 q106 132 151 331 l125 0 q-20 -133 -70 -249 l0 -651 l-126 0 l0 445 q-44 -51 -80 -82 l0 206 ZM560 472 l0 62 l-106 0 l0 -62 l106 0 ZM560 628 l0 62 l-106 0 l0 -62 l106 0 ZM789 472 l0 62 l-105 0 l0 -62 l105 0 ZM789 628 l0 62 l-105 0 l0 -62 l105 0 Z" /><glyph glyph-name="uni507F" unicode="&#x507f;" d="M36 469 q109 132 154 331 l128 0 q-21 -127 -64 -232 l0 -668 l-129 0 l0 453 q-39 -46 -89 -90 l0 206 ZM309 277 l648 0 l0 -124 l-347 0 l-75 -128 l232 0 l-36 84 l141 0 l89 -206 l-648 0 l147 250 l-151 0 l0 124 ZM319 676 l59 0 l-32 119 l119 0 l32 -119 l72 0 l0 129 l128 0 l0 -129 l72 0 l32 119 l119 0 l-32 -119 l59 0 l0 -194 l-127 0 l0 74 l-375 0 l0 -74 l-126 0 l0 194 ZM382 466 l502 0 l0 -122 l-502 0 l0 122 Z" /><glyph glyph-name="uni50AC" unicode="&#x50ac;" d="M33 456 q106 140 146 344 l120 0 q-18 -121 -55 -219 l0 -681 l-128 0 l0 451 q-35 -45 -83 -88 l0 193 ZM280 325 q100 86 137 233 l126 0 q-7 -34 -18 -70 l97 0 l0 68 l128 0 l0 -68 l191 0 l0 -112 l-191 0 l0 -52 l173 0 l0 -104 l-173 0 l0 -52 l173 0 l0 -104 l-173 0 l0 -52 l199 0 l0 -112 l-606 0 l0 304 q-32 -27 -63 -47 l0 168 ZM330 791 l120 0 l0 -103 l111 0 l0 122 l126 0 l0 -122 l110 0 l0 103 l120 0 l0 -213 l-587 0 l0 213 ZM622 12 l0 52 l-151 0 l0 -52 l151 0 ZM622 168 l0 52 l-151 0 l0 -52 l151 0 ZM622 324 l0 52 l-143 0 l-8 -15 l0 -37 l151 0 Z" /><glyph glyph-name="uni50CF" unicode="&#x50cf;" d="M317 800 q-19 -119 -59 -221 l0 -679 l-126 0 l0 457 q-38 -48 -89 -94 l0 195 q107 138 152 342 l122 0 ZM291 -4 q153 16 321 113 q-1 15 -5 40 q-142 -81 -294 -99 l0 98 q130 22 273 100 l-11 37 q-128 -66 -247 -86 l0 95 q87 18 212 81 l-6 13 l-183 0 l0 187 q-28 -10 -43 -14 l1 112 q45 23 80 54 q35 31 56 68 l422 0 q-27 -87 -68 -152 l139 0 l0 -255 l-265 0 q39 -104 58 -214.5 q19 -110.5 19 -273.5 l-128 0 q0 67 -2 98 q-71 -44 -154.5 -71.5 q-83.5 -27.5 -174.5 -31.5 l0 101 ZM661 643 q24 36 34 54 l-186 0 q-21 -30 -48 -54 l200 0 ZM586 475 l0 81 l-112 0 l0 -81 l112 0 ZM815 475 l0 81 l-112 0 l0 -81 l112 0 ZM881 176 q58 -140 74 -276 l-125 0 q-16 135 -81 276 l132 0 ZM824 365 l123 0 l-72 -168 l-123 0 l72 168 Z" /><glyph glyph-name="uni50FB" unicode="&#x50fb;" d="M630 791 l0 -331 l-231 0 l0 -108 q0 -129 -12 -236.5 q-12 -107.5 -39 -215.5 l-239 0 l0 441 q-31 -40 -71 -78 l0 201 q96 132 137 336 l118 0 q-19 -130 -64 -247 l0 -650 q33 111 48 217.5 q15 106.5 15 231.5 l0 439 l338 0 ZM514 578 l0 90 l-105 0 l0 -90 l105 0 ZM414 403 l218 0 l0 -503 l-218 0 l0 503 ZM544 26 l0 251 l-42 0 l0 -251 l42 0 ZM651 415 l168 0 l25 195 l101 0 l-25 -195 l37 0 l0 -123 l-95 0 l0 -94 l85 0 l0 -127 l-85 0 l0 -171 l-124 0 l0 171 l-84 0 l0 127 l84 0 l0 94 l-87 0 l0 123 ZM651 766 l87 0 l0 44 l124 0 l0 -44 l85 0 l0 -123 l-296 0 l0 123 ZM774 610 l15 -166 l-100 0 l-15 166 l100 0 Z" /><glyph glyph-name="uni513F" unicode="&#x513f;" d="M610 800 l134 0 l0 -749 l226 0 l0 -133 l-360 0 l0 882 ZM38 48 q103 41 149.5 129 q46.5 88 46.5 209 l0 414 l134 0 l0 -420 q0 -177 -79 -304 q-79 -127 -251 -181 l0 153 Z" /><glyph glyph-name="uni5141" unicode="&#x5141;" d="M579 379 l-139 0 q-12 -214 -111 -332.5 q-99 -118.5 -279 -154.5 l0 134 q125 33 192 120.5 q67 87.5 69 232.5 l-214 0 l0 129 l81 0 l164 312 l161 0 l-164 -312 l365 0 l-47 117 l155 0 l98 -246 l-202 0 l0 -348 l262 0 l0 -125 l-391 0 l0 473 Z" /><glyph glyph-name="uni5143" unicode="&#x5143;" d="M575 335 l-166 0 q-6 -161 -96.5 -275.5 q-90.5 -114.5 -262.5 -164.5 l0 139 q108 36 167 114.5 q59 78.5 64 186.5 l-222 0 l0 129 l882 0 l0 -129 l-236 0 l0 -294 l255 0 l0 -133 l-385 0 l0 427 ZM135 772 l730 0 l0 -129 l-730 0 l0 129 Z" /><glyph glyph-name="uni5144" unicode="&#x5144;" d="M883 315 l-168 0 l0 -274 l245 0 l0 -133 l-375 0 l0 407 l-177 0 q-12 -153 -102 -262.5 q-90 -109.5 -256 -157.5 l0 139 q102 35 160.5 107.5 q58.5 72.5 69.5 173.5 l-163 0 l0 466 l766 0 l0 -466 ZM753 441 l0 214 l-506 0 l0 -214 l506 0 Z" /><glyph glyph-name="uni5145" unicode="&#x5145;" d="M50 30 q107 35 172.5 102 q65.5 67 82.5 176 l-218 0 l0 127 l81 0 l131 195 l-239 0 l0 127 l374 0 l0 63 l132 0 l0 -63 l374 0 l0 -127 l-486 0 l-131 -195 l413 0 l-57 118 l142 0 l118 -245 l-224 0 l0 -264 l245 0 l0 -129 l-375 0 l0 393 l-150 0 q-18 -164 -119 -267.5 q-101 -103.5 -266 -150.5 l0 140 Z" /><glyph glyph-name="uni5146" unicode="&#x5146;" d="M562 800 l128 0 l0 -396 l260 -116 l0 -140 l-260 116 l0 -226 l280 0 l0 -130 l-408 0 l0 892 ZM48 37 q110 34 175 93.5 q65 59.5 85 152.5 l-258 -115 l0 140 l267 119 l0 373 l128 0 l0 -430 q0 -378 -397 -475 l0 142 ZM208 753 l70 -269 l-128 0 l-70 269 l128 0 ZM792 753 l128 0 l-70 -279 l-128 0 l70 279 Z" /><glyph glyph-name="uni5148" unicode="&#x5148;" d="M50 24 q221 51 255 244 l-262 0 l0 127 l414 0 l0 174 l-206 0 q-15 -64 -39 -125 l-147 0 q74 180 90 356 l131 0 q-3 -47 -11 -105 l181 0 l0 119 l132 0 l0 -119 l319 0 l0 -126 l-319 0 l0 -174 l369 0 l0 -127 l-249 0 l0 -237 l262 0 l0 -125 l-391 0 l0 362 l-146 0 q-24 -163 -121.5 -255 q-97.5 -92 -261.5 -121 l0 132 Z" /><glyph glyph-name="uni5149" unicode="&#x5149;" d="M50 30 q115 39 182.5 113.5 q67.5 74.5 76.5 199.5 l-269 0 l0 129 l395 0 l0 343 l130 0 l0 -343 l395 0 l0 -129 l-245 0 l0 -299 l245 0 l0 -129 l-375 0 l0 428 l-148 0 q-9 -179 -111 -291 q-102 -112 -276 -162 l0 140 ZM246 790 l70 -254 l-136 0 l-70 254 l136 0 ZM754 790 l136 0 l-70 -254 l-136 0 l70 254 Z" /><glyph glyph-name="uni514D" unicode="&#x514d;" d="M908 203 l-204 0 l0 -178 l256 0 l0 -125 l-384 0 l0 303 l-150 0 q-31 -133 -126 -209 q-95 -76 -250 -102 l0 129 q195 40 245 182 l-183 0 l0 309 q-29 -15 -56 -24 l0 129 q108 67 167 183 l604 0 q-38 -121 -94 -213 l175 0 l0 -384 ZM583 587 q37 51 55 91 l-341 0 q-32 -52 -74 -91 l360 0 ZM436 325 l0 140 l-195 0 l0 -140 l195 0 ZM779 325 l0 140 l-215 0 l0 -140 l215 0 Z" /><glyph glyph-name="uni515C" unicode="&#x515c;" d="M427 762 l16 58 l132 0 l-16 -58 l157 0 l0 -477 l-432 0 l0 477 l143 0 ZM50 16 q114 34 180.5 93.5 q66.5 59.5 89.5 151.5 l125 0 q-20 -136 -109.5 -227.5 q-89.5 -91.5 -285.5 -143.5 l0 126 ZM63 772 l188 0 l0 -128 l-66 0 l0 -231 l66 0 l0 -128 l-188 0 l0 487 ZM590 396 l0 78 l-180 0 l0 -78 l180 0 ZM590 576 l0 78 l-180 0 l0 -78 l180 0 ZM587 261 l130 0 l0 -237 l253 0 l0 -120 l-383 0 l0 357 ZM749 413 l66 0 l0 231 l-66 0 l0 128 l188 0 l0 -487 l-188 0 l0 128 Z" /><glyph glyph-name="uni5165" unicode="&#x5165;" d="M39 37 q185 73 289 212.5 q104 139.5 104 340.5 l0 53 l-182 0 l0 130 l319 0 l0 -183 q0 -201 103.5 -340.5 q103.5 -139.5 288.5 -212.5 l0 -149 q-165 53 -281.5 151 q-116.5 98 -179.5 231 q-63 -133 -179.5 -231 q-116.5 -98 -281.5 -151 l0 149 Z" /><glyph glyph-name="uni5168" unicode="&#x5168;" d="M960 399 q-107 30 -198 90 l0 -72 l-197 0 l0 -114 l296 0 l0 -124 l-296 0 l0 -130 l368 0 l0 -128 l-866 0 l0 128 l368 0 l0 130 l-296 0 l0 124 l296 0 l0 114 l-197 0 l0 72 q-91 -60 -198 -90 l0 131 q119 48 188.5 113.5 q69.5 65.5 111.5 156.5 l320 0 q42 -91 111.5 -156.5 q69.5 -65.5 188.5 -113.5 l0 -131 ZM694 541 q-68 59 -110 131 l-168 0 q-40 -69 -110 -131 l388 0 Z" /><glyph glyph-name="uni516B" unicode="&#x516b;" d="M804 -100 q-85 214 -133 431 q-48 217 -65 469 l133 0 q20 -253 72.5 -465 q52.5 -212 151.5 -435 l-159 0 ZM37 -100 q99 223 151.5 435 q52.5 212 72.5 465 l133 0 q-17 -252 -65 -469 q-48 -217 -133 -431 l-159 0 Z" /><glyph glyph-name="uni516C" unicode="&#x516c;" d="M87 36 l118 0 l226 482 l151 0 l-226 -482 l359 0 l-62 151 l148 0 l115 -279 l-829 0 l0 128 ZM27 314 q88 136 142 256.5 q54 120.5 86 249.5 l139 0 q-31 -137 -79.5 -259 q-48.5 -122 -121.5 -247 l-166 0 ZM745 820 q32 -129 86 -249.5 q54 -120.5 142 -256.5 l-166 0 q-73 125 -121.5 247 q-48.5 122 -79.5 259 l139 0 Z" /><glyph glyph-name="uni516D" unicode="&#x516d;" d="M795 -100 q-115 232 -177 493 l135 0 q63 -245 197 -493 l-155 0 ZM50 -100 q134 248 197 493 l135 0 q-62 -261 -177 -493 l-155 0 ZM58 646 l375 0 l0 154 l134 0 l0 -154 l375 0 l0 -132 l-884 0 l0 132 Z" /><glyph glyph-name="uni5170" unicode="&#x5170;" d="M50 52 l900 0 l0 -128 l-900 0 l0 128 ZM72 681 l185 0 l-47 131 l140 0 l47 -131 l206 0 l47 131 l140 0 l-47 -131 l185 0 l0 -128 l-856 0 l0 128 ZM159 379 l682 0 l0 -126 l-682 0 l0 126 Z" /><glyph glyph-name="uni5171" unicode="&#x5171;" d="M42 338 l196 0 l0 242 l-165 0 l0 128 l165 0 l0 104 l129 0 l0 -104 l266 0 l0 104 l129 0 l0 -104 l165 0 l0 -128 l-165 0 l0 -242 l196 0 l0 -128 l-916 0 l0 128 ZM50 26 q171 49 378 138 l0 -137 q-165 -74 -378 -135 l0 134 ZM633 338 l0 242 l-266 0 l0 -242 l266 0 ZM572 164 q207 -89 378 -138 l0 -134 q-213 61 -378 135 l0 137 Z" /><glyph glyph-name="uni5173" unicode="&#x5173;" d="M951 -110 q-176 48 -283.5 124 q-107.5 76 -167.5 188 q-60 -112 -167.5 -188 q-107.5 -76 -283.5 -124 l0 139 q133 43 212.5 98.5 q79.5 55.5 130.5 148.5 l-349 0 l0 130 l392 0 l-1 165 l-360 0 l0 129 l155 0 l-43 115 l139 0 l43 -115 l264 0 l43 115 l139 0 l-43 -115 l155 0 l0 -129 l-360 0 l0 -165 l391 0 l0 -130 l-349 0 q51 -93 130.5 -148.5 q79.5 -55.5 212.5 -98.5 l0 -139 Z" /><glyph glyph-name="uni5174" unicode="&#x5174;" d="M40 391 l630 0 l96 410 l139 0 l-96 -410 l151 0 l0 -131 l-920 0 l0 131 ZM71 -100 q92 156 148 318 l145 0 q-50 -176 -127 -318 l-166 0 ZM237 780 l77 -338 l-139 0 l-77 338 l139 0 ZM539 780 l61 -338 l-138 0 l-61 338 l138 0 ZM781 218 q56 -162 148 -318 l-166 0 q-77 142 -127 318 l145 0 Z" /><glyph glyph-name="uni5175" unicode="&#x5175;" d="M137 768 q370 0 737 40 l0 -125 q-318 -36 -608 -40 l0 -92 l643 0 l0 -125 l-173 0 l0 -167 l234 0 l0 -127 l-940 0 l0 127 l107 0 l0 509 ZM65 16 q171 19 376 83 l0 -126 q-168 -56 -376 -83 l0 126 ZM607 259 l0 167 l-341 0 l0 -167 l341 0 ZM559 99 q205 -64 376 -83 l0 -126 q-208 27 -376 83 l0 126 Z" /><glyph glyph-name="uni5176" unicode="&#x5176;" d="M40 219 l141 0 l0 420 l-113 0 l0 120 l113 0 l0 51 l130 0 l0 -51 l378 0 l0 51 l130 0 l0 -51 l113 0 l0 -120 l-113 0 l0 -420 l141 0 l0 -122 l-920 0 l0 122 ZM58 10 q170 17 382 77 l0 -121 q-173 -51 -382 -76 l0 120 ZM689 219 l0 66 l-378 0 l0 -66 l378 0 ZM689 394 l0 70 l-378 0 l0 -70 l378 0 ZM689 573 l0 66 l-378 0 l0 -66 l378 0 ZM560 87 q212 -60 382 -77 l0 -120 q-209 25 -382 76 l0 121 Z" /><glyph glyph-name="uni5177" unicode="&#x5177;" d="M80 12 q159 17 356 75 l-403 0 l0 114 l107 0 l0 591 l720 0 l0 -591 l107 0 l0 -114 l-403 0 q197 -58 356 -75 l0 -122 q-199 25 -363 76 l0 121 l-114 0 l0 -121 q-164 -51 -363 -76 l0 122 ZM730 201 l0 43 l-460 0 l0 -43 l460 0 ZM730 346 l0 43 l-460 0 l0 -43 l460 0 ZM730 490 l0 44 l-460 0 l0 -44 l460 0 ZM730 635 l0 44 l-460 0 l0 -44 l460 0 Z" /><glyph glyph-name="uni5178" unicode="&#x5178;" d="M50 31 q189 26 400 103 l0 -133 q-191 -69 -400 -100 l0 130 ZM30 268 l66 0 l0 468 l224 0 l0 74 l129 0 l0 -74 l102 0 l0 74 l129 0 l0 -74 l224 0 l0 -468 l66 0 l0 -133 l-940 0 l0 133 ZM326 268 l0 107 l-102 0 l0 -107 l102 0 ZM326 498 l0 114 l-102 0 l0 -114 l102 0 ZM551 268 l0 107 l-102 0 l0 -107 l102 0 ZM551 498 l0 114 l-102 0 l0 -114 l102 0 ZM550 134 q211 -77 400 -103 l0 -130 q-209 31 -400 100 l0 133 ZM776 268 l0 107 l-102 0 l0 -107 l102 0 ZM776 498 l0 114 l-102 0 l0 -114 l102 0 Z" /><glyph glyph-name="uni517B" unicode="&#x517b;" d="M40 453 l395 0 l0 49 l-326 0 l0 104 l326 0 l0 48 l-365 0 l0 118 l160 0 l-16 45 l136 0 l16 -45 l268 0 l16 45 l136 0 l-16 -45 l160 0 l0 -118 l-365 0 l0 -48 l326 0 l0 -104 l-326 0 l0 -49 l395 0 l0 -118 l-150 0 q51 -82 150 -122 l0 -130 q-122 43 -201 126 l0 -309 l-130 0 l0 367 l84 0 q-20 31 -36 68 l-354 0 q-16 -36 -29 -57 l93 0 l0 -81 q0 -89 -19 -160 q-19 -71 -64 -137 l-168 0 q67 69 95 142 q28 73 28 155 l0 32 q-81 -97 -219 -146 l0 130 q99 40 150 122 l-150 0 l0 118 Z" /><glyph glyph-name="uni517C" unicode="&#x517c;" d="M101 278 l224 0 l0 50 l-285 0 l0 108 l285 -1 l0 53 l-224 0 l0 110 l224 0 l0 51 l-258 0 l0 113 l178 0 l-21 58 l136 0 l21 -58 l238 0 l21 58 l136 0 l-21 -58 l178 0 l0 -113 l-258 0 l0 -51 l230 0 l0 -155 l65 -1 l0 -123 l-65 0 l0 -151 l-82 0 q44 -145 122 -268 l-137 0 q-66 123 -103 268 l-30 0 l0 -268 l-128 0 l0 268 l-94 0 l0 -268 l-128 0 l0 268 l-30 0 q-37 -145 -103 -268 l-137 0 q78 123 122 268 l-76 0 l0 110 ZM547 278 l0 50 l-94 0 l0 -50 l94 0 ZM547 435 l0 53 l-94 0 l0 -53 l94 0 ZM547 598 l0 51 l-94 0 l0 -51 l94 0 ZM784 278 l0 50 l-109 0 l0 -50 l109 0 ZM784 434 l0 54 l-109 0 l0 -54 l109 0 Z" /><glyph glyph-name="uni517D" unicode="&#x517d;" d="M236 754 l-22 60 l136 0 l22 -60 l257 0 l21 60 l136 0 l-21 -60 l144 0 l0 -395 l-818 0 l0 395 l145 0 ZM39 323 l922 0 l0 -106 l-922 0 l0 106 ZM129 183 l742 0 l0 -276 l-742 0 l0 276 ZM436 463 l0 48 l-216 0 l0 -48 l216 0 ZM436 604 l0 47 l-216 0 l0 -47 l216 0 ZM741 10 l0 71 l-482 0 l0 -71 l482 0 ZM780 463 l0 48 l-216 0 l0 -48 l216 0 ZM780 604 l0 47 l-216 0 l0 -47 l216 0 Z" /><glyph glyph-name="uni5185" unicode="&#x5185;" d="M80 684 l355 0 l-1 135 l132 0 l0 -135 l354 0 l0 -784 l-242 0 l0 132 l112 0 l0 522 l-221 0 q12 -114 65 -195 q53 -81 136 -124 l0 -152 q-94 38 -162 106.5 q-68 68.5 -108 160.5 q-40 -92 -108 -160.5 q-68 -68.5 -162 -106.5 l0 152 q83 43 136 124 q53 81 65 195 l-221 0 l0 -654 l-130 0 l0 784 Z" /><glyph glyph-name="uni5188" unicode="&#x5188;" d="M80 782 l840 0 l0 -882 l-130 0 l0 753 l-580 0 l0 -753 l-130 0 l0 882 ZM249 129 q100 54 169 127 q-107 164 -129 366 l130 0 q14 -142 81 -260 q67 118 81 260 l130 0 q-22 -202 -129 -366 q69 -73 169 -127 l0 -155 q-71 35 -135.5 82 q-64.5 47 -115.5 100 q-51 -53 -115.5 -100 q-64.5 -47 -135.5 -82 l0 155 Z" /><glyph glyph-name="uni518C" unicode="&#x518c;" d="M39 -105 q31 87 43.5 162 q12.5 75 12.5 179 l0 54 l-65 0 l0 128 l65 0 l0 362 l364 0 l0 -362 l84 0 l0 362 l364 0 l0 -362 l63 0 l0 -128 l-63 0 l0 -395 l-128 0 l0 395 l-108 0 l0 -395 l-128 0 l0 395 l-84 0 l0 -395 l-128 0 l0 395 l-108 0 l0 -54 q0 -100 -11 -179.5 q-11 -79.5 -36 -161.5 l-137 0 ZM331 418 l0 236 l-108 0 l0 -236 l108 0 ZM779 418 l0 236 l-108 0 l0 -236 l108 0 Z" /><glyph glyph-name="uni518D" unicode="&#x518d;" d="M629 25 l135 0 l0 55 l-528 0 l0 -180 l-128 0 l0 180 l-78 0 l0 122 l78 0 l0 406 l328 0 l0 63 l-386 0 l0 122 l900 0 l0 -122 l-386 0 l0 -63 l328 0 l0 -406 l78 0 l0 -122 l-78 0 l0 -180 l-263 0 l0 125 ZM436 202 l0 86 l-200 0 l0 -86 l200 0 ZM436 402 l0 84 l-200 0 l0 -84 l200 0 ZM764 202 l0 86 l-200 0 l0 -86 l200 0 ZM764 402 l0 84 l-200 0 l0 -84 l200 0 Z" /><glyph glyph-name="uni5192" unicode="&#x5192;" d="M865 401 l0 -491 l-730 0 l0 491 l730 0 ZM82 783 l836 0 l0 -346 l-130 0 l0 240 l-576 0 l0 -240 l-130 0 l0 346 ZM250 520 l500 0 l0 -83 l-500 0 l0 83 ZM250 639 l500 0 l0 -83 l-500 0 l0 83 ZM735 8 l0 44 l-470 0 l0 -44 l470 0 ZM735 135 l0 43 l-470 0 l0 -43 l470 0 ZM735 261 l0 43 l-470 0 l0 -43 l470 0 Z" /><glyph glyph-name="uni5199" unicode="&#x5199;" d="M49 773 l902 0 l0 -294 l-132 0 l0 172 l-638 0 l0 -172 l-132 0 l0 294 ZM52 187 l626 0 l0 -122 l-626 0 l0 122 ZM235 617 l132 0 l-8 -51 l421 0 l0 -116 l-440 0 l-13 -81 l585 0 l-43 -469 l-342 0 l0 120 l221 0 l21 229 l-594 0 l60 368 Z" /><glyph glyph-name="uni519B" unicode="&#x519b;" d="M49 773 l902 0 l0 -224 l-97 0 l0 -101 l-453 0 l-87 -126 l142 0 l0 90 l132 0 l0 -90 l310 0 l0 -120 l-310 0 l0 -82 l369 0 l0 -124 l-369 0 l0 -96 l-132 0 l0 96 l-413 0 l0 124 l413 0 l0 82 l-374 0 l0 120 l73 0 l87 126 l-96 0 l0 101 l-97 0 l0 224 ZM325 568 l37 53 l159 0 l-37 -53 l335 0 l0 83 l-638 0 l0 -83 l144 0 Z" /><glyph glyph-name="uni51A0" unicode="&#x51a0;" d="M310 250 l-45 0 q-22 -194 -90 -350 l-145 0 q89 177 112 350 l-92 0 l0 120 l448 0 l0 -120 l-65 0 l0 -220 l527 0 l0 -119 l-650 0 l0 339 ZM65 786 l870 0 l0 -175 l-130 0 l0 57 l-610 0 l0 -66 l-130 0 l0 184 ZM87 568 l374 0 l0 -118 l-374 0 l0 118 ZM515 548 l239 0 l0 48 l120 0 l0 -48 l86 0 l0 -120 l-86 0 l0 -362 l-220 0 l0 120 l100 0 l0 242 l-239 0 l0 120 ZM542 403 l171 -60 l0 -115 l-171 60 l0 115 Z" /><glyph glyph-name="uni51AC" unicode="&#x51ac;" d="M51 411 q191 34 314 84 q-64 50 -111 109 q-75 -51 -164 -67 l0 125 q107 45 165 131 l605 0 q-39 -91 -94 -164.5 q-55 -73.5 -132 -133.5 q124 -50 315 -84 l0 -131 q-270 42 -449 131 q-93 -47 -217 -82 l469 -77 l0 -123 l-501 82 l0 109 q-101 -25 -200 -40 l0 131 ZM127 140 l746 -122 l0 -128 l-746 122 l0 128 ZM378 670 q55 -62 122 -105 q64 42 121 105 l-243 0 Z" /><glyph glyph-name="uni51B0" unicode="&#x51b0;" d="M841 -99 q-28 258 -157 378 l0 -379 l-220 0 l0 128 l93 0 l0 777 l127 0 l0 -357 q255 -174 280 -547 l-123 0 ZM41 -40 q85 231 114 473 l130 0 q-32 -278 -102 -473 l-142 0 ZM183 769 l99 -277 l-135 0 l-99 277 l135 0 ZM220 -100 q89 170 130.5 319 q41.5 149 41.5 323 l-106 0 l0 128 l230 0 l0 -128 q0 -179 -34 -332.5 q-34 -153.5 -113 -309.5 l-149 0 ZM831 736 l130 0 l-110 -308 l-130 0 l110 308 Z" /><glyph glyph-name="uni51B2" unicode="&#x51b2;" d="M566 679 l0 141 l130 0 l0 -141 l245 0 l0 -572 l-245 0 l0 -227 l-130 0 l0 227 l-246 0 l0 572 l246 0 ZM41 -40 q85 231 114 473 l130 0 q-32 -278 -102 -473 l-142 0 ZM183 769 l99 -277 l-133 0 l-99 277 l133 0 ZM567 237 l0 312 l-118 0 l0 -312 l118 0 ZM813 237 l0 312 l-118 0 l0 -312 l118 0 Z" /><glyph glyph-name="uni51B3" unicode="&#x51b3;" d="M245 -100 q112 166 167 329 l-109 0 l0 138 l180 0 l0 211 l-147 0 l0 138 l147 0 l0 94 l135 0 l0 -94 l253 0 l0 -349 l92 0 l0 -138 l-186 0 q26 -82 66.5 -162 q40.5 -80 101.5 -167 l-159 0 q-56 79 -92 159 q-36 80 -61 170 l-75 0 q-56 -186 -153 -329 l-160 0 ZM41 -40 q85 231 114 473 l130 0 q-32 -278 -102 -473 l-142 0 ZM183 769 l99 -277 l-133 0 l-99 277 l133 0 ZM732 367 l0 211 l-118 0 l0 -211 l118 0 Z" /><glyph glyph-name="uni51B5" unicode="&#x51b5;" d="M344 778 l553 0 l0 -461 l-96 0 l0 -289 l158 0 l0 -122 l-288 0 l0 411 l-112 0 q-3 -119 -32 -218 q-29 -99 -97 -199 l-178 0 q92 97 129.5 194 q37.5 97 41.5 223 l-79 0 l0 461 ZM41 -40 q85 231 114 473 l135 0 q-32 -278 -102 -473 l-147 0 ZM190 769 l99 -277 l-140 0 l-99 277 l140 0 ZM761 443 l0 209 l-281 0 l0 -209 l281 0 Z" /><glyph glyph-name="uni51B7" unicode="&#x51b7;" d="M897 -110 q-279 102 -538 130 l0 129 q146 -19 264 -46 l97 139 l-370 0 l0 126 l605 0 l-88 -125 l0 -1 l-1 0 l-119 -170 q74 -21 150 -50 l0 -132 ZM41 -40 q85 231 114 473 l130 0 q-32 -278 -102 -473 l-142 0 ZM183 769 l99 -277 l-133 0 l-99 277 l133 0 ZM296 559 q149 93 213 241 l238 0 q64 -148 213 -241 l0 -142 q-195 93 -287 255 l-90 0 q-92 -162 -287 -255 l0 142 ZM677 579 l38 -169 l-128 0 l-39 169 l129 0 Z" /><glyph glyph-name="uni51BB" unicode="&#x51bb;" d="M41 -40 q85 231 114 473 l130 0 q-32 -278 -102 -473 l-142 0 ZM186 769 l99 -277 l-136 0 l-99 277 l136 0 ZM290 -73 q68 162 68 322 l124 0 q0 -164 -54 -322 l-138 0 ZM305 735 l197 0 l34 70 l141 0 l-34 -70 l314 0 l0 -126 l-376 0 l-92 -188 l97 0 l0 143 l128 0 l0 -143 l216 0 l0 -124 l-216 0 l0 -397 l-201 0 l0 124 l73 0 l0 273 l-274 0 l0 124 l36 0 l92 188 l-135 0 l0 126 ZM916 245 q54 -157 54 -322 l-124 0 q0 159 -61 322 l131 0 Z" /><glyph glyph-name="uni51C6" unicode="&#x51c6;" d="M305 488 q78 123 114 313 l117 0 q-10 -61 -17 -93 l116 0 l-1 90 l128 0 l0 -90 l180 0 l0 -125 l-180 0 l0 -99 l170 0 l0 -125 l-170 0 l0 -99 l170 0 l0 -125 l-170 0 l0 -97 l190 0 l0 -125 l-599 0 l0 430 q-19 -24 -48 -53 l0 198 ZM41 -40 q85 231 114 473 l130 0 q-32 -278 -102 -473 l-142 0 ZM183 769 l99 -277 l-133 0 l-99 277 l133 0 ZM643 38 l-1 97 l-161 0 l0 -97 l162 0 ZM640 260 l-1 99 l-158 0 l0 -99 l159 0 ZM638 484 l-1 99 l-153 0 l-3 -10 l0 -89 l157 0 Z" /><glyph glyph-name="uni51C9" unicode="&#x51c9;" d="M896 589 l0 -322 l-209 0 l0 -367 l-128 0 l0 367 l-195 0 l0 322 l532 0 ZM41 -40 q85 231 114 473 l131 0 q-32 -278 -102 -473 l-143 0 ZM183 769 l99 -277 l-133 0 l-99 277 l133 0 ZM283 -88 q31 89 49.5 163.5 q18.5 74.5 25.5 151.5 l122 0 q-7 -79 -23.5 -154.5 q-16.5 -75.5 -43.5 -160.5 l-130 0 ZM300 764 l258 0 l0 51 l130 0 l0 -51 l262 0 l0 -120 l-650 0 l0 120 ZM768 382 l0 92 l-276 0 l0 -92 l276 0 ZM878 227 q7 -77 25.5 -151.5 q18.5 -74.5 49.5 -163.5 l-130 0 q-27 85 -43.5 160.5 q-16.5 75.5 -23.5 154.5 l122 0 Z" /><glyph glyph-name="uni51CC" unicode="&#x51cc;" d="M310 16 q111 17 200 54 q-38 33 -73 79 q-49 -37 -120 -57 l0 120 q71 32 115 98 l459 0 l-202 48 l0 108 l-108 0 l0 -107 l-261 -70 l0 111 l246 66 l-256 0 l0 120 l260 0 l0 63 l-229 0 l0 117 l229 0 l0 43 l130 0 l0 -43 l229 0 l0 -117 l-229 0 l0 -63 l260 0 l0 -120 l-254 0 l244 -58 l0 -112 l-52 12 q-29 -140 -145 -240 q91 -35 197 -52 l0 -126 q-190 33 -318 99 q-129 -66 -322 -99 l0 126 ZM41 -40 q85 231 114 473 l132 0 q-32 -279 -102 -473 l-144 0 ZM185 769 l99 -277 l-137 0 l-99 277 l137 0 ZM545 205 q34 -46 85 -83 q49 35 85 83 l-170 0 Z" /><glyph glyph-name="uni51E0" unicode="&#x51e0;" d="M38 47 q103 43 144 128 q41 85 41 213 l0 382 l558 0 l0 -719 l179 0 l0 -133 l-311 0 l0 718 l-294 0 l0 -254 q0 -179 -73 -304.5 q-73 -125.5 -244 -182.5 l0 152 Z" /><glyph glyph-name="uni51E1" unicode="&#x51e1;" d="M30 49 q61 32 92.5 78.5 q31.5 46.5 42.5 103 q11 56.5 11 134.5 l0 407 l631 0 l0 -721 l153 0 l0 -133 l-283 0 l0 720 l-371 0 l0 -275 q0 -115 -22.5 -204 q-22.5 -89 -83 -159.5 q-60.5 -70.5 -170.5 -110.5 l0 160 ZM513 531 l84 -406 l-125 0 l-84 406 l125 0 Z" /><glyph glyph-name="uni51ED" unicode="&#x51ed;" d="M634 119 l-271 0 q-10 -63 -34 -116 q-24 -53 -68 -103 l-188 0 q60 51 95 99 q35 48 51.5 106.5 q16.5 58.5 16.5 139.5 l528 0 l0 -216 l186 0 l0 -129 l-316 0 l0 219 ZM40 572 q123 83 175 228 l130 0 q-28 -103 -75 -176 l0 -343 l-130 0 l0 199 q-45 -34 -100 -62 l0 154 ZM318 595 l257 0 l0 74 q-91 -3 -205 -3 l0 115 q176 0 294 6.5 q118 6.5 244 24.5 l0 -115 q-119 -17 -205 -22 l0 -80 l257 0 l0 -118 l-257 0 l0 -76 l222 0 l0 -115 l-572 0 l0 115 l222 0 l0 76 l-257 0 l0 118 Z" /><glyph glyph-name="uni51F6" unicode="&#x51f6;" d="M72 -86 l857 0 l0 816 l-129 0 l0 -687 l-599 0 l0 687 l-129 0 l0 -816 ZM219 237 q111 59 193 143 q-129 178 -161 420 l129 0 q28 -176 120 -312 q92 136 120 312 l129 0 q-32 -242 -161 -420 q82 -84 193 -143 l0 -158 q-163 78 -281 197 q-118 -119 -281 -197 l0 158 Z" /><glyph glyph-name="uni51FA" unicode="&#x51fa;" d="M70 312 l130 0 l0 -269 l235 0 l0 341 l-333 0 l0 382 l129 0 l0 -253 l204 0 l0 302 l130 0 l0 -302 l204 0 l0 253 l129 0 l0 -382 l-333 0 l0 -341 l235 0 l0 269 l130 0 l0 -399 l-860 0 l0 399 Z" /><glyph glyph-name="uni51FB" unicode="&#x51fb;" d="M80 271 l134 0 l0 -231 l222 0 l0 289 l-406 0 l0 127 l406 0 l0 153 l-356 0 l0 127 l356 0 l0 79 l128 0 l0 -79 l356 0 l0 -127 l-356 0 l0 -153 l406 0 l0 -127 l-406 0 l0 -289 l222 0 l0 231 l134 0 l0 -359 l-840 0 l0 359 Z" /><glyph glyph-name="uni51FD" unicode="&#x51fd;" d="M72 -86 l857 0 l0 761 l-126 0 l0 -632 l-605 0 l0 632 l-126 0 l0 -761 ZM339 616 l79 -199 l-127 0 l-79 199 l127 0 ZM214 296 l224 107 l0 162 l95 109 l-299 0 l0 125 l548 0 l-220 -259 l0 -137 l224 -107 l0 -131 l-224 107 l0 -188 l-207 0 l0 126 l83 0 l0 62 l-224 -107 l0 131 ZM667 616 l125 0 l-78 -199 l-125 0 l78 199 Z" /><glyph glyph-name="uni5200" unicode="&#x5200;" d="M591 32 l166 0 l0 600 l-333 0 l0 -197 q0 -205 -94.5 -345.5 q-94.5 -140.5 -289.5 -199.5 l0 154 q122 48 186 144 q64 96 64 253 l0 191 l-216 0 l0 134 l817 0 l-1 -866 l-299 0 l0 132 Z" /><glyph glyph-name="uni5201" unicode="&#x5201;" d="M606 30 l168 0 l0 600 l-681 0 l0 131 l812 0 l0 -861 l-299 0 l0 130 ZM100 211 l562 276 l0 -151 l-562 -276 l0 151 Z" /><glyph glyph-name="uni5203" unicode="&#x5203;" d="M594 32 l169 0 l0 602 l-257 0 l0 -119 q0 -228 -117.5 -392 q-117.5 -164 -344.5 -233 l0 150 q328 129 328 481 l0 113 l-298 0 l0 134 l823 0 l-1 -868 l-302 0 l0 132 ZM150 535 l129 0 l-110 -301 l-129 0 l110 301 Z" /><glyph glyph-name="uni5206" unicode="&#x5206;" d="M551 27 l138 0 l12 278 l-234 0 q-36 -163 -136 -267 q-100 -104 -261 -142 l0 134 q107 30 174.5 99.5 q67.5 69.5 93.5 175.5 l-163 0 l0 110 q-60 -42 -135 -72 l0 152 q100 47 162.5 124 q62.5 77 94.5 191 l135 0 q-53 -241 -232 -377 l600 0 q-179 136 -232 377 l135 0 q32 -114 94.5 -191 q62.5 -77 162.5 -124 l0 -152 q-70 30 -124 65 l-19 -508 l-266 0 l0 127 Z" /><glyph glyph-name="uni5207" unicode="&#x5207;" d="M690 32 l99 0 l0 612 l-158 0 l0 -128 q0 -172 -35 -321 q-35 -149 -113 -295 l-164 0 q100 147 141 295.5 q41 148.5 41 320.5 l0 128 l-105 0 l0 132 l524 0 l-1 -876 l-229 0 l0 132 ZM40 561 l91 10 l0 229 l132 0 l0 -214 l113 12 l0 -133 l-113 -12 l0 -285 l126 38 l0 -139 l-258 -77 l0 448 l-91 -10 l0 133 Z" /><glyph glyph-name="uni520A" unicode="&#x520a;" d="M669 25 l132 0 l0 785 l127 0 l0 -910 l-259 0 l0 125 ZM41 427 l179 0 l0 230 l-164 0 l0 130 l460 0 l0 -130 l-164 0 l0 -230 l179 0 l0 -130 l-179 0 l0 -402 l-132 0 l0 402 l-179 0 l0 130 ZM582 748 l128 0 l0 -626 l-128 0 l0 626 Z" /><glyph glyph-name="uni5211" unicode="&#x5211;" d="M672 28 l137 0 l0 772 l124 0 l0 -900 l-261 0 l0 128 ZM40 448 l90 0 l0 213 l-64 0 l0 128 l474 0 l0 -128 l-60 0 l0 -213 l86 0 l0 -128 l-86 0 l0 -420 l-126 0 l0 420 l-98 0 q0 -116 -16.5 -216.5 q-16.5 -100.5 -51.5 -203.5 l-144 0 q48 102 67 199 q19 97 19 221 l-90 0 l0 128 ZM354 448 l0 213 l-98 0 l0 -213 l98 0 ZM600 745 l124 0 l0 -623 l-124 0 l0 623 Z" /><glyph glyph-name="uni5212" unicode="&#x5212;" d="M598 -117 q-189 47 -294 162 q-53 -45 -123 -81 q-70 -36 -139 -57 l0 149 q49 16 98.5 43 q49.5 27 87.5 61 q-57 121 -57 295 l-124 0 l0 122 l122 0 l0 228 l129 0 l0 -228 l285 0 l0 -122 l-282 0 q1 -61 6.5 -108 q5.5 -47 18.5 -87 q37 68 56 147 l123 0 q-34 -151 -107 -266 q69 -67 200 -110 l0 -148 ZM459 783 l56 -174 l-120 0 l-55 174 l119 0 ZM646 745 l117 0 l0 -635 l-117 0 l0 635 ZM679 20 l134 0 l0 780 l125 0 l0 -900 l-259 0 l0 120 Z" /><glyph glyph-name="uni5217" unicode="&#x5217;" d="M61 -100 q137 124 214 229 l-33 0 l-43 165 l-17 -38 l-146 0 q48 98 75 195.5 q27 97.5 32 201.5 l-92 0 l0 127 l529 0 l0 -127 l-308 0 q-2 -43 -6 -83 l301 0 q-20 -158 -51 -264 q-31 -106 -90.5 -201 q-59.5 -95 -165.5 -205 l-199 0 ZM309 368 l33 -126 q42 84 66 202 l-162 0 q-10 -41 -21 -76 l84 0 ZM608 745 l122 0 l0 -635 l-122 0 l0 635 ZM672 29 l133 0 l0 771 l126 0 l0 -900 l-259 0 l0 129 Z" /><glyph glyph-name="uni5218" unicode="&#x5218;" d="M33 -100 q137 149 229 306 l-182 334 l145 0 l108 -197 q49 111 71 223 l-349 0 l0 129 l193 0 l0 115 l128 0 l0 -115 l190 0 l0 -129 l-32 0 q-46 -202 -125 -364 l165 -302 l-145 0 l-92 169 q-59 -94 -126 -169 l-178 0 ZM600 745 l125 0 l0 -635 l-125 0 l0 635 ZM668 29 l131 0 l0 771 l128 0 l0 -900 l-259 0 l0 129 Z" /><glyph glyph-name="uni5219" unicode="&#x5219;" d="M65 785 l491 0 l0 -594 l-121 0 l0 468 l-249 0 l0 -468 l-121 0 l0 594 ZM48 22 q95 15 149 77.5 q54 62.5 54 149.5 l0 335 l120 0 l0 -335 q0 -19 -1 -28 q90 -49 143.5 -131 q53.5 -82 81.5 -190 l-132 0 q-23 123 -122 197 q-35 -79 -109 -133 q-74 -54 -184 -74 l0 132 ZM625 745 l120 0 l0 -623 l-120 0 l0 623 ZM674 28 l137 0 l0 772 l122 0 l0 -900 l-259 0 l0 128 Z" /><glyph glyph-name="uni521A" unicode="&#x521a;" d="M65 785 l492 0 l0 -885 l-121 0 l0 81 l-67 0 l-58 205 l-58 -205 l-67 0 l0 -81 l-121 0 l0 885 ZM253 320 l-67 232 l0 -466 l67 234 ZM269 601 l48 -165 l47 165 l72 0 l0 54 l-250 0 l0 -54 l83 0 ZM436 86 l0 452 l-65 -225 l65 -227 ZM625 745 l120 0 l0 -623 l-120 0 l0 623 ZM674 28 l137 0 l0 772 l122 0 l0 -900 l-259 0 l0 128 Z" /><glyph glyph-name="uni521B" unicode="&#x521b;" d="M102 478 q-36 -22 -58 -33 l0 146 q65 35 105 87 q40 52 69 122 l199 0 q29 -70 69 -122 q40 -52 105 -87 l0 -146 q-26 13 -63 37 l0 -365 l-207 0 l0 123 l90 0 l0 143 l-178 0 l0 -344 l339 0 l0 -129 l-470 0 l0 568 ZM487 511 q-84 66 -138 159 l-63 0 q-54 -93 -138 -159 l339 0 ZM624 745 l117 0 l0 -635 l-117 0 l0 635 ZM709 20 l104 0 l0 780 l125 0 l0 -900 l-229 0 l0 120 Z" /><glyph glyph-name="uni521D" unicode="&#x521d;" d="M680 32 l104 0 l0 612 l-146 0 l-3 -128 q-4 -168 -36 -317 q-32 -149 -97 -299 l-166 0 q88 150 127.5 300.5 q39.5 150.5 39.5 315.5 l0 128 l-121 0 l0 132 l538 0 l-1 -876 l-239 0 l0 132 ZM30 203 q104 176 154 358 l-126 0 l0 126 l88 0 l0 118 l128 0 l0 -118 l61 0 q-23 -149 -68 -281 l0 -37 l16 -8 l42 133 l91 0 l-53 -171 l33 -16 l0 -128 l-129 62 l0 -341 l-128 0 l0 303 l-109 0 Z" /><glyph glyph-name="uni5220" unicode="&#x5220;" d="M43 -100 q29 87 40.5 162 q11.5 75 11.5 179 l0 63 l-47 0 l0 130 l47 0 l0 357 l239 0 l0 -357 l36 0 l0 357 l241 0 l0 -357 l33 0 l0 -130 l-33 0 l0 -404 l-102 0 l0 404 l-38 0 l0 -404 l-101 0 l0 404 l-36 0 l0 -404 l-101 0 l0 404 l-36 0 l0 -63 q0 -98 -11 -177 q-11 -79 -34 -164 l-109 0 ZM233 434 l0 227 l-36 0 l0 -227 l36 0 ZM509 434 l0 227 l-38 0 l0 -227 l38 0 ZM664 745 l112 0 l0 -635 l-112 0 l0 635 ZM679 15 l139 0 l0 785 l120 0 l0 -900 l-259 0 l0 115 Z" /><glyph glyph-name="uni5224" unicode="&#x5224;" d="M101 -100 q82 123 112 251 l-171 0 l0 126 l190 0 q4 44 4 103 l0 22 l-173 0 l0 126 l175 0 l0 272 l126 0 l0 -272 l175 0 l0 -126 l-173 0 l0 -22 q0 -59 -4 -103 l198 0 l0 -126 l-215 0 q-26 -130 -85 -251 l-159 0 ZM156 774 l38 -194 l-106 0 l-38 194 l106 0 ZM446 774 l106 0 l-38 -194 l-106 0 l38 194 ZM604 745 l122 0 l0 -622 l-122 0 l0 622 ZM674 29 l135 0 l0 771 l124 0 l0 -900 l-259 0 l0 129 Z" /><glyph glyph-name="uni5229" unicode="&#x5229;" d="M699 28 l114 0 l0 772 l125 0 l0 -900 l-239 0 l0 128 ZM50 -61 q24 116 35 216 q11 100 11 218 l125 0 q0 -124 -9.5 -224 q-9.5 -100 -30.5 -210 l-131 0 ZM53 543 l210 0 l0 109 q-92 -4 -189 -4 l0 126 q103 0 243.5 8 q140.5 8 243.5 21 l0 -127 q-74 -11 -164 -17 l0 -116 l185 0 l0 -126 l-185 0 l0 -517 l-134 0 l0 517 l-210 0 l0 126 ZM545 373 q35 -180 38 -403 l-119 0 q-3 217 -39 403 l120 0 ZM633 745 l117 0 l0 -635 l-117 0 l0 635 Z" /><glyph glyph-name="uni522B" unicode="&#x522b;" d="M932 800 l0 -900 l-259 0 l0 129 l134 0 l0 771 l125 0 ZM34 -100 q103 150 145 298 l-130 0 l0 124 l154 0 q6 48 6 97 l-140 0 l0 371 l464 0 l0 -371 l-199 0 q0 -33 -4 -97 l228 0 l0 -422 l-204 0 l0 124 l77 0 l0 174 l-120 0 q-32 -152 -124 -298 l-153 0 ZM406 542 l0 125 l-210 0 l0 -125 l210 0 ZM605 745 l123 0 l0 -622 l-123 0 l0 622 Z" /><glyph glyph-name="uni5230" unicode="&#x5230;" d="M679 20 l134 0 l0 780 l125 0 l0 -900 l-259 0 l0 120 ZM43 37 l208 0 l0 113 l-172 0 l0 126 l172 0 l0 96 l-195 0 l0 121 l51 0 l84 166 l-117 0 l0 124 l497 0 l0 -124 l-243 0 l-85 -166 l171 0 l-42 110 l128 0 l90 -231 l-209 0 l0 -96 l175 0 l0 -126 l-175 0 l0 -113 l210 0 l0 -128 l-548 0 l0 128 ZM631 745 l117 0 l0 -635 l-117 0 l0 635 Z" /><glyph glyph-name="uni5236" unicode="&#x5236;" d="M674 25 l135 0 l0 775 l124 0 l0 -900 l-259 0 l0 125 ZM39 527 l209 0 l0 86 l-84 0 l-6 -47 l-118 0 l27 220 l118 0 l-6 -49 l69 0 l0 63 l130 0 l0 -63 l174 0 l0 -124 l-174 0 l0 -86 l195 0 l0 -124 l-195 0 l0 -85 l181 0 l0 -384 l-118 0 l0 258 l-65 0 l0 -292 l-128 0 l0 292 l-65 0 l0 -258 l-118 0 l0 384 l183 0 l0 85 l-209 0 l0 124 ZM626 748 l118 0 l0 -626 l-118 0 l0 626 Z" /><glyph glyph-name="uni5237" unicode="&#x5237;" d="M675 28 l140 0 l0 772 l119 0 l0 -900 l-259 0 l0 128 ZM32 -100 q23 104 33.5 201.5 q10.5 97.5 10.5 214.5 l0 475 l531 0 l0 -281 l-408 0 l0 -194 q0 -118 -9.5 -216.5 q-9.5 -98.5 -30.5 -199.5 l-127 0 ZM479 617 l0 62 l-275 0 l0 -62 l275 0 ZM228 404 l124 0 l0 86 l127 0 l0 -86 l124 0 l0 -450 l-93 0 l0 320 l-38 0 l0 -374 l-113 0 l0 374 l-38 0 l0 -320 l-93 0 l0 450 ZM645 745 l116 0 l0 -623 l-116 0 l0 623 Z" /><glyph glyph-name="uni5239" unicode="&#x5239;" d="M689 20 l124 0 l0 780 l125 0 l0 -900 l-249 0 l0 120 ZM32 -88 q45 163 47 326 l107 0 q-2 -181 -41 -326 l-113 0 ZM45 383 l206 0 l0 70 l130 0 l0 -70 l203 0 l0 -118 l-206 0 l0 -365 l-125 0 l0 365 l-208 0 l0 118 ZM47 541 l159 76 l-137 58 l0 135 l239 -114 l240 114 l0 -135 l-138 -58 l161 -76 l0 -143 l-262 143 l-262 -143 l0 143 ZM551 238 q2 -163 47 -326 l-113 0 q-39 145 -41 326 l107 0 ZM637 745 l117 0 l0 -635 l-117 0 l0 635 Z" /><glyph glyph-name="uni523A" unicode="&#x523a;" d="M674 25 l137 0 l0 785 l122 0 l0 -910 l-259 0 l0 125 ZM33 -79 q54 146 60 306 l110 0 q-4 -87 -16 -161.5 q-12 -74.5 -36 -144.5 l-118 0 ZM51 742 l194 0 l0 58 l128 0 l0 -58 l187 0 l0 -121 l-187 0 l0 -56 l166 0 l0 -310 l-108 0 l0 192 l-61 0 l0 -547 l-122 0 l0 547 l-61 0 l0 -192 l-118 0 l0 310 l176 0 l0 56 l-194 0 l0 121 ZM512 227 q24 -70 36 -144.5 q12 -74.5 16 -161.5 l-110 0 q-6 160 -60 306 l118 0 ZM617 748 l120 0 l0 -626 l-120 0 l0 626 Z" /><glyph glyph-name="uni523B" unicode="&#x523b;" d="M76 41 q117 41 217.5 116 q100.5 75 158.5 178 l139 0 q-54 -124 -143 -216 l144 -86 l0 -140 l-237 144 q-122 -92 -279 -138 l0 142 ZM48 750 l210 0 l0 70 l128 0 l0 -70 l206 0 l0 -119 l-257 0 l-90 -141 l119 0 q31 46 53 93 l138 0 q-65 -170 -190.5 -284 q-125.5 -114 -284.5 -165 l0 132 q100 41 177 107 l-184 0 l0 117 l35 0 l90 141 l-150 0 l0 119 ZM631 745 l117 0 l0 -635 l-117 0 l0 635 ZM709 28 l104 0 l0 772 l125 0 l0 -900 l-229 0 l0 128 Z" /><glyph glyph-name="uni524D" unicode="&#x524d;" d="M72 555 l436 0 l0 -655 l-126 0 l0 121 l-184 0 l0 -121 l-126 0 l0 655 ZM50 750 l186 0 l-22 62 l136 0 l22 -62 l256 0 l22 62 l136 0 l-22 -62 l186 0 l0 -126 l-900 0 l0 126 ZM382 142 l0 81 l-184 0 l0 -81 l184 0 ZM382 344 l0 87 l-184 0 l0 -87 l184 0 ZM590 528 l125 0 l0 -431 l-125 0 l0 431 ZM665 28 l137 0 l0 543 l128 0 l0 -671 l-265 0 l0 128 Z" /><glyph glyph-name="uni5251" unicode="&#x5251;" d="M679 28 l136 0 l0 772 l123 0 l0 -900 l-259 0 l0 128 ZM43 587 q103 79 157 213 l252 0 q54 -134 157 -213 l0 -154 q-57 34 -107 81 l0 -84 l-350 0 l0 86 q-48 -45 -109 -83 l0 154 ZM57 34 l363 0 l37 334 l112 0 l-37 -334 l80 0 l0 -126 l-555 0 l0 126 ZM199 368 l30 -280 l-112 0 l-30 280 l112 0 ZM471 546 q-53 57 -91 129 l-108 0 q-38 -72 -91 -129 l290 0 ZM373 368 l30 -280 l-112 0 l-30 280 l112 0 ZM635 745 l116 0 l0 -635 l-116 0 l0 635 Z" /><glyph glyph-name="uni5267" unicode="&#x5267;" d="M938 800 l0 -900 l-259 0 l0 120 l134 0 l0 780 l125 0 ZM33 -101 q31 84 39.5 165 q8.5 81 8.5 200 l0 77 l0 453 l527 0 l0 -289 l-151 0 l0 -75 l162 0 l0 -118 l-162 0 l0 -82 l136 0 l0 -330 l-362 0 l0 330 l114 0 l0 82 l-150 0 l0 -42 q0 -122 -6.5 -207.5 q-6.5 -85.5 -28.5 -163.5 l-127 0 ZM345 430 l0 75 l-150 0 l0 -75 l150 0 ZM491 613 l0 73 l-296 0 l0 -73 l296 0 ZM483 10 l0 110 l-142 0 l0 -110 l142 0 ZM646 745 l117 0 l0 -635 l-117 0 l0 635 Z" /><glyph glyph-name="uni5269" unicode="&#x5269;" d="M679 20 l134 0 l0 780 l125 0 l0 -900 l-259 0 l0 120 ZM43 29 l221 151 l0 333 l-40 0 l0 -352 l-105 0 l0 29 l-71 -26 l0 113 l71 24 l0 49 l-64 0 l0 106 l64 0 l0 57 l-76 0 l0 110 l221 0 l0 55 q-27 0 -77 -2 q-70 -2 -104 -2 l0 110 q267 0 488 23 l0 -113 q-49 -4 -64 -5 q-101 -8 -121 -9 l0 -57 l225 0 l0 -110 l-74 0 l0 -54 l64 26 l0 -108 l-64 -29 l0 -68 l73 0 l0 -105 l-179 0 l0 338 l-45 0 l0 -329 l225 -155 l0 -132 l-225 155 l0 -152 l-122 0 l0 148 l-221 -151 l0 132 ZM646 745 l117 0 l0 -635 l-117 0 l0 635 Z" /><glyph glyph-name="uni526A" unicode="&#x526a;" d="M90 635 l424 0 l0 -382 l-124 0 l0 45 l-176 0 l0 -45 l-124 0 l0 382 ZM38 -100 q141 101 230 204 l-169 0 l0 124 l825 0 l-28 -328 l-316 0 l0 125 l194 0 l6 79 l-359 0 q-78 -104 -193 -204 l-190 0 ZM58 784 l183 0 l-12 36 l134 0 l12 -36 l250 0 l12 36 l134 0 l-12 -36 l183 0 l0 -110 l-884 0 l0 110 ZM390 382 l0 36 l-176 0 l0 -36 l176 0 ZM390 501 l0 37 l-176 0 l0 -37 l176 0 ZM587 622 l124 0 l0 -317 l-124 0 l0 317 ZM787 642 l124 0 l0 -389 l-124 0 l0 389 Z" /><glyph glyph-name="uni526F" unicode="&#x526f;" d="M590 355 l0 -453 l-534 0 l0 453 l534 0 ZM49 789 l548 0 l0 -106 l-548 0 l0 106 ZM88 640 l470 0 l0 -241 l-470 0 l0 241 ZM270 2 l0 81 l-96 0 l0 -81 l96 0 ZM270 174 l0 81 l-96 0 l0 -81 l96 0 ZM438 487 l0 65 l-220 0 l0 -65 l220 0 ZM472 2 l0 81 l-96 0 l0 -81 l96 0 ZM472 174 l0 81 l-96 0 l0 -81 l96 0 ZM646 745 l117 0 l0 -635 l-117 0 l0 635 ZM679 20 l134 0 l0 780 l125 0 l0 -900 l-259 0 l0 120 Z" /><glyph glyph-name="uni5272" unicode="&#x5272;" d="M938 800 l0 -900 l-259 0 l0 120 l134 0 l0 780 l125 0 ZM50 327 l213 0 l0 36 l-174 0 l0 94 l174 0 l0 36 l-188 0 l0 98 l188 0 l0 46 l122 0 l0 -46 l188 0 l0 -98 l-188 0 l0 -36 l174 0 l0 -94 l-174 0 l0 -36 l213 0 l0 -98 l-213 0 l0 -38 l195 0 l0 -285 l-512 0 l0 285 l195 0 l0 38 l-213 0 l0 98 ZM50 771 l210 0 l0 39 l128 0 l0 -39 l210 0 l0 -153 l-119 0 l0 45 l-311 0 l0 -45 l-118 0 l0 153 ZM452 6 l0 85 l-256 0 l0 -85 l256 0 ZM646 745 l117 0 l0 -635 l-117 0 l0 635 Z" /><glyph glyph-name="uni529B" unicode="&#x529b;" d="M565 32 l192 0 l0 493 l-333 0 l0 -90 q0 -205 -94.5 -345.5 q-94.5 -140.5 -289.5 -199.5 l0 154 q122 48 186 144 q64 96 64 253 l0 84 l-218 0 l0 132 l218 0 l0 153 l134 0 l0 -153 l463 0 l0 -757 l-322 0 l0 132 Z" /><glyph glyph-name="uni529D" unicode="&#x529d;" d="M691 30 l108 0 l0 497 l-120 0 l0 -76 q0 -173 -32.5 -304 q-32.5 -131 -107.5 -245 l-151 0 q19 27 30 46 q-99 64 -167 149 q-82 -102 -202 -191 l0 167 q75 59 130 132 q-54 99 -76 207 q-22 108 -21 208 l-24 0 l0 116 l379 0 l-7 -108 q-6 -128 -33 -233.5 q-27 -105.5 -78 -195.5 q47 -54 111 -103 l0 -129 q70 116 96.5 223 q26.5 107 26.5 261 l0 76 l-99 0 l0 128 l99 0 l0 153 l126 0 l0 -153 l246 0 l0 -753 l-234 0 l0 128 ZM197 620 q2 -94 12.5 -166 q10.5 -72 35.5 -132 q55 128 62 298 l-110 0 Z" /><glyph glyph-name="uni529E" unicode="&#x529e;" d="M465 32 l154 0 l0 526 l-168 0 q-1 -184 -41 -343 q-40 -159 -131 -315 l-165 0 q115 160 160.5 312 q45.5 152 46.5 346 l-220 0 l0 132 l220 0 l0 120 l130 0 l0 -120 l298 0 l0 -790 l-284 0 l0 132 ZM32 71 q71 211 105 431 l119 0 q-33 -236 -99 -431 l-125 0 ZM914 606 q40 -267 51 -600 l-124 0 q-10 292 -51 600 l124 0 Z" /><glyph glyph-name="uni529F" unicode="&#x529f;" d="M679 32 l118 0 l0 493 l-143 0 l0 -54 q0 -161 -31.5 -299 q-31.5 -138 -104.5 -272 l-164 0 q95 139 132.5 270.5 q37.5 131.5 37.5 300.5 l0 54 l-112 0 l0 132 l112 0 l0 153 l130 0 l0 -153 l273 0 l0 -757 l-248 0 l0 132 ZM40 148 l116 19 l0 456 l-103 0 l0 130 l335 0 l0 -130 l-102 0 l0 -434 l118 20 l0 -139 l-364 -61 l0 139 Z" /><glyph glyph-name="uni52A0" unicode="&#x52a0;" d="M572 722 l364 0 l0 -790 l-364 0 l0 790 ZM45 -100 q67 126 92 247 q25 121 25 271 l0 109 l-83 0 l0 130 l83 0 l0 153 l130 0 l0 -153 l211 0 l0 -757 l-209 0 l0 125 l84 0 l0 502 l-92 0 l0 -109 q0 -143 -23 -269 q-23 -126 -76 -249 l-142 0 ZM813 60 l0 534 l-118 0 l0 -534 l118 0 Z" /><glyph glyph-name="uni52A1" unicode="&#x52a1;" d="M51 418 q190 32 318 80 q-62 46 -111 101 q-77 -53 -168 -68 l0 130 q56 23 96 54 q40 31 69 72 l605 0 q-79 -178 -229 -289 q121 -46 318 -80 l0 -124 q-267 39 -449 126 q-37 -19 -83 -36 l76 0 q0 -59 -10 -108 l420 0 l-27 -376 l-265 0 l0 128 l140 0 l9 123 l-319 0 q-49 -95 -141.5 -161.5 q-92.5 -66.5 -228.5 -99.5 l0 136 q153 44 221 125 l-196 0 l0 125 l258 0 q10 45 11 90 q-136 -45 -314 -72 l0 124 ZM369 667 q58 -61 131 -105 q71 43 131 105 l-262 0 Z" /><glyph glyph-name="uni52A8" unicode="&#x52a8;" d="M401 -98 q27 43 34 56 l-383 0 l0 128 l22 0 l69 302 l-91 0 l0 126 l395 0 l0 -126 l-176 0 l-69 -302 l113 0 l-14 167 l119 0 l23 -281 q65 116 95 239 q30 123 30 257 l0 51 l-95 0 l0 128 l95 0 l0 161 l128 0 l0 -161 l236 0 l0 -745 l-217 0 l0 128 l89 0 l0 489 l-108 0 l0 -51 q0 -167 -31 -298 q-31 -131 -102 -268 l-162 0 ZM71 748 l357 0 l0 -126 l-357 0 l0 126 Z" /><glyph glyph-name="uni52A9" unicode="&#x52a9;" d="M50 46 l40 2 l0 726 l369 0 l0 -709 l32 1 l0 -102 q52 105 73.5 212.5 q21.5 107.5 21.5 239.5 l0 100 l-92 0 l0 129 l92 0 l0 161 l128 0 l0 -161 l226 0 l0 -745 l-244 0 l0 128 l116 0 l0 488 l-100 0 l0 -100 q0 -144 -24 -269 q-24 -125 -78 -247 l-154 0 l21 36 l-427 -19 l0 129 ZM335 59 l0 112 l-121 0 l0 -118 l121 6 ZM335 297 l0 123 l-121 0 l0 -123 l121 0 ZM335 546 l0 100 l-121 0 l0 -100 l121 0 Z" /><glyph glyph-name="uni52AA" unicode="&#x52aa;" d="M611 28 l140 0 l9 134 l-305 0 q-44 -100 -141 -169.5 q-97 -69.5 -243 -102.5 l0 138 q172 43 240 134 l-215 0 l0 125 l265 0 q5 33 5 63 l38 0 l-101 60 q-101 -83 -249 -100 l0 123 q79 12 136 45 l-117 71 l42 96 l-65 0 l0 115 l116 0 l21 47 l130 0 l-22 -47 l181 0 l0 -115 l-34 0 q-18 -84 -61 -148 l66 -40 l0 -107 l23 0 l0 88 q83 22 148 61 q-101 113 -126 277 l436 0 q-25 -164 -126 -277 q64 -38 148 -62 l0 -120 q-139 33 -240 102 q-91 -63 -218 -96 q0 -18 -3 -36 l414 0 l-27 -387 l-265 0 l0 128 ZM278 559 q27 37 45 86 l-82 0 l-23 -50 l60 -36 ZM645 667 q24 -50 65 -94 q39 40 65 94 l-130 0 Z" /><glyph glyph-name="uni52AB" unicode="&#x52ab;" d="M468 -89 l-423 0 l109 395 l-111 0 l0 128 l147 0 l0 155 l-128 0 l0 128 l128 0 l0 83 l130 0 l0 -83 l128 0 l0 -128 l-128 0 l0 -155 l147 0 l0 -128 l-179 0 l-74 -267 l119 0 l-20 155 l119 0 l37 -280 q54 133 75 262 q21 129 21 295 l0 96 l-90 0 l0 132 l90 0 l0 111 l130 0 l0 -111 l232 0 l0 -799 l-210 0 l0 131 l83 0 l0 536 l-109 0 l0 -96 q0 -161 -20.5 -299 q-20.5 -138 -67.5 -272 l-140 0 l5 11 Z" /><glyph glyph-name="uni52B3" unicode="&#x52b3;" d="M611 26 l145 0 l12 157 l-298 0 q-46 -107 -142 -182 q-96 -75 -240 -111 l0 137 q90 27 148.5 65.5 q58.5 38.5 91.5 90.5 l-212 0 l0 124 l259 0 q7 36 9 97 l129 0 q0 -54 -7 -97 l400 0 l-30 -407 l-265 0 l0 126 ZM60 761 l199 0 l0 49 l130 0 l0 -49 l222 0 l0 49 l130 0 l0 -49 l199 0 l0 -124 l-199 0 l0 -58 l-130 0 l0 58 l-222 0 l0 -58 l-130 0 l0 58 l-199 0 l0 124 ZM65 553 l870 0 l0 -196 l-130 0 l0 72 l-610 0 l0 -72 l-130 0 l0 196 Z" /><glyph glyph-name="uni52BF" unicode="&#x52bf;" d="M611 25 l141 0 l8 113 l-311 0 q-47 -91 -141.5 -154.5 q-94.5 -63.5 -236.5 -93.5 l0 135 q156 37 224 113 l-199 0 l0 124 l258 0 q6 32 6 68 l108 0 q40 54 67 122 q-45 4 -65 5 l0 118 q61 -4 94 -7 q5 30 6 60 l-100 0 l0 121 l110 0 l0 64 l123 0 l0 -64 l234 0 l-32 -315 l65 0 l0 -125 l-198 0 l34 319 l-118 0 q-2 -54 -7 -92 q54 -14 86 -27 l0 -124 q-39 16 -114 35 q-16 -49 -50 -114 l-111 0 q0 -16 -4 -44 l415 0 l-27 -362 l-265 0 l0 125 ZM50 562 l152 20 l0 63 l-132 0 l0 117 l132 0 l0 51 l128 0 l0 -51 l106 0 l0 -117 l-106 0 l0 -48 l106 15 l0 -124 l-106 -13 l0 -181 l-200 0 l0 117 l72 0 l0 52 l-152 -19 l0 118 Z" /><glyph glyph-name="uni52C7" unicode="&#x52c7;" d="M118 645 l159 0 l-32 35 l153 0 l32 -35 l130 0 l64 52 l-535 0 l0 103 l819 0 l-189 -155 l164 0 l0 -388 l-129 0 l0 38 l-190 0 l0 -31 l-128 0 l0 31 l-189 0 l0 -38 l-129 0 l0 388 ZM71 17 q153 29 220 85 l-195 0 l0 118 l261 0 q3 18 3 36 l133 0 q0 -12 -2 -36 l412 0 l-27 -321 l-265 0 l0 120 l141 0 l7 83 l-306 0 q-46 -78 -142 -132 q-96 -54 -240 -80 l0 127 ZM436 383 l0 41 l-189 0 l0 -41 l189 0 ZM436 511 l0 41 l-189 0 l0 -41 l189 0 ZM754 383 l0 41 l-190 0 l0 -41 l190 0 ZM754 511 l0 41 l-190 0 l0 -41 l190 0 Z" /><glyph glyph-name="uni52D2" unicode="&#x52d2;" d="M725 649 l208 0 l0 -749 l-208 0 l0 121 l83 0 l0 498 l-89 0 l0 -101 q0 -142 -23 -270 q-23 -128 -76 -248 l-141 0 q65 121 91 244 q26 123 26 274 l0 101 l-66 0 l0 130 l66 0 l0 161 l129 0 l0 -161 ZM37 140 l181 0 l0 54 l-146 0 l0 274 l146 0 l0 46 l-116 0 l0 127 l-54 0 l0 118 l54 0 l0 41 l128 0 l0 -41 l93 0 l0 41 l129 0 l0 -41 l64 0 l0 -118 l-64 0 l0 -127 l-106 0 l0 -46 l146 0 l0 -274 l-146 0 l0 -54 l171 0 l0 -122 l-171 0 l0 -118 l-128 0 l0 118 l-181 0 l0 122 ZM233 294 l0 74 l-52 0 l0 -74 l52 0 ZM323 601 l0 50 l-93 0 l0 -50 l93 0 ZM383 294 l0 74 l-52 0 l0 -74 l52 0 Z" /><glyph glyph-name="uni52E4" unicode="&#x52e4;" d="M717 810 l0 -151 l219 0 l0 -759 l-219 0 l0 130 l93 0 l0 499 l-97 0 l0 -111 q0 -146 -23 -271 q-23 -125 -76 -247 l-144 0 l15 29 l-434 -29 l0 106 l157 11 l0 52 l-147 0 l0 93 l147 0 l0 30 l-157 0 l0 93 l157 0 l0 28 l-139 0 l0 217 l141 0 l0 28 l-114 0 l0 110 l-51 0 l0 99 l51 0 l0 33 l126 0 l0 -33 l100 0 l0 33 l126 0 l0 -33 l51 0 l0 -99 l-51 0 l0 -110 l-114 0 l0 -28 l141 0 l0 -217 l-139 0 l0 -28 l157 0 l0 -93 l-157 0 l0 -30 l147 0 l0 -93 l-147 0 l0 -44 l157 11 l0 -90 q52 112 73 222 q21 110 21 250 l0 111 l-84 0 l0 130 l84 0 l0 151 l130 0 ZM222 391 l0 59 l-47 0 l0 -59 l47 0 ZM322 640 l0 31 l-100 0 l0 -31 l100 0 ZM369 391 l0 59 l-47 0 l0 -59 l47 0 Z" /><glyph glyph-name="uni52FE" unicode="&#x52fe;" d="M638 30 l137 0 l0 571 l-492 0 q-39 -111 -86 -202 l-163 0 q108 204 166 411 l146 0 q-12 -48 -22 -79 l581 0 l0 -831 l-267 0 l0 130 ZM342 534 l146 0 l-166 -341 l228 0 l-44 164 l130 0 l79 -294 l-602 0 l229 471 Z" /><glyph glyph-name="uni5305" unicode="&#x5305;" d="M728 260 l69 0 l0 373 l-539 0 q-13 -43 -30 -84 l461 0 l0 -385 l-426 0 l0 -137 l698 0 l0 -127 l-826 0 l0 565 l-104 0 q86 176 133 355 l147 0 q-9 -37 -16 -61 l628 0 l0 -627 l-195 0 l0 128 ZM565 289 l0 135 l-302 0 l0 -135 l302 0 Z" /><glyph glyph-name="uni5316" unicode="&#x5316;" d="M467 285 q-102 -46 -179 -76 l0 148 q93 37 179 78 l0 365 l132 0 l0 -300 q161 84 315 183 l0 -156 q-145 -96 -315 -180 l0 -305 l358 0 l0 -134 l-490 0 l0 377 ZM40 469 q116 133 162 331 l131 0 q-22 -133 -74 -248 l0 -657 l-130 0 l0 454 q-36 -41 -89 -86 l0 206 Z" /><glyph glyph-name="uni5317" unicode="&#x5317;" d="M574 800 l131 0 l0 -242 q125 29 245 69 l0 -139 q-98 -34 -245 -65 l0 -385 l255 0 l0 -130 l-386 0 l0 892 ZM40 142 l255 63 l0 244 l-245 0 l0 131 l245 0 l0 220 l131 0 l0 -900 l-131 0 l0 172 l-255 -63 l0 133 Z" /><glyph glyph-name="uni5339" unicode="&#x5339;" d="M86 789 l861 0 l0 -129 l-210 0 l0 -349 l164 0 l0 -130 l-293 0 l0 479 l-113 0 l0 -197 q0 -125 -65.5 -211.5 q-65.5 -86.5 -186.5 -122.5 l0 150 q68 31 95.5 74.5 q27.5 43.5 27.5 113.5 l0 193 l-148 0 l0 -620 l729 0 l0 -129 l-861 0 l0 878 Z" /><glyph glyph-name="uni533A" unicode="&#x533a;" d="M86 777 l861 0 l0 -128 l-732 0 l0 -598 l732 0 l0 -128 l-861 0 l0 854 ZM249 205 q146 56 240 116 q-132 129 -192 301 l153 0 q52 -130 146 -218 q95 87 147 218 l153 0 q-60 -172 -192 -301 q94 -60 240 -116 l0 -141 q-202 64 -347 168 q-147 -104 -348 -168 l0 141 Z" /><glyph glyph-name="uni533B" unicode="&#x533b;" d="M86 789 l861 0 l0 -128 l-732 0 l0 -622 l732 0 l0 -128 l-861 0 l0 878 ZM242 396 l280 0 l-1 92 l-107 0 q-15 -38 -32 -67 l-132 0 q62 109 83 221 l121 0 l-6 -34 l445 0 l0 -120 l-245 0 l0 -92 l279 0 l0 -120 l-214 0 q34 -39 85 -65 q51 -26 130 -46 l0 -125 q-133 31 -214.5 79.5 q-81.5 48.5 -127.5 120.5 q-46 -72 -127.5 -120.5 q-81.5 -48.5 -214.5 -79.5 l0 125 q79 20 130 46 q51 26 85 65 l-217 0 l0 120 Z" /><glyph glyph-name="uni533F" unicode="&#x533f;" d="M947 789 l0 -122 l-732 0 l0 -634 l732 0 l0 -122 l-861 0 l0 878 l861 0 ZM248 285 q73 24 124 60 l-116 0 l0 108 l210 0 q6 12 13 28 l-58 0 l0 34 l-157 0 l0 110 l157 0 l0 27 l99 0 l0 -27 l161 0 l0 27 l99 0 l0 -27 l157 0 l0 -110 l-157 0 l0 -34 l-99 0 l0 34 l-161 0 l0 -24 l87 0 q-8 -26 -13 -38 l351 0 l0 -108 l-412 0 q-15 -19 -32 -38 l393 0 l0 -250 l-524 0 l0 154 q-59 -29 -122 -47 l0 121 ZM795 152 l0 55 l-325 0 l0 -55 l325 0 Z" /><glyph glyph-name="uni5341" unicode="&#x5341;" d="M430 311 l-380 0 l0 142 l379 0 l0 357 l142 0 l0 -357 l379 0 l0 -142 l-379 0 l0 -421 l-141 0 l0 421 Z" /><glyph glyph-name="uni5343" unicode="&#x5343;" d="M110 761 q383 0 780 47 l0 -130 q-181 -22 -322 -31 l0 -240 l385 0 l0 -131 l-385 0 l0 -376 l-136 0 l0 376 l-385 0 l0 131 l385 0 l0 231 q-150 -7 -322 -7 l0 130 Z" /><glyph glyph-name="uni5347" unicode="&#x5347;" d="M83 -100 q79 97 115 200 q36 103 42 220 l-190 0 l0 126 l191 0 l0 207 q-50 -5 -145 -11 l0 124 q219 13 415 51 l0 -124 q-72 -14 -140 -24 l0 -223 l279 0 l0 374 l129 0 l0 -374 l171 0 l0 -126 l-171 0 l0 -420 l-129 0 l0 420 l-280 0 q-5 -125 -32.5 -224 q-27.5 -99 -88.5 -196 l-166 0 Z" /><glyph glyph-name="uni534A" unicode="&#x534a;" d="M435 125 l-395 0 l0 126 l395 0 l0 164 l-346 0 l0 126 l346 0 l0 274 l130 0 l0 -274 l346 0 l0 -126 l-346 0 l0 -164 l395 0 l0 -126 l-395 0 l0 -225 l-130 0 l0 225 ZM233 790 l60 -214 l-133 0 l-60 214 l133 0 ZM767 790 l133 0 l-60 -214 l-133 0 l60 214 Z" /><glyph glyph-name="uni534E" unicode="&#x534e;" d="M296 525 q116 39 205 74 l0 201 l130 0 l0 -148 q155 68 275 131 l0 -144 q-126 -67 -275 -129 l0 -86 l319 0 l0 -128 l-449 0 l0 163 q-84 -32 -205 -71 l0 137 ZM40 566 q123 86 175 234 l130 0 q-28 -104 -75 -179 l0 -370 l-130 0 l0 224 q-43 -35 -100 -63 l0 154 ZM50 175 l383 0 l0 88 l134 0 l0 -88 l383 0 l0 -127 l-383 0 l0 -148 l-134 0 l0 148 l-383 0 l0 127 Z" /><glyph glyph-name="uni534F" unicode="&#x534f;" d="M326 -100 q80 138 111 269.5 q31 131.5 31 301.5 l0 95 l-97 0 l0 130 l97 0 l0 104 l130 0 l0 -104 l207 0 l0 -796 l-209 0 l0 131 l83 0 l0 535 l-85 0 l0 -95 q0 -160 -28 -298 q-28 -138 -92 -273 l-148 0 ZM30 589 l98 0 l0 211 l130 0 l0 -211 l98 0 l0 -87 l66 0 q-6 -209 -49 -396 l-101 0 q43 175 53 353 l-67 0 l0 -559 l-130 0 l0 559 l-98 0 l0 130 ZM936 574 q32 -234 32 -524 l-103 0 q0 256 -32 524 l103 0 Z" /><glyph glyph-name="uni5351" unicode="&#x5351;" d="M420 763 l14 57 l132 0 l-14 -57 l337 0 l0 -509 l-457 0 l-116 -101 l-169 0 l116 101 l-152 0 l0 509 l309 0 ZM40 131 l577 0 l0 97 l132 0 l0 -97 l211 0 l0 -128 l-211 0 l0 -103 l-132 0 l0 103 l-577 0 l0 128 ZM436 378 l0 72 l-196 0 l0 -72 l196 0 ZM436 567 l0 72 l-196 0 l0 -72 l196 0 ZM760 378 l0 72 l-196 0 l0 -72 l196 0 ZM760 567 l0 72 l-196 0 l0 -72 l196 0 Z" /><glyph glyph-name="uni5353" unicode="&#x5353;" d="M380 615 l0 205 l132 0 l0 -44 l407 0 l0 -110 l-407 0 l0 -51 l361 0 l0 -421 l-307 0 l0 -75 l393 0 l0 -118 l-393 0 l0 -101 l-132 0 l0 101 l-393 0 l0 118 l393 0 l0 75 l-307 0 l0 421 l253 0 ZM743 299 l0 54 l-486 0 l0 -54 l486 0 ZM743 456 l0 54 l-486 0 l0 -54 l486 0 Z" /><glyph glyph-name="uni5355" unicode="&#x5355;" d="M238 754 l-24 66 l136 0 l24 -66 l252 0 l24 66 l136 0 l-24 -66 l137 0 l0 -516 l-333 0 l0 -87 l401 0 l0 -128 l-401 0 l0 -123 l-132 0 l0 123 l-401 0 l0 128 l401 0 l0 87 l-333 0 l0 516 l137 0 ZM436 362 l0 76 l-206 0 l0 -76 l206 0 ZM436 556 l0 74 l-206 0 l0 -74 l206 0 ZM770 362 l0 76 l-206 0 l0 -76 l206 0 ZM770 556 l0 74 l-206 0 l0 -74 l206 0 Z" /><glyph glyph-name="uni5356" unicode="&#x5356;" d="M812 499 l-741 0 l0 119 l363 0 l0 45 l-297 0 l0 112 l297 0 l0 45 l132 0 l0 -45 l297 0 l0 -112 l-297 0 l0 -45 l372 0 l0 -204 l-126 0 l0 85 ZM50 241 l521 0 l0 230 l128 0 l0 -230 l251 0 l0 -122 l-250 0 l240 -103 l0 -125 l-307 132 q-246 -88 -561 -133 l0 133 q220 26 463 96 l-485 0 l0 122 ZM108 385 l283 -37 l0 -94 l-283 37 l0 94 ZM244 489 l283 -37 l0 -94 l-283 37 l0 94 Z" /><glyph glyph-name="uni5357" unicode="&#x5357;" d="M67 568 l367 0 l0 70 l-400 0 l0 124 l400 0 l0 58 l132 0 l0 -58 l400 0 l0 -124 l-400 0 l0 -70 l367 0 l0 -668 l-128 0 l0 546 l-610 0 l0 -546 l-128 0 l0 668 ZM221 158 l215 0 l0 62 l-205 0 l0 120 l84 0 l-29 77 l128 0 l29 -77 l114 0 l29 77 l128 0 l-29 -77 l84 0 l0 -120 l-205 0 l0 -62 l215 0 l0 -122 l-215 0 l0 -128 l-128 0 l0 128 l-215 0 l0 122 Z" /><glyph glyph-name="uni535A" unicode="&#x535a;" d="M347 628 l218 0 l0 35 l-244 0 l0 102 l244 0 l0 40 l128 0 l0 -44 l46 0 l-7 39 l116 0 l8 -39 l90 0 l0 -98 l-253 0 l0 -35 l222 0 l0 -381 l-127 0 l0 47 l-98 0 l0 -47 l-122 0 l0 47 l-94 0 l0 -47 l-127 0 l0 381 ZM35 580 l74 0 l0 220 l123 0 l0 -220 l75 0 l0 -113 l-75 0 l0 -567 l-123 0 l0 567 l-74 0 l0 113 ZM284 203 l449 0 l0 29 l129 0 l0 -29 l94 0 l0 -104 l-94 0 l0 -199 l-206 0 l0 120 l77 0 l0 79 l-449 0 l0 104 ZM545 74 l67 -162 l-139 0 l-68 162 l140 0 ZM568 370 l0 43 l-94 0 l0 -43 l94 0 ZM568 489 l0 45 l-94 0 l0 -45 l94 0 ZM788 370 l0 43 l-98 0 l0 -43 l98 0 ZM788 489 l0 45 l-98 0 l0 -45 l98 0 Z" /><glyph glyph-name="uni5360" unicode="&#x5360;" d="M899 -84 l-798 0 l0 528 l307 0 l0 376 l132 0 l0 -113 l416 0 l0 -127 l-416 0 l0 -136 l359 0 l0 -528 ZM768 46 l0 270 l-536 0 l0 -270 l536 0 Z" /><glyph glyph-name="uni5361" unicode="&#x5361;" d="M280 323 l-240 0 l0 132 l240 0 l0 345 l136 0 l0 -90 l408 0 l0 -129 l-408 0 l0 -126 l544 0 l0 -132 l-544 0 l0 -423 l-136 0 l0 423 ZM693 266 l182 -355 l-142 0 l-182 355 l142 0 Z" /><glyph glyph-name="uni536B" unicode="&#x536b;" d="M613 350 l141 0 l15 287 l-272 0 l0 -580 l463 0 l0 -132 l-920 0 l0 132 l321 0 l0 580 l-273 0 l0 132 l820 0 l-29 -549 l-266 0 l0 130 Z" /><glyph glyph-name="uni5370" unicode="&#x5370;" d="M508 776 l423 0 l0 -803 l-235 0 l0 128 l109 0 l0 546 l-170 0 l0 -747 l-127 0 l0 876 ZM70 769 q195 0 400 40 l0 -129 q-131 -28 -272 -37 l0 -208 l224 0 l0 -128 l-224 0 l0 -237 l261 0 l0 -130 l-389 0 l0 829 Z" /><glyph glyph-name="uni5371" unicode="&#x5371;" d="M30 -100 q60 111 84 216.5 q24 105.5 24 242.5 l0 149 q-36 -19 -72 -32 l0 141 q104 68 157 183 l604 0 q-35 -114 -88 -202 l211 0 l0 -128 l-685 0 l0 -111 q0 -130 -19.5 -241 q-19.5 -111 -64.5 -218 l-151 0 ZM591 598 q28 42 46 77 l-330 0 q-24 -42 -56 -77 l340 0 ZM333 411 l547 0 l0 -328 l-254 0 l0 119 l126 0 l0 88 l-291 0 l0 -266 l499 0 l0 -124 l-627 0 l0 511 Z" /><glyph glyph-name="uni5373" unicode="&#x5373;" d="M555 783 l376 0 l0 -794 l-218 0 l0 128 l96 0 l0 538 l-130 0 l0 -755 l-124 0 l0 883 ZM72 786 l418 0 l0 -512 l-291 0 l0 -202 l136 40 l-36 120 l127 0 l100 -332 l-127 0 l-27 89 l-300 -88 l0 885 ZM364 392 l0 80 l-165 0 l0 -80 l165 0 ZM364 588 l0 80 l-165 0 l0 -80 l165 0 Z" /><glyph glyph-name="uni5374" unicode="&#x5374;" d="M581 776 l369 0 l0 -771 l-205 0 l0 128 l81 0 l0 515 l-117 0 l0 -748 l-128 0 l0 876 ZM184 301 l-135 0 l0 129 l190 0 l0 157 l-168 0 l0 130 l168 0 l0 83 l130 0 l0 -83 l169 0 l0 -130 l-169 0 l0 -157 l190 0 l0 -129 l-229 0 l-90 -260 l150 0 l-29 153 l131 0 l55 -283 l-498 0 l135 390 Z" /><glyph glyph-name="uni5377" unicode="&#x5377;" d="M236 236 q-77 -84 -196 -132 l0 132 q118 55 169 171 l-159 0 l0 119 l386 0 l0 64 l-335 0 l0 119 l104 0 l-27 91 l123 0 l27 -91 l108 0 l0 101 l128 0 l0 -101 l108 0 l27 91 l123 0 l-27 -91 l104 0 l0 -119 l-335 0 l0 -64 l386 0 l0 -119 l-159 0 q51 -116 169 -171 l0 -132 q-139 56 -222 163 l15 -209 l-255 0 l0 102 l127 0 l-6 65 l-256 0 l-32 -209 l578 0 l0 -116 l-727 0 l54 336 ZM694 337 q-15 30 -30 70 l-328 0 q-15 -40 -30 -70 l388 0 Z" /><glyph glyph-name="uni5378" unicode="&#x5378;" d="M727 114 l71 0 l0 541 l-104 0 l0 -755 l-128 0 l0 884 l360 0 l0 -798 l-199 0 l0 128 ZM30 48 l42 3 l0 299 l117 0 l0 -291 l65 4 l0 343 l-215 0 l0 124 l211 0 l0 103 l-64 0 l-14 -64 l-132 0 l49 231 l132 0 l-9 -43 l302 0 l0 -124 l-134 0 l0 -103 l155 0 l0 -124 l-155 0 l0 -96 l131 0 l0 -120 l-131 0 l0 -118 l155 10 l0 -128 l-505 -34 l0 128 Z" /><glyph glyph-name="uni5382" unicode="&#x5382;" d="M30 -100 q60 119 84 231.5 q24 112.5 24 257.5 l0 372 l812 0 l0 -136 l-675 0 l0 -236 q0 -139 -19.5 -257 q-19.5 -118 -64.5 -232 l-161 0 Z" /><glyph glyph-name="uni5385" unicode="&#x5385;" d="M30 -100 q48 119 67 231.5 q19 112.5 19 257.5 l0 385 l834 0 l0 -128 l-706 0 l0 -257 q0 -139 -16 -257 q-16 -118 -53 -232 l-145 0 ZM303 540 l647 0 l0 -127 l-248 0 l0 -513 l-238 0 l0 128 l109 0 l0 385 l-270 0 l0 127 Z" /><glyph glyph-name="uni5386" unicode="&#x5386;" d="M30 -100 q53 119 74 231.5 q21 112.5 21 257.5 l0 380 l825 0 l0 -129 l-696 0 l0 -251 q0 -138 -17.5 -256.5 q-17.5 -118.5 -57.5 -232.5 l-149 0 ZM269 28 q92 37 136.5 110 q44.5 73 44.5 195 l0 21 l-157 0 l0 128 l157 0 l0 128 l128 0 l0 -128 l356 0 l0 -582 l-263 0 l0 128 l135 0 l0 326 l-228 0 l0 -25 q0 -163 -78.5 -277 q-78.5 -114 -230.5 -162 l0 138 Z" /><glyph glyph-name="uni5389" unicode="&#x5389;" d="M23 -100 q53 119 74 231.5 q21 112.5 21 257.5 l0 384 l832 0 l0 -126 l-703 0 l0 -258 q0 -138 -17.5 -256.5 q-17.5 -118.5 -57.5 -232.5 l-149 0 ZM239 36 q89 38 125 108 q36 70 36 189 l0 111 l-107 0 l0 124 l657 0 l0 -124 l-422 0 l0 -94 l390 0 l0 -450 l-263 0 l0 126 l135 0 l0 200 l-269 0 q-18 -128 -86.5 -212 q-68.5 -84 -195.5 -124 l0 146 Z" /><glyph glyph-name="uni538B" unicode="&#x538b;" d="M47 -100 q35 119 49 231.5 q14 112.5 14 257.5 l0 392 l840 0 l0 -126 l-711 0 l0 -266 q0 -140 -12.5 -258 q-12.5 -118 -41.5 -231 l-138 0 ZM241 43 l287 0 l0 299 l-262 0 l0 126 l262 0 l0 165 l128 0 l0 -165 l269 0 l0 -126 l-269 0 l0 -299 l294 0 l0 -127 l-709 0 l0 127 ZM852 271 l40 -195 l-120 0 l-40 195 l120 0 Z" /><glyph glyph-name="uni538C" unicode="&#x538c;" d="M47 -100 q35 119 49 231.5 q14 112.5 14 257.5 l0 392 l840 0 l0 -126 l-711 0 l0 -266 q0 -140 -12.5 -258 q-12.5 -118 -41.5 -231 l-138 0 ZM267 -101 q77 78 125.5 144 q48.5 66 77 138.5 q28.5 72.5 38.5 163.5 l-221 0 l0 126 l227 0 l0 163 l128 0 l0 -163 l287 0 l0 -126 l-292 0 q-1 -22 -7 -62 l114 0 l214 -383 l-144 0 l-191 342 q-19 -90 -61 -172 q-42 -82 -116 -171 l-179 0 ZM846 620 l32 -122 l-125 0 l-32 122 l125 0 Z" /><glyph glyph-name="uni5398" unicode="&#x5398;" d="M944 784 l0 -124 l-720 0 l0 -271 q0 -140 -12.5 -258 q-12.5 -118 -41.5 -231 l-135 0 q35 119 49 231.5 q14 112.5 14 257.5 l0 395 l846 0 ZM247 13 l290 0 l0 44 l-261 0 l0 107 l261 0 l0 45 l-242 0 l0 412 l611 0 l0 -412 l-241 0 l0 -45 l261 0 l0 -107 l-261 0 l0 -44 l289 0 l0 -108 l-707 0 l0 108 ZM539 312 l0 55 l-121 0 l0 -55 l121 0 ZM539 465 l0 54 l-121 0 l0 -54 l121 0 ZM783 312 l0 55 l-121 0 l0 -55 l121 0 ZM783 465 l0 54 l-121 0 l0 -54 l121 0 Z" /><glyph glyph-name="uni539F" unicode="&#x539f;" d="M950 790 l0 -121 l-296 0 l0 -54 l238 0 l0 -407 l-234 0 l0 -308 l-117 0 l0 308 l-242 0 l0 407 l231 0 l0 54 l-311 0 l0 -280 q0 -140 -12.5 -258 q-12.5 -118 -41.5 -231 l-135 0 q35 119 49 231.5 q14 112.5 14 257.5 l0 401 l857 0 ZM268 -91 q47 139 47 266 l116 0 q0 -139 -38 -266 l-125 0 ZM766 312 l0 52 l-341 0 l0 -52 l341 0 ZM766 458 l0 52 l-341 0 l0 -52 l341 0 ZM884 175 q0 -127 47 -266 l-125 0 q-38 127 -38 266 l116 0 Z" /><glyph glyph-name="uni53A8" unicode="&#x53a8;" d="M947 783 l0 -118 l-734 0 l0 -276 q0 -140 -12.5 -258 q-12.5 -118 -41.5 -231 l-132 0 q35 119 49 231.5 q14 112.5 14 257.5 l0 394 l857 0 ZM243 16 l210 16 l21 155 l121 0 l-20 -146 l54 4 l0 -115 l-386 -30 l0 116 ZM251 621 l353 0 l0 -110 l-353 0 l0 110 ZM266 466 l331 0 l0 -250 l-331 0 l0 250 ZM392 187 l18 -135 l-121 0 l-18 135 l121 0 ZM476 313 l0 56 l-90 0 l0 -56 l90 0 ZM619 531 l162 0 l0 114 l124 0 l0 -114 l59 0 l0 -124 l-59 0 l0 -507 l-209 0 l0 124 l85 0 l0 383 l-162 0 l0 124 ZM728 364 l40 -247 l-97 0 l-40 247 l97 0 Z" /><glyph glyph-name="uni53BB" unicode="&#x53bb;" d="M87 44 l89 0 l148 253 l-274 0 l0 129 l384 0 l0 161 l-335 0 l0 128 l335 0 l0 95 l132 0 l0 -95 l335 0 l0 -128 l-335 0 l0 -161 l384 0 l0 -129 l-465 0 l-148 -253 l387 0 l-51 117 l155 0 l108 -246 l-849 0 l0 129 Z" /><glyph glyph-name="uni53BF" unicode="&#x53bf;" d="M87 31 l108 0 l74 94 l-229 0 l0 116 l110 0 l0 548 l700 0 l0 -548 l110 0 l0 -116 l-527 0 l-74 -94 l348 0 l-34 65 l155 0 l98 -188 l-839 0 l0 123 ZM720 241 l0 73 l-440 0 l0 -73 l440 0 ZM720 427 l0 68 l-440 0 l0 -68 l440 0 ZM720 608 l0 68 l-440 0 l0 -68 l440 0 Z" /><glyph glyph-name="uni53C2" unicode="&#x53c2;" d="M60 6 q444 32 879 106 l0 -117 q-385 -75 -879 -105 l0 116 ZM40 289 q97 40 148 119 l-138 0 l0 120 l384 0 l0 48 l-337 0 l0 116 l117 0 l127 128 l173 0 l-127 -128 l294 0 l-47 69 l160 0 l126 -185 l-354 0 l0 -48 l384 0 l0 -120 l-132 0 q49 -72 142 -110 l0 -139 q-50 17 -96 44 l0 -45 q-345 -61 -759 -91 l0 110 q338 25 684 79 q-46 41 -78 90 l0 -54 q-213 -37 -483 -58 l0 37 q-75 -72 -188 -112 l0 130 ZM289 346 q232 23 395 50 l-6 12 l-356 0 q-13 -29 -33 -62 Z" /><glyph glyph-name="uni53C8" unicode="&#x53c8;" d="M956 -107 q-274 59 -456 183 q-182 -124 -456 -183 l0 141 q210 54 344 135 q-174 169 -251 453 l-77 0 l0 130 l833 0 q-35 -191 -104.5 -335 q-69.5 -144 -176.5 -248 q134 -81 344 -135 l0 -141 ZM282 622 q35 -119 88.5 -210 q53.5 -91 129.5 -160 q76 69 129.5 160 q53.5 91 88.5 210 l-436 0 Z" /><glyph glyph-name="uni53CA" unicode="&#x53ca;" d="M428 -100 q116 113 192 209 l-197 126 l0 147 l269 -173 q72 112 109 223 l-190 0 l51 222 l-341 0 l0 -222 q0 -143 -28.5 -279.5 q-28.5 -136.5 -93.5 -252.5 l-156 0 q82 122 115 251.5 q33 129.5 33 280.5 l0 222 l-117 0 l0 125 l744 0 l-52 -227 l200 0 q-28 -122 -68 -222 q-40 -100 -98 -190 l160 -103 l0 -147 l-232 149 q-47 -61 -121 -139 l-179 0 Z" /><glyph glyph-name="uni53CB" unicode="&#x53cb;" d="M930 -112 q-190 45 -327 140 q-137 -95 -327 -140 l0 138 q128 35 221 91 q-135 138 -177 340 q-59 -284 -146 -557 l-143 0 q112 308 185 699 l-166 0 l0 126 l188 0 q6 31 16 95 l131 0 l-15 -95 l580 0 l0 -126 l-603 0 q-12 -66 -19 -99 l566 0 q-36 -231 -185 -383 q93 -56 221 -91 l0 -138 ZM475 378 q46 -107 128 -183 q82 76 128 183 l-256 0 Z" /><glyph glyph-name="uni53CC" unicode="&#x53cc;" d="M968 -116 q-158 71 -253 192 q-99 -118 -245 -181 l0 148 q103 54 170 151 q-45 87 -74 195 q-29 108 -51 249 l6 1 l-25 0 l0 131 l453 0 l-20 -131 l-6 0 l6 -1 q-26 -141 -58 -251 q-32 -110 -82 -201 q65 -98 178 -154 l1 -148 ZM46 38 q105 65 168 162 q-46 85 -72 192 q-26 107 -41 247 l-37 0 l0 131 l416 0 l-6 -131 q-14 -130 -40 -239 q-26 -109 -74 -203 q39 -45 97 -85 l0 -154 q-98 56 -165 130 q-96 -127 -246 -205 l0 155 ZM231 639 q9 -111 19 -178 q10 -67 31 -126 q25 69 37.5 143.5 q12.5 74.5 18.5 160.5 l-106 0 ZM664 575 q18 -93 28 -138 q10 -45 24 -91 q23 64 38 134.5 q15 70.5 28 158.5 l-130 0 l12 -64 Z" /><glyph glyph-name="uni53CD" unicode="&#x53cd;" d="M930 -112 q-192 47 -327 142 q-135 -95 -327 -142 l0 136 q131 37 223 94 q-108 111 -158 266 l-101 0 l0 -22 q0 -130 -14.5 -241 q-14.5 -111 -49.5 -221 l-141 0 q42 106 59 218 q17 112 17 244 l0 404 q388 0 788 47 l0 -129 q-327 -40 -659 -46 l0 -128 l654 0 q-36 -237 -187 -392 q92 -57 223 -94 l0 -136 ZM475 384 q45 -107 128 -187 q83 80 128 187 l-256 0 Z" /><glyph glyph-name="uni53D1" unicode="&#x53d1;" d="M30 -100 q149 298 257 619 l-218 0 l82 274 l132 0 l-45 -149 l90 0 q22 68 53 176 l141 0 q-9 -32 -18 -60 q-9 -28 -16 -52 l-20 -64 l482 0 l0 -125 l-523 0 q-10 -32 -25 -73 l-7 -19 l499 0 q-35 -197 -178 -331 q101 -53 228 -82 l0 -126 q-199 43 -334 127 q-135 -84 -334 -127 l0 126 q127 29 228 82 q-102 96 -148 221 q-82 -221 -173 -417 l-153 0 ZM496 307 q42 -80 114 -140 q72 60 114 140 l-228 0 ZM787 805 l39 -141 l-130 0 l-39 141 l130 0 Z" /><glyph glyph-name="uni53D6" unicode="&#x53d6;" d="M47 77 l39 6 l0 576 l-39 0 l0 127 l439 0 l0 -127 l-37 0 l-4 -755 l-120 0 l0 86 l-278 -43 l0 130 ZM325 120 l0 94 l-115 0 l0 -112 l115 18 ZM325 338 l0 109 l-115 0 l0 -109 l115 0 ZM325 571 l0 88 l-115 0 l0 -88 l115 0 ZM482 47 q101 71 171 177 q-89 171 -118 398 l-32 0 l0 128 l421 0 q-19 -309 -132 -527 q70 -107 169 -176 l0 -159 q-143 88 -239 222 q-98 -135 -240 -222 l0 159 ZM651 622 q23 -148 72 -266 q49 116 73 266 l-145 0 Z" /><glyph glyph-name="uni53D7" unicode="&#x53d7;" d="M937 -105 q-263 29 -437 104 q-174 -75 -437 -104 l0 124 q172 21 295 57 q-136 95 -209 239 l-99 0 l0 210 l126 0 l-34 113 l139 0 l34 -113 l139 0 l-34 113 l138 0 l34 -113 l100 0 l34 123 l136 0 l-34 -123 l122 0 l0 -210 l-99 0 q-73 -144 -209 -239 q123 -36 295 -57 l0 -124 ZM97 781 q263 0 440 6.5 q177 6.5 367 24.5 l0 -123 q-183 -18 -360.5 -24.5 q-177.5 -6.5 -446.5 -6.5 l0 123 ZM238 344 l524 0 l59 -1 l0 62 l-642 0 l0 -62 l59 1 ZM365 230 q56 -59 135 -103 q79 44 135 103 l-270 0 Z" /><glyph glyph-name="uni53D8" unicode="&#x53d8;" d="M950 -105 q-270 29 -450 104 q-180 -75 -450 -104 l0 127 q189 22 302 56 q-151 101 -232 272 l760 0 q-81 -171 -232 -272 q113 -34 302 -56 l0 -127 ZM40 538 q122 15 238 64 l0 -127 q-100 -42 -238 -58 l0 121 ZM58 767 l376 0 l0 52 l132 0 l0 -52 l376 0 l0 -126 l-259 0 l0 -263 l-127 0 l0 263 l-112 0 l0 -263 l-127 0 l0 263 l-259 0 l0 126 ZM354 234 q62 -62 146 -107 q84 45 146 107 l-292 0 ZM722 602 q116 -49 238 -64 l0 -121 q-138 16 -238 58 l0 127 Z" /><glyph glyph-name="uni53E0" unicode="&#x53e0;" d="M40 5 l110 0 l0 193 l-105 0 l0 177 l12 0 l0 73 q56 6 106 15 q-80 54 -106 135 l55 0 l0 79 q100 4 185 12 q-106 43 -141 111 l688 0 q-35 -68 -141 -111 q85 -8 185 -12 l0 -79 l55 0 q-26 -81 -106 -135 q50 -9 106 -15 l0 -73 l12 0 l0 -177 l-105 0 l0 -193 l110 0 l0 -104 l-920 0 l0 104 ZM450 375 q-95 10 -174 35 q-81 -25 -175 -35 l349 0 ZM494 598 q-26 -81 -106 -135 q50 -9 106 -15 l0 -73 l12 0 l0 73 q56 6 106 15 q-80 54 -106 135 l360 0 q-216 11 -366 36 q-150 -25 -366 -36 l360 0 ZM825 257 l0 23 l-650 0 l0 -23 l650 0 ZM210 536 q27 -22 65 -40 q39 17 66 40 l-131 0 ZM720 -12 l0 22 l-440 0 l0 -22 l440 0 ZM720 72 l0 22 l-440 0 l0 -22 l440 0 ZM720 156 l0 23 l-440 0 l0 -23 l440 0 ZM406 738 q45 -19 94 -32 q49 13 94 32 l-188 0 ZM899 375 q-95 10 -174 35 q-81 -25 -175 -35 l349 0 ZM659 536 q27 -22 65 -40 q39 17 66 40 l-131 0 Z" /><glyph glyph-name="uni53E3" unicode="&#x53e3;" d="M902 762 l0 -824 l-804 0 l0 824 l804 0 ZM764 76 l0 550 l-528 0 l0 -550 l528 0 Z" /><glyph glyph-name="uni53E4" unicode="&#x53e4;" d="M886 -84 l-772 0 l0 482 l320 0 l0 168 l-399 0 l0 125 l399 0 l0 129 l132 0 l0 -129 l399 0 l0 -125 l-399 0 l0 -168 l320 0 l0 -482 ZM755 45 l0 225 l-510 0 l0 -225 l510 0 Z" /><glyph glyph-name="uni53E5" unicode="&#x53e5;" d="M300 176 l231 0 l0 192 l-231 1 l0 -193 ZM34 394 q108 204 166 411 l146 0 l-22 -81 l584 0 l0 -824 l-250 0 l0 130 l121 0 l0 566 l-496 0 q-17 -48 -39 -100 l413 0 l0 -448 l-483 0 l0 346 l-140 0 Z" /><glyph glyph-name="uni53E6" unicode="&#x53e6;" d="M369 319 q10 36 13 81 l-238 0 l0 389 l712 0 l0 -389 l-344 0 q-1 -42 -9 -81 l403 0 l-30 -419 l-265 0 l0 126 l145 0 l12 169 l-305 0 q-53 -112 -158 -189 q-105 -77 -255 -116 l0 139 q180 54 261 166 l-225 0 l0 124 l283 0 ZM727 523 l0 143 l-454 0 l0 -143 l454 0 Z" /><glyph glyph-name="uni53EA" unicode="&#x53ea;" d="M147 762 l0 -561 l706 0 l0 561 l-706 0 ZM50 26 q171 49 378 138 l0 -137 q-165 -74 -378 -135 l0 134 ZM278 634 l444 0 l0 -304 l-444 0 l0 304 ZM572 164 q207 -89 378 -138 l0 -134 q-213 61 -378 135 l0 137 Z" /><glyph glyph-name="uni53EB" unicode="&#x53eb;" d="M410 770 l0 -786 l-334 0 l0 786 l334 0 ZM293 114 l0 526 l-99 0 l0 -526 l99 0 ZM472 149 l44 8 l0 617 l128 0 l0 -594 l142 25 l0 595 l128 0 l0 -900 l-128 0 l0 174 l-314 -56 l0 131 Z" /><glyph glyph-name="uni53EC" unicode="&#x53ec;" d="M915 790 l-20 -416 l-259 0 l0 127 l134 0 l10 161 l-357 0 q-37 -120 -114 -204 q-77 -84 -191 -127 l769 0 l0 -421 l-774 0 l0 419 q-30 -12 -73 -22 l0 134 q92 25 155.5 81 q63.5 56 95.5 140 l-208 0 l0 128 l832 0 ZM756 35 l0 170 l-512 0 l0 -170 l512 0 Z" /><glyph glyph-name="uni53EF" unicode="&#x53ef;" d="M617 560 l0 -480 l-484 0 l0 480 l484 0 ZM42 775 l916 0 l0 -129 l-85 0 l0 -748 l-278 0 l0 129 l149 0 l0 619 l-702 0 l0 129 ZM489 208 l0 223 l-228 0 l0 -223 l228 0 Z" /><glyph glyph-name="uni53F0" unicode="&#x53f0;" d="M873 -86 l-746 0 l0 425 l746 0 l0 -425 ZM87 548 l88 0 l174 252 l170 0 l-174 -252 l356 0 l-65 127 l160 0 l130 -255 l-839 0 l0 128 ZM742 39 l0 174 l-484 0 l0 -174 l484 0 Z" /><glyph glyph-name="uni53F2" unicode="&#x53f2;" d="M564 820 l0 -65 l354 0 l0 -402 l-357 0 q-11 -94 -46 -166 l435 -154 l0 -138 l-510 181 q-67 -73 -166 -118 q-99 -45 -224 -63 l0 138 q148 19 245 94 l-180 64 l0 138 l273 -97 q32 58 42 121 l-348 0 l0 402 l354 0 l0 65 l128 0 ZM436 475 l0 158 l-224 0 l0 -158 l224 0 ZM788 475 l0 158 l-224 0 l0 -158 l224 0 Z" /><glyph glyph-name="uni53F3" unicode="&#x53f3;" d="M478 820 q-5 -51 -12 -98 l484 0 l0 -128 l-515 0 q-25 -82 -61 -153 l520 0 l0 -527 l-648 0 l0 337 q-88 -100 -206 -169 l0 160 q180 138 259 352 l-249 0 l0 128 l285 0 q10 44 16 98 l127 0 ZM764 43 l0 269 l-388 0 l0 -269 l388 0 Z" /><glyph glyph-name="uni53F6" unicode="&#x53f6;" d="M405 770 l0 -790 l-328 0 l0 790 l328 0 ZM282 108 l0 534 l-82 0 l0 -534 l82 0 ZM436 483 l201 0 l0 325 l132 0 l0 -325 l201 0 l0 -133 l-201 0 l0 -458 l-132 0 l0 458 l-201 0 l0 133 Z" /><glyph glyph-name="uni53F7" unicode="&#x53f7;" d="M856 794 l0 -316 l-712 0 l0 316 l712 0 ZM40 425 l920 0 l0 -122 l-607 0 l-15 -63 l503 0 l-20 -340 l-317 0 l0 128 l186 0 l6 92 l-521 0 l42 183 l-177 0 l0 122 ZM725 587 l0 97 l-450 0 l0 -97 l450 0 Z" /><glyph glyph-name="uni53F8" unicode="&#x53f8;" d="M675 409 l0 -418 l-570 0 l0 418 l570 0 ZM40 595 l700 0 l0 -123 l-700 0 l0 123 ZM96 787 l833 0 l0 -887 l-226 0 l0 128 l98 0 l0 631 l-705 0 l0 128 ZM547 117 l0 166 l-314 0 l0 -166 l314 0 Z" /><glyph glyph-name="uni5403" unicode="&#x5403;" d="M625 30 l336 0 l0 -130 l-591 0 l326 443 l-250 0 l0 129 l505 0 l-326 -442 ZM58 772 l330 0 l0 -794 l-330 0 l0 794 ZM274 110 l0 530 l-102 0 l0 -530 l102 0 ZM399 489 q58 156 81 311 l128 0 q-4 -36 -12 -73 l363 0 l0 -128 l-391 0 q-13 -53 -35 -110 l-134 0 Z" /><glyph glyph-name="uni5404" unicode="&#x5404;" d="M860 793 q-79 -186 -230 -301 q128 -52 319 -86 l0 -126 q-265 40 -449 131 q-151 -76 -367 -117 q-46 -9 -82 -14 l0 126 q191 34 319 86 q-69 54 -119 114 q-73 -50 -161 -66 l0 122 q107 45 165 131 l605 0 ZM133 294 l734 0 l0 -387 l-734 0 l0 387 ZM737 33 l0 135 l-474 0 l0 -135 l474 0 ZM371 670 q56 -63 129 -111 q73 48 129 111 l-258 0 Z" /><glyph glyph-name="uni5408" unicode="&#x5408;" d="M877 324 l0 -417 l-754 0 l0 417 l754 0 ZM40 510 q119 51 188.5 121.5 q69.5 70.5 111.5 168.5 l320 0 q42 -98 111.5 -168.5 q69.5 -70.5 188.5 -121.5 l0 -135 q-126 37 -226 116 l0 -65 l-468 0 l0 65 q-100 -79 -226 -116 l0 135 ZM747 34 l0 163 l-494 0 l0 -163 l494 0 ZM667 552 q-53 56 -89 122 l-156 0 q-36 -66 -89 -122 l334 0 Z" /><glyph glyph-name="uni5409" unicode="&#x5409;" d="M867 294 l0 -380 l-734 0 l0 380 l734 0 ZM50 722 l384 0 l0 98 l132 0 l0 -98 l384 0 l0 -128 l-384 0 l0 -95 l334 0 l0 -128 l-800 0 l0 128 l334 0 l0 95 l-384 0 l0 128 ZM737 37 l0 134 l-474 0 l0 -134 l474 0 Z" /><glyph glyph-name="uni540A" unicode="&#x540a;" d="M434 333 l0 89 l-307 0 l0 364 l746 0 l0 -364 l-307 0 l0 -89 l365 0 l0 -378 l-129 0 l0 249 l-237 0 l0 -304 l-130 0 l0 304 l-237 0 l0 -249 l-129 0 l0 378 l365 0 ZM742 546 l0 116 l-484 0 l0 -116 l484 0 Z" /><glyph glyph-name="uni540C" unicode="&#x540c;" d="M931 777 l0 -877 l-128 0 l0 749 l-606 0 l0 -749 l-128 0 l0 877 l862 0 ZM248 583 l504 0 l0 -124 l-504 0 l0 124 ZM276 396 l448 0 l0 -407 l-448 0 l0 407 ZM598 116 l0 154 l-196 0 l0 -154 l196 0 Z" /><glyph glyph-name="uni540D" unicode="&#x540d;" d="M925 791 q-38 -152 -125.5 -262.5 q-87.5 -110.5 -234.5 -181.5 l362 0 l0 -441 l-744 0 l0 331 q-79 -11 -133 -16 l0 120 q236 29 386 87 l-89 169 q-108 -103 -288 -154 l0 130 q96 36 161 89 q65 53 108 129 l597 0 ZM797 34 l0 185 l-484 0 l0 -185 l484 0 ZM482 606 l66 -125 q124 72 190 185 l-330 0 q-22 -31 -51 -60 l125 0 Z" /><glyph glyph-name="uni540E" unicode="&#x540e;" d="M902 344 l0 -437 l-619 0 l0 437 l619 0 ZM30 -100 q41 106 57.5 218.5 q16.5 112.5 16.5 243.5 l0 412 q376 0 788 39 l0 -126 q-326 -32 -659 -37 l0 -84 l717 0 l0 -125 l-717 0 l0 -79 q0 -130 -13.5 -241.5 q-13.5 -111.5 -46.5 -220.5 l-143 0 ZM775 34 l0 183 l-365 0 l0 -183 l365 0 Z" /><glyph glyph-name="uni5410" unicode="&#x5410;" d="M387 -42 l-329 0 l0 784 l329 0 l0 -784 ZM266 90 l0 520 l-87 0 l0 -520 l87 0 ZM410 48 l208 0 l0 404 l-178 0 l0 131 l178 0 l0 214 l130 0 l0 -214 l178 0 l0 -131 l-178 0 l0 -404 l208 0 l0 -131 l-546 0 l0 131 Z" /><glyph glyph-name="uni5411" unicode="&#x5411;" d="M727 489 l0 -467 l-454 0 l0 467 l454 0 ZM63 716 l346 0 l31 104 l132 0 l-31 -104 l396 0 l0 -816 l-128 0 l0 688 l-618 0 l0 -688 l-128 0 l0 816 ZM601 149 l0 214 l-202 0 l0 -214 l202 0 Z" /><glyph glyph-name="uni541B" unicode="&#x541b;" d="M333 28 l454 0 l0 118 l-454 0 l0 -118 ZM30 159 q124 64 216 164 l-153 0 l0 118 l242 0 q20 33 31 57 l-336 0 l0 117 l385 0 q12 38 17 57 l-310 0 l0 118 l768 0 l0 -175 l80 0 l0 -117 l-80 0 l0 -175 l-481 0 q-15 -23 -40 -54 l548 0 l0 -364 l-714 0 l0 207 q-81 -59 -173 -104 l0 151 ZM760 441 l0 57 l-256 0 q-16 -38 -25 -57 l281 0 ZM760 615 l0 57 l-203 0 q-4 -19 -14 -57 l217 0 Z" /><glyph glyph-name="uni5420" unicode="&#x5420;" d="M297 -101 q92 101 144 184 q52 83 77 182 q25 99 26 237 l-193 0 l0 130 l193 0 l0 168 l129 0 l0 -168 l275 0 l0 -130 l-275 0 q0 -64 -5 -132 l95 0 l205 -470 l-143 0 l-168 385 q-17 -102 -59.5 -193.5 q-42.5 -91.5 -120.5 -192.5 l-180 0 ZM42 772 l293 0 l0 -794 l-293 0 l0 794 ZM223 110 l0 530 l-69 0 l0 -530 l69 0 ZM772 648 l125 0 l-33 136 l-125 0 l33 -136 Z" /><glyph glyph-name="uni5426" unicode="&#x5426;" d="M867 298 l0 -387 l-734 0 l0 387 l734 0 ZM40 428 q111 41 192.5 96.5 q81.5 55.5 138.5 129.5 l-301 0 l0 127 l860 0 l0 -127 l-407 0 q-11 -21 -22 -37 l62 0 l0 -299 l-126 0 l0 216 q-144 -161 -397 -244 l0 138 ZM736 35 l0 139 l-472 0 l0 -139 l472 0 ZM615 576 l345 -125 l0 -126 l-345 125 l0 126 Z" /><glyph glyph-name="uni5427" unicode="&#x5427;" d="M942 783 l0 -501 l-376 0 l0 -244 l404 0 l0 -130 l-536 0 l0 875 l508 0 ZM60 770 l315 0 l0 -786 l-315 0 l0 786 ZM261 114 l0 526 l-86 0 l0 -526 l86 0 ZM631 407 l0 254 l-77 0 l0 -254 l77 0 ZM822 407 l0 254 l-77 0 l0 -254 l77 0 Z" /><glyph glyph-name="uni542C" unicode="&#x542c;" d="M387 -20 l-327 0 l0 790 l327 0 l0 -790 ZM269 112 l0 526 l-91 0 l0 -526 l91 0 ZM360 -100 q56 100 76.5 197 q20.5 97 20.5 218 l0 460 q128 0 231 6 q103 6 238 19 l0 -128 q-191 -19 -341 -23 l0 -119 l375 0 l0 -123 l-110 0 l0 -507 l-128 0 l0 507 l-137 0 l0 -92 q0 -116 -17 -217.5 q-17 -101.5 -56 -197.5 l-152 0 Z" /><glyph glyph-name="uni542F" unicode="&#x542f;" d="M445 756 l0 64 l134 0 l0 -64 l325 0 l0 -357 l-667 0 l0 -60 q0 -119 -14.5 -225.5 q-14.5 -106.5 -45.5 -213.5 l-147 0 q41 107 58 209 q17 102 17 230 l0 417 l340 0 ZM772 524 l0 102 l-535 0 l0 -102 l535 0 ZM283 314 l644 0 l0 -407 l-644 0 l0 407 ZM797 33 l0 155 l-384 0 l0 -155 l384 0 Z" /><glyph glyph-name="uni5435" unicode="&#x5435;" d="M925 342 q-32 -192 -164.5 -310 q-132.5 -118 -375.5 -142 l0 127 q169 17 276 101 q107 84 131 224 l133 0 ZM58 770 l299 0 l0 -786 l-299 0 l0 786 ZM245 114 l0 526 l-74 0 l0 -526 l74 0 ZM364 308 q75 231 75 465 l120 0 q0 -237 -60 -465 l-135 0 ZM613 810 l128 0 l0 -537 l-128 0 l0 537 ZM900 774 q54 -204 55 -415 l-118 0 q-4 209 -61 415 l124 0 Z" /><glyph glyph-name="uni5438" unicode="&#x5438;" d="M52 773 l311 0 l0 -758 q89 194 89 447 l0 207 l-58 0 l0 121 l474 0 l-53 -238 l127 0 q-15 -123 -36.5 -225 q-21.5 -102 -53.5 -196 l108 -86 l0 -155 l-159 126 q-38 -84 -54 -116 l-151 0 q66 116 106 213 l-143 114 q-30 -174 -114 -327 l-145 0 q34 54 56 100 l-304 0 l0 773 ZM249 134 l0 505 l-84 0 l0 -505 l84 0 ZM757 231 q30 91 50 201 l-141 0 l52 237 l-140 0 l0 -207 q0 -29 -2 -87 l181 -144 Z" /><glyph glyph-name="uni5439" unicode="&#x5439;" d="M375 770 l0 -786 l-315 0 l0 786 l315 0 ZM257 114 l0 526 l-78 0 l0 -526 l78 0 ZM389 466 q71 170 85 339 l130 0 l-6 -61 l364 0 q-14 -140 -59 -278 l-131 0 q25 67 46 151 l-243 0 q-16 -69 -49 -151 l-137 0 ZM390 36 q117 46 163.5 133 q46.5 87 45.5 208 l0 159 l128 0 l0 -159 q0 -21 -2 -65 q205 -152 235 -412 l-126 0 q-23 164 -138 271 q-33 -93 -106.5 -163.5 q-73.5 -70.5 -199.5 -117.5 l0 146 Z" /><glyph glyph-name="uni543B" unicode="&#x543b;" d="M345 -23 l-281 0 l0 796 l281 0 l0 -796 ZM236 111 l0 528 l-63 0 l0 -528 l63 0 ZM335 -80 q47 94 78 286.5 q31 192.5 39 422.5 l-91 0 l51 181 l134 0 l-17 -59 l391 0 l-17 -831 l-175 0 l0 118 l49 0 l11 588 l-49 0 q-2 -235 -21 -424.5 q-19 -189.5 -52 -281.5 l-131 0 q37 93 60 284 q23 191 26 422 l-44 0 q-8 -237 -34.5 -426 q-26.5 -189 -69.5 -280 l-138 0 Z" /><glyph glyph-name="uni543E" unicode="&#x543e;" d="M867 246 l0 -339 l-734 0 l0 339 l734 0 ZM30 416 l250 0 l26 76 l-148 0 l0 114 l187 0 l21 62 l-279 0 l0 118 l826 0 l0 -118 l-411 0 l-21 -62 l366 0 l0 -190 l123 0 l0 -118 l-940 0 l0 118 ZM737 27 l0 99 l-474 0 l0 -99 l474 0 ZM718 416 l0 76 l-276 0 l-26 -76 l302 0 Z" /><glyph glyph-name="uni5440" unicode="&#x5440;" d="M64 773 l287 0 l0 -796 l-287 0 l0 796 ZM242 111 l0 528 l-69 0 l0 -528 l69 0 ZM295 -100 q84 108 141.5 217 q57.5 109 92.5 227 l-169 0 l74 282 l136 0 l-41 -156 l206 0 l0 189 l-338 0 l0 126 l541 0 l0 -126 l-75 0 l0 -189 l107 0 l0 -126 l-107 0 l0 -444 l-232 0 l0 125 l104 0 l0 319 l-70 0 q-69 -246 -204 -444 l-166 0 Z" /><glyph glyph-name="uni544A" unicode="&#x544a;" d="M877 294 l0 -384 l-754 0 l0 384 l754 0 ZM41 482 l405 0 l-1 130 l-208 0 q-14 -45 -38 -97 l-147 0 q74 144 90 285 l131 0 q-4 -44 -7 -65 l179 0 l0 75 l130 0 l0 -75 l332 0 l0 -123 l-332 0 l0 -130 l384 0 l0 -123 l-918 0 l0 123 ZM747 34 l0 136 l-494 0 l0 -136 l494 0 Z" /><glyph glyph-name="uni5458" unicode="&#x5458;" d="M883 457 l0 -362 l-129 0 l0 251 l-508 0 l0 -251 l-129 0 l0 362 l766 0 ZM49 15 q177 34 274.5 108.5 q97.5 74.5 112.5 203.5 l128 0 q-13 -177 -138.5 -287 q-125.5 -110 -376.5 -150 l0 125 ZM155 796 l690 0 l0 -294 l-690 0 l0 294 ZM715 612 l0 74 l-430 0 l0 -74 l430 0 ZM525 143 l425 -130 l0 -123 l-425 129 l0 124 Z" /><glyph glyph-name="uni5468" unicode="&#x5468;" d="M231 320 q0 -225 -60 -421 l-141 0 q73 189 73 421 l-1 467 l801 0 l0 -887 l-171 0 l0 131 l43 0 l-1 633 l-543 0 l0 -344 ZM268 432 l173 0 l0 50 l-153 0 l0 116 l153 0 l0 47 l126 0 l0 -47 l152 0 l0 -116 l-152 0 l0 -50 l172 0 l0 -116 l-471 0 l0 116 ZM295 270 l410 0 l0 -316 l-410 0 l0 316 ZM578 71 l0 83 l-156 0 l0 -83 l156 0 Z" /><glyph glyph-name="uni5473" unicode="&#x5473;" d="M365 770 l0 -786 l-305 0 l0 786 l305 0 ZM251 114 l0 526 l-76 0 l0 -526 l76 0 ZM363 -98 q62 197 90 424 l-68 0 l0 127 l216 0 l0 148 l-198 0 l0 127 l198 0 l0 82 l130 0 l0 -82 l208 0 l0 -127 l-208 0 l0 -148 l226 0 l0 -127 l-78 0 q28 -227 90 -424 l-124 0 q-56 193 -81 424 l-38 0 l0 -426 l-120 0 l0 426 l-38 0 q-25 -231 -81 -424 l-124 0 Z" /><glyph glyph-name="uni547C" unicode="&#x547c;" d="M377 770 l0 -786 l-317 0 l0 786 l317 0 ZM263 114 l0 526 l-88 0 l0 -526 l88 0 ZM395 349 l220 0 l0 306 q-99 -3 -202 -3 l0 128 q271 0 528 26 l0 -128 q-114 -12 -202 -17 l0 -312 l220 0 l0 -128 l-217 0 l0 -314 l-225 0 l0 128 l95 0 l0 186 l-217 0 l0 128 ZM517 616 l50 -217 l-102 0 l-50 217 l102 0 ZM837 616 l102 0 l-50 -217 l-102 0 l50 217 Z" /><glyph glyph-name="uni547D" unicode="&#x547d;" d="M919 386 l0 -463 l-210 0 l0 125 l83 0 l0 215 l-145 0 l0 -363 l-128 0 l0 486 l400 0 ZM40 539 q119 46 188.5 109.5 q69.5 63.5 111.5 151.5 l320 0 q42 -88 111.5 -151.5 q69.5 -63.5 188.5 -109.5 l0 -133 q-116 32 -214 99 l0 -61 l-492 0 l0 61 q-98 -67 -214 -99 l0 133 ZM83 374 l354 0 l0 -444 l-354 0 l0 444 ZM313 54 l0 198 l-106 0 l0 -198 l106 0 ZM673 564 q-53 50 -89 110 l-168 0 q-36 -60 -89 -110 l346 0 Z" /><glyph glyph-name="uni548C" unicode="&#x548c;" d="M939 -60 l-409 0 l0 790 l409 0 l0 -790 ZM34 -61 q41 226 41 467 l104 0 q0 -258 -36 -467 l-109 0 ZM45 574 l171 0 l0 87 q-85 -3 -158 -3 l0 122 q90 0 212.5 8 q122.5 8 211.5 21 l0 -123 q-66 -11 -128 -16 l0 -96 l147 0 l0 -122 l-147 0 l0 -73 l145 -58 l0 -143 l-145 58 l0 -336 l-131 0 l0 552 l-178 0 l0 122 ZM816 68 l0 534 l-163 0 l0 -534 l163 0 Z" /><glyph glyph-name="uni5492" unicode="&#x5492;" d="M764 29 l186 0 l0 -129 l-316 0 l0 331 l-269 0 q-11 -96 -42 -175.5 q-31 -79.5 -86 -155.5 l-182 0 q98 100 139.5 203.5 q41.5 103.5 41.5 256.5 l528 0 l0 -331 ZM80 777 l388 0 l0 -356 l-388 0 l0 356 ZM341 536 l0 128 l-134 0 l0 -128 l134 0 ZM532 777 l388 0 l0 -356 l-388 0 l0 356 ZM793 536 l0 128 l-134 0 l0 -128 l134 0 Z" /><glyph glyph-name="uni5495" unicode="&#x5495;" d="M377 -33 l-317 0 l0 776 l317 0 l0 -776 ZM261 101 l0 508 l-84 0 l0 -508 l84 0 ZM409 671 l205 0 l0 125 l130 0 l0 -125 l204 0 l0 -120 l-204 0 l0 -182 l173 0 l0 -455 l-477 0 l0 455 l174 0 l0 182 l-205 0 l0 120 ZM788 34 l0 215 l-219 0 l0 -215 l219 0 Z" /><glyph glyph-name="uni5496" unicode="&#x5496;" d="M641 -100 l-173 0 l0 130 l59 0 l0 519 l-40 0 l0 -131 q0 -145 -19 -270.5 q-19 -125.5 -63 -247.5 l-132 0 q22 53 33 84 l-249 0 l0 786 l253 0 l0 -774 q33 97 46.5 196.5 q13.5 99.5 13.5 225.5 l0 131 l-40 0 l0 130 l40 0 l0 121 l122 0 l0 -121 l149 0 l0 -779 ZM208 114 l0 526 l-47 0 l0 -526 l47 0 ZM674 770 l269 0 l0 -838 l-269 0 l0 838 ZM833 62 l0 578 l-48 0 l0 -578 l48 0 Z" /><glyph glyph-name="uni54A8" unicode="&#x54a8;" d="M873 -90 l-746 0 l0 401 l746 0 l0 -401 ZM68 454 l241 69 l0 -138 l-241 -70 l0 139 ZM78 795 l231 -62 l0 -138 l-231 63 l0 137 ZM742 35 l0 150 l-484 0 l0 -150 l484 0 ZM339 589 q27 54 42.5 100.5 q15.5 46.5 24.5 101.5 l518 0 l0 -196 l-124 0 l0 84 l-290 0 q-12 -45 -30 -90 l-141 0 ZM356 444 q184 60 226 214 l127 0 q-10 -44 -25 -81 l240 -139 l0 -138 l-301 173 q-93 -117 -267 -159 l0 130 Z" /><glyph glyph-name="uni54AA" unicode="&#x54aa;" d="M364 -46 l-304 0 l0 796 l304 0 l0 -796 ZM252 88 l0 528 l-79 0 l0 -528 l79 0 ZM386 -82 q30 104 47 212.5 q17 108.5 25 232.5 l-57 0 l0 124 l200 0 l0 313 l126 0 l0 -313 l199 0 l0 -124 l-57 0 q8 -124 25 -232.5 q17 -108.5 47 -212.5 l-118 0 q-52 195 -67 445 l-29 0 l0 -470 l-126 0 l0 470 l-30 0 q-15 -250 -67 -445 l-118 0 ZM524 777 l32 -231 l-120 0 l-32 231 l120 0 ZM808 777 l114 0 l-42 -231 l-114 0 l42 231 Z" /><glyph glyph-name="uni54C1" unicode="&#x54c1;" d="M127 788 l0 -368 l746 0 l0 368 l-746 0 ZM470 -90 l0 447 l-413 0 l0 -447 l413 0 ZM182 230 l163 0 l0 -193 l-163 0 l0 193 ZM258 664 l484 0 l0 -120 l-484 0 l0 120 ZM943 -90 l0 447 l-413 0 l0 -447 l413 0 ZM655 230 l163 0 l0 -193 l-163 0 l0 193 Z" /><glyph glyph-name="uni54C7" unicode="&#x54c7;" d="M366 -23 l-315 0 l-1 796 l316 0 l0 -796 ZM248 111 l0 528 l-79 0 l0 -528 l79 0 ZM385 33 l222 0 l0 118 l-191 0 l0 126 l191 0 l0 95 l-216 0 l0 126 l216 0 l0 108 l-191 0 l0 126 l191 0 l0 70 l130 0 l0 -70 l192 0 l0 -126 l-192 0 l0 -108 l217 0 l0 -126 l-217 0 l0 -95 l192 0 l0 -126 l-192 0 l0 -118 l223 0 l0 -126 l-575 0 l0 126 Z" /><glyph glyph-name="uni54C9" unicode="&#x54c9;" d="M539 369 l0 -440 l-457 0 l0 440 l457 0 ZM50 545 l200 0 l0 87 l-151 0 l0 122 l151 0 l0 46 l128 0 l0 -46 l151 0 l0 -122 l-151 0 l0 -87 l210 0 l0 255 l128 0 l0 -255 l234 0 l0 -122 l-234 0 q3 -129 39 -212 q53 81 71 181 l120 0 q-24 -171 -112 -288 q48 -44 127 -77 l0 -137 q-128 38 -214 123 q-74 -63 -181 -113 l0 147 q56 29 102 66 q-77 131 -80 310 l-538 0 l0 122 ZM413 56 l0 186 l-205 0 l0 -186 l205 0 ZM880 780 l54 -175 l-123 0 l-54 175 l123 0 Z" /><glyph glyph-name="uni54CD" unicode="&#x54cd;" d="M331 770 l0 -780 l-271 0 l0 780 l271 0 ZM223 118 l0 524 l-55 0 l0 -524 l55 0 ZM372 705 l179 0 l38 115 l139 0 l-38 -115 l247 0 l0 -805 l-232 0 l0 124 l108 0 l0 553 l-317 0 l0 -687 l-124 0 l0 815 ZM529 502 l251 0 l0 -419 l-251 0 l0 419 ZM681 207 l0 171 l-53 0 l0 -171 l53 0 Z" /><glyph glyph-name="uni54D1" unicode="&#x54d1;" d="M328 770 l0 -780 l-270 0 l0 780 l270 0 ZM221 118 l0 524 l-55 0 l0 -524 l55 0 ZM344 51 l165 0 l0 599 l-137 0 l0 130 l560 0 l0 -130 l-137 0 l0 -599 l165 0 l0 -130 l-616 0 l0 130 ZM452 593 l33 -472 l-97 0 l-33 472 l97 0 ZM680 51 l0 599 l-56 0 l0 -599 l56 0 ZM852 593 l97 0 l-33 -472 l-97 0 l33 472 Z" /><glyph glyph-name="uni54D4" unicode="&#x54d4;" d="M361 770 l0 -786 l-302 0 l0 786 l302 0 ZM249 114 l0 526 l-77 0 l0 -526 l77 0 ZM384 173 l223 0 l0 77 l130 0 l0 -77 l223 0 l0 -128 l-223 0 l0 -155 l-130 0 l0 155 l-223 0 l0 128 ZM415 800 l126 0 l0 -133 l105 0 l0 -120 l-105 0 l0 -133 l119 0 l0 -126 l-245 0 l0 512 ZM698 800 l124 0 l0 -132 q73 29 128 59 l0 -125 q-60 -32 -128 -57 l0 -131 l138 0 l0 -126 l-262 0 l0 512 Z" /><glyph glyph-name="uni54E5" unicode="&#x54e5;" d="M657 209 l0 -273 l-524 0 l0 273 l524 0 ZM30 367 l940 0 l0 -122 l-97 0 l0 -347 l-77 1 l-118 0 l0 124 l66 0 l0 222 l-714 0 l0 122 ZM69 793 l862 0 l0 -118 l-58 0 l0 -287 l-129 2 l0 285 l-675 0 l0 118 ZM133 642 l524 0 l0 -240 l-524 0 l0 240 ZM529 43 l0 59 l-268 0 l0 -59 l268 0 ZM529 492 l0 59 l-268 0 l0 -59 l268 0 Z" /><glyph glyph-name="uni54E6" unicode="&#x54e6;" d="M320 -24 l-272 0 l0 798 l272 0 l0 -798 ZM221 112 l0 526 l-74 0 l0 -526 l74 0 ZM332 267 l119 29 l0 129 l-103 0 l0 118 l103 0 l0 111 q-25 -2 -77 -2 l0 115 q141 0 288 40 l0 -115 q-55 -16 -95 -23 l0 -126 l118 0 l0 255 l113 0 l0 -255 l162 0 l0 -118 l-161 0 q2 -76 10 -139 l141 67 l0 -127 l-119 -56 q33 -140 115 -268 l-140 0 q-23 45 -47 103 l-149 -72 l0 126 l113 54 q-35 131 -38 312 l-118 0 l0 -113 l93 23 l0 -119 l-93 -23 l0 -291 l-197 0 l0 123 l81 0 l0 152 l-119 -29 l0 119 ZM916 777 l20 -190 l-97 0 l-19 190 l96 0 Z" /><glyph glyph-name="uni54E9" unicode="&#x54e9;" d="M892 290 l-188 0 l0 -77 l204 0 l0 -109 l-204 0 l0 -82 l232 0 l0 -111 l-584 0 l0 111 l232 0 l0 82 l-205 0 l0 109 l205 0 l0 77 l-189 0 l0 492 l497 0 l0 -492 ZM54 772 l278 0 l0 -794 l-278 0 l0 794 ZM227 110 l0 530 l-68 0 l0 -530 l68 0 ZM587 400 l0 85 l-76 0 l0 -85 l76 0 ZM587 588 l0 85 l-76 0 l0 -85 l76 0 ZM776 400 l0 85 l-75 0 l0 -85 l75 0 ZM776 588 l0 85 l-75 0 l0 -85 l75 0 Z" /><glyph glyph-name="uni54EA" unicode="&#x54ea;" d="M647 -98 l-161 0 l0 127 l54 0 l0 179 l-52 0 q-13 -172 -76 -306 l-132 0 q82 139 101 306 l-42 0 l0 124 l48 0 l0 106 l-48 0 l0 124 l48 0 l0 100 l-55 0 l0 126 l315 0 l0 -886 ZM58 772 l254 0 l0 -794 l-254 0 l0 794 ZM210 110 l0 530 l-50 0 l0 -530 l50 0 ZM544 332 l0 106 l-55 0 l0 -106 l55 0 ZM544 562 l0 100 l-55 0 l0 -100 l55 0 ZM683 788 l271 0 q0 -114 -10 -206 q-10 -92 -34 -186 q53 -104 53 -215 q0 -100 -43 -205 l-117 0 q55 104 55 205 q0 106 -57 208 q36 126 47 269 l-56 0 l0 -756 l-109 0 l0 886 Z" /><glyph glyph-name="uni5509" unicode="&#x5509;" d="M351 -40 l-297 0 l0 794 l297 0 l0 -794 ZM231 92 l0 530 l-57 0 l0 -530 l57 0 ZM373 27 q71 16 126 43.5 q55 27.5 106 76.5 l-227 0 l0 124 l225 0 l0 79 l-220 0 l60 170 l130 0 l-16 -46 l383 0 l0 -124 l-209 0 l0 -79 l226 0 l0 -124 l-227 0 q50 -48 105 -75.5 q55 -27.5 126 -44.5 l0 -132 q-100 22 -168 54.5 q-68 32.5 -126 94.5 q-58 -62 -126 -94.5 q-68 -32.5 -168 -54.5 l0 132 ZM392 658 l54 0 l89 160 l135 0 l-90 -160 l215 0 l-30 78 l122 0 l74 -194 l-569 0 l0 116 Z" /><glyph glyph-name="uni5510" unicode="&#x5510;" d="M501 627 l0 38 l-292 0 l0 -176 l292 0 l0 39 l-244 0 l0 99 l244 0 ZM30 -100 q29 102 40 199 q11 97 11 224 l0 455 l373 0 l0 42 l136 0 l0 -42 l360 0 l0 -113 l-323 0 l0 -38 l284 0 l0 -123 l56 0 l0 -128 l-56 0 l0 -124 l-284 0 l0 -45 l291 0 l0 -301 l-665 0 l0 301 l248 0 l0 45 l-244 0 l0 100 l244 0 l0 39 l-292 0 l0 -68 q0 -119 -9.5 -221 q-9.5 -102 -32.5 -202 l-137 0 ZM790 14 l0 85 l-409 0 l0 -85 l409 0 ZM789 352 l0 39 l-162 0 l0 -39 l162 0 ZM789 489 l0 39 l-162 0 l0 -39 l162 0 Z" /><glyph glyph-name="uni5524" unicode="&#x5524;" d="M357 770 l0 -786 l-298 0 l0 786 l298 0 ZM244 114 l0 526 l-71 0 l0 -526 l71 0 ZM369 282 l40 0 l0 217 l-28 -11 l0 129 q93 68 142 183 l374 0 q-37 -122 -96 -216 l133 0 l0 -302 l36 0 l0 -125 l-226 0 q49 -46 101.5 -75 q52.5 -29 119.5 -50 l0 -142 q-98 30 -166 69 q-68 39 -127 107 q-59 -68 -127 -107 q-68 -39 -166 -69 l0 142 q67 21 119.5 50 q52.5 29 101.5 75 l-231 0 l0 125 ZM659 584 q37 51 57 93 l-119 0 q-28 -51 -68 -93 l130 0 ZM613 282 l0 179 l-82 0 l0 -179 l82 0 ZM812 282 l0 179 l-81 0 l0 -179 l81 0 Z" /><glyph glyph-name="uni552E" unicode="&#x552e;" d="M887 219 l0 -312 l-774 0 l0 312 l774 0 ZM34 581 q104 87 146 237 l119 0 l-9 -38 l205 0 l0 38 l130 0 l0 -38 l297 0 l0 -99 l-297 0 l0 -45 l266 0 l0 -92 l-266 0 l0 -45 l266 0 l0 -92 l-266 0 l0 -46 l307 0 l0 -99 l-817 0 l0 217 q-34 -31 -81 -62 l0 164 ZM757 17 l0 92 l-514 0 l0 -92 l514 0 ZM495 361 l0 46 l-251 0 l0 -46 l251 0 ZM495 499 l0 45 l-251 0 l0 -45 l251 0 ZM495 636 l0 45 l-238 0 l-13 -29 l0 -16 l251 0 Z" /><glyph glyph-name="uni552F" unicode="&#x552f;" d="M347 -17 l-292 0 l0 784 l292 0 l0 -784 ZM234 110 l0 530 l-66 0 l0 -530 l66 0 ZM371 488 q82 126 121 309 l104 0 q-7 -48 -18 -93 l92 0 l0 93 l128 0 l0 -93 l141 0 l0 -120 l-141 0 l0 -103 l130 0 l0 -120 l-130 0 l0 -111 l130 0 l0 -120 l-130 0 l0 -107 l152 0 l0 -120 l-519 0 l0 473 q-28 -37 -60 -69 l0 181 ZM670 23 l0 107 l-111 0 l0 -107 l111 0 ZM670 250 l0 111 l-111 0 l0 -111 l111 0 ZM670 481 l0 103 l-111 0 l0 -103 l111 0 Z" /><glyph glyph-name="uni5531" unicode="&#x5531;" d="M951 -87 l-562 0 l0 432 l562 0 l0 -432 ZM52 770 l293 0 l0 -790 l-293 0 l0 790 ZM233 113 l0 524 l-69 0 l0 -524 l69 0 ZM424 786 l492 0 l0 -399 l-492 0 l0 399 ZM825 25 l0 54 l-310 0 l0 -54 l310 0 ZM825 179 l0 53 l-310 0 l0 -53 l310 0 ZM792 496 l0 46 l-244 0 l0 -46 l244 0 ZM792 630 l0 46 l-244 0 l0 -46 l244 0 Z" /><glyph glyph-name="uni553E" unicode="&#x553e;" d="M342 -20 l-290 0 l0 790 l290 0 l0 -790 ZM229 113 l0 524 l-64 0 l0 -524 l64 0 ZM363 410 l64 0 l0 81 l-54 0 l0 115 l227 0 l0 62 q-93 -4 -204 -4 l0 119 q272 0 531 29 l0 -119 q-85 -10 -203 -19 l0 -68 l226 0 l0 -115 l-53 0 l0 -81 l63 0 l0 -116 l-63 0 l0 -81 l53 0 l0 -121 l-226 0 l0 -68 l216 0 l0 -116 l-557 0 l0 116 l217 0 l0 68 l-227 0 l0 121 l54 0 l0 81 l-64 0 l0 116 ZM600 213 l0 81 l-67 0 l0 -81 l67 0 ZM600 410 l0 81 l-67 0 l0 -81 l67 0 ZM791 213 l0 81 l-67 0 l0 -81 l67 0 ZM791 410 l0 81 l-67 0 l0 -81 l67 0 Z" /><glyph glyph-name="uni5546" unicode="&#x5546;" d="M234 564 l-33 82 l-151 0 l0 124 l384 0 l0 50 l132 0 l0 -50 l384 0 l0 -124 l-151 0 l-33 -82 l159 0 l0 -664 l-127 0 l0 320 l-85 0 l0 -269 l-426 0 l0 269 l-85 0 l0 -320 l-127 0 l0 664 l159 0 ZM325 421 l135 0 l-74 -115 l228 0 l-74 115 l135 0 l123 -190 l0 211 l-596 0 l0 -211 l123 190 ZM375 564 l250 0 l33 82 l-316 0 l33 -82 ZM588 65 l0 127 l-176 0 l0 -127 l176 0 Z" /><glyph glyph-name="uni554A" unicode="&#x554a;" d="M293 770 l0 -780 l-242 0 l0 780 l242 0 ZM197 120 l0 520 l-50 0 l0 -520 l50 0 ZM324 790 l243 0 l0 -112 q0 -131 -43 -253 q49 -91 49 -214 q0 -114 -44 -199 l-102 0 l0 -112 l-103 0 l0 890 ZM427 28 q53 89 53 183 q0 97 -53 184 l0 -367 ZM427 436 q45 115 46 231 l-46 0 l0 -231 ZM582 790 l388 0 l0 -128 l-27 0 l0 -762 l-182 0 l0 124 l76 0 l0 638 l-255 0 l0 128 ZM595 609 l206 0 l0 -549 l-206 0 l0 549 ZM716 165 l0 339 l-36 0 l0 -339 l36 0 Z" /><glyph glyph-name="uni5561" unicode="&#x5561;" d="M335 -18 l-281 0 l0 786 l281 0 l0 -786 ZM229 111 l0 528 l-69 0 l0 -528 l69 0 ZM358 217 l129 0 l0 102 l-114 0 l0 128 l114 0 l0 102 l-120 0 l0 128 l120 0 l0 127 l127 0 l0 -909 l-127 0 l0 194 l-129 0 l0 128 ZM697 804 l126 0 l0 -127 l121 0 l0 -128 l-121 0 l0 -102 l115 0 l0 -128 l-115 0 l0 -102 l130 0 l0 -128 l-130 0 l0 -194 l-126 0 l0 909 Z" /><glyph glyph-name="uni5566" unicode="&#x5566;" d="M329 770 l0 -786 l-272 0 l0 786 l272 0 ZM221 114 l0 526 l-54 0 l0 -526 l54 0 ZM345 338 l70 17 l0 184 l-70 0 l0 128 l70 0 l0 138 l122 0 l0 -138 l63 0 l0 -128 l-63 0 l0 -154 l71 17 l0 -139 l-71 -17 l0 -346 l-185 0 l0 129 l63 0 l0 187 l-70 -17 l0 139 ZM601 42 l361 0 l0 -128 l-361 0 l0 128 ZM613 714 l106 0 l0 98 l124 0 l0 -98 l107 0 l0 -128 l-337 0 l0 128 ZM740 545 l26 -460 l-113 0 l-26 460 l113 0 ZM823 545 l113 0 l-26 -460 l-113 0 l26 460 Z" /><glyph glyph-name="uni5575" unicode="&#x5575;" d="M329 770 l0 -783 q40 164 58 339 l112 0 q-25 -253 -73 -426 l-120 0 q8 28 22 84 l-271 0 l0 786 l272 0 ZM221 114 l0 526 l-54 0 l0 -526 l54 0 ZM345 569 l167 -39 l0 -125 l-167 37 l0 127 ZM353 803 l157 -39 l0 -128 l-157 39 l0 128 ZM452 -100 q42 103 59.5 204.5 q17.5 101.5 17.5 220.5 l0 405 l163 0 l0 70 l119 0 l0 -70 l139 0 l0 -198 l-98 0 l0 78 l-41 0 l0 -190 l152 0 q-37 -174 -105 -317 l112 -203 l-124 0 l-49 89 q-26 -42 -61 -89 l-140 0 q79 97 136 199 l-87 183 q-2 -104 -17 -196 q-15 -92 -45 -186 l-131 0 ZM698 420 l0 190 l-52 0 l0 -190 l52 0 ZM792 218 q20 48 36 96 l-79 0 l43 -96 Z" /><glyph glyph-name="uni5582" unicode="&#x5582;" d="M338 770 l0 -780 l-279 0 l0 780 l279 0 ZM228 118 l0 524 l-58 0 l0 -524 l58 0 ZM360 351 l600 0 l0 -123 l-214 0 q21 -69 68 -118 l36 99 l110 0 l-48 -132 l-60 0 q42 -31 98 -52 l0 -135 q-144 45 -223 129.5 q-79 84.5 -109 208.5 l-73 0 l0 -200 l102 0 l0 -128 l-229 0 l0 328 l-58 0 l0 123 ZM398 793 l524 0 l0 -400 l-524 0 l0 400 ZM605 493 l0 58 l-87 0 l0 -58 l87 0 ZM605 635 l0 59 l-87 0 l0 -59 l87 0 ZM802 493 l0 58 l-87 0 l0 -58 l87 0 ZM802 635 l0 59 l-87 0 l0 -59 l87 0 Z" /><glyph glyph-name="uni5584" unicode="&#x5584;" d="M885 196 l0 -292 l-770 0 l0 292 l770 0 ZM50 504 l385 0 l0 38 l-316 0 l0 95 l316 0 l0 37 l-363 0 l0 98 l169 0 l-17 48 l136 0 l17 -48 l246 0 l17 48 l136 0 l-17 -48 l169 0 l0 -98 l-363 0 l0 -37 l316 0 l0 -95 l-316 0 l0 -38 l385 0 l0 -100 l-385 0 l0 -56 l140 0 l15 42 l136 0 l-15 -42 l89 0 l0 -106 l-860 0 l0 106 l89 0 l-15 42 l136 0 l15 -42 l140 0 l0 56 l-385 0 l0 100 ZM755 11 l0 80 l-510 0 l0 -80 l510 0 Z" /><glyph glyph-name="uni558A" unicode="&#x558a;" d="M702 732 l-4 86 l115 0 l4 -86 l150 0 l0 -118 l-147 0 l8 -181 q2 -42 4 -63 q19 82 33 158 l102 0 q-50 -234 -100 -378 q35 -133 103 -248 l-122 0 q-30 61 -47 103 l-39 -103 l-121 0 l35 76 l-179 0 l0 423 l204 0 l0 -365 q36 86 51 131 q-22 106 -30 266 l-9 181 l-242 0 l0 -281 q0 -123 -11 -226.5 q-11 -103.5 -38 -204.5 l-135 0 q10 28 26 82 l-257 0 l0 782 l259 0 l0 -774 q21 79 30 160.5 q9 81.5 9 180.5 l0 399 l348 0 ZM211 109 l0 532 l-51 0 l0 -532 l51 0 ZM496 564 l202 0 l0 -112 l-202 0 l0 112 ZM615 91 l0 197 l-33 0 l0 -197 l33 0 ZM941 814 l5 -67 l-89 0 l-3 67 l87 0 Z" /><glyph glyph-name="uni559C" unicode="&#x559c;" d="M898 139 l0 -236 l-797 0 l0 236 l797 0 ZM50 271 l214 0 l-16 42 l-123 0 l0 217 l749 0 l0 -217 l-122 0 l-16 -42 l214 0 l0 -100 l-900 0 l0 100 ZM61 787 l373 0 l0 33 l132 0 l0 -33 l373 0 l0 -101 l-373 0 l0 -29 l332 0 l0 -99 l-796 0 l0 99 l332 0 l0 29 l-373 0 l0 101 ZM768 -10 l0 54 l-537 0 l0 -54 l537 0 ZM744 400 l0 45 l-489 0 l0 -45 l489 0 ZM400 271 l200 0 l16 42 l-232 0 l16 -42 Z" /><glyph glyph-name="uni559D" unicode="&#x559d;" d="M332 -18 l-278 0 l0 786 l278 0 l0 -786 ZM220 111 l0 528 l-54 0 l0 -528 l54 0 ZM408 420 l-28 0 l0 371 l524 0 l0 -371 l-366 0 l-15 -39 l420 0 l0 -481 l-109 0 l0 128 l-185 81 l-168 -73 l0 -6 l278 0 l0 -110 l-396 0 l0 315 l118 0 l0 -77 l105 45 l0 60 l-234 0 l56 157 ZM776 516 l0 46 l-269 0 l0 -46 l269 0 ZM776 649 l0 45 l-269 0 l0 -45 l269 0 ZM834 150 l0 113 l-122 0 l0 -61 l122 -52 Z" /><glyph glyph-name="uni55B1" unicode="&#x55b1;" d="M950 790 l0 -123 l-458 0 l0 -344 q0 -120 -15 -222 q-15 -102 -51 -201 l-136 0 q20 46 33 90 l-272 0 l0 780 l273 0 l0 -777 q23 77 33 155 q10 78 10 175 l0 467 l583 0 ZM216 120 l0 520 l-57 0 l0 -520 l57 0 ZM496 22 l181 0 l0 50 l-165 0 l0 108 l165 0 l0 51 l-150 0 l-1 393 l408 0 l0 -393 l-149 0 l0 -51 l164 0 l0 -108 l-164 0 l0 -50 l181 0 l0 -114 l-470 0 l0 114 ZM685 327 l0 59 l-59 0 l0 -59 l59 0 ZM685 468 l0 60 l-59 0 l0 -60 l59 0 ZM836 327 l0 59 l-59 0 l0 -59 l59 0 ZM836 468 l0 60 l-59 0 l0 -60 l59 0 Z" /><glyph glyph-name="uni55E3" unicode="&#x55e3;" d="M946 784 l0 -884 l-191 0 l0 128 l86 0 l0 633 l-288 0 l0 123 l393 0 ZM46 470 l492 0 l0 -570 l-99 0 l0 178 l-46 0 l0 -168 l-78 0 l0 168 l-45 0 l0 -168 l-78 0 l0 168 l-47 0 l0 -178 l-99 0 l0 570 ZM66 787 l452 0 l0 -269 l-452 0 l0 269 ZM192 200 l0 144 l-47 0 l0 -144 l47 0 ZM395 622 l0 61 l-205 0 l0 -61 l205 0 ZM315 200 l0 144 l-45 0 l0 -144 l45 0 ZM439 200 l0 144 l-46 0 l0 -144 l46 0 ZM537 597 l286 0 l0 -114 l-286 0 l0 114 ZM571 418 l236 0 l0 -364 l-236 0 l0 364 ZM713 174 l0 124 l-48 0 l0 -124 l48 0 Z" /><glyph glyph-name="uni5609" unicode="&#x5609;" d="M874 544 l0 -185 l-118 0 l-15 -35 l209 0 l0 -107 l-900 0 l0 107 l209 0 l-15 35 l-119 0 l0 185 l749 0 ZM40 -100 q57 81 73 160 l-48 0 l0 115 l57 0 l0 30 l126 0 l0 -30 l229 0 l0 -275 l-209 0 l0 110 l83 0 l0 50 l-109 0 q-13 -87 -50 -160 l-152 0 ZM61 790 l373 0 l0 30 l132 0 l0 -30 l373 0 l0 -104 l-373 0 l0 -25 l332 0 l0 -94 l-796 0 l0 94 l332 0 l0 25 l-373 0 l0 104 ZM744 435 l0 34 l-489 0 l0 -34 l489 0 ZM395 324 l210 0 l15 35 l-240 0 l15 -35 ZM541 183 l387 0 l0 -279 l-387 0 l0 279 ZM800 11 l0 65 l-131 0 l0 -65 l131 0 Z" /><glyph glyph-name="uni5668" unicode="&#x5668;" d="M346 25 l0 102 l-123 0 l0 -102 l123 0 ZM35 212 q86 33 133 96 l-128 0 l0 120 l394 0 l0 47 l132 0 l0 -47 l160 0 l-16 47 l127 0 l16 -47 l107 0 l0 -120 l-128 0 q47 -63 133 -96 l0 -135 q-36 13 -65 27 l0 -189 l-370 0 l0 320 l207 0 q-23 31 -44 73 l-386 0 q-21 -42 -44 -73 l207 0 l0 -320 l-370 0 l0 189 q-29 -14 -65 -27 l0 135 ZM90 789 l378 0 l0 -299 l-378 0 l0 299 ZM341 598 l0 85 l-124 0 l0 -85 l124 0 ZM532 789 l378 0 l0 -299 l-378 0 l0 299 ZM777 25 l0 102 l-123 0 l0 -102 l123 0 ZM783 598 l0 85 l-124 0 l0 -85 l124 0 Z" /><glyph glyph-name="uni5669" unicode="&#x5669;" d="M35 31 l402 0 l0 265 l-370 0 l0 120 l370 0 l0 251 l-378 0 l0 122 l875 0 l0 -122 l-371 0 l0 -251 l363 0 l0 -120 l-363 0 l0 -265 l395 0 l0 -122 l-923 0 l0 122 ZM91 271 l302 0 l0 -215 l-302 0 l0 215 ZM91 641 l302 0 l0 -199 l-302 0 l0 199 ZM286 145 l0 37 l-88 0 l0 -37 l88 0 ZM286 523 l0 37 l-88 0 l0 -37 l88 0 ZM607 271 l302 0 l0 -215 l-302 0 l0 215 ZM607 641 l302 0 l0 -199 l-302 0 l0 199 ZM802 145 l0 37 l-88 0 l0 -37 l88 0 ZM802 523 l0 37 l-88 0 l0 -37 l88 0 Z" /><glyph glyph-name="uni56DA" unicode="&#x56da;" d="M921 -88 l-842 0 l0 875 l842 0 l0 -875 ZM791 41 l0 617 l-582 0 l0 -617 l582 0 ZM235 220 q97 42 148.5 123.5 q51.5 81.5 51.5 200.5 l0 84 l123 0 l0 -84 q0 -60 -10 -110 q161 -137 233 -342 l-144 0 q-38 115 -134 203 q-40 -79 -107.5 -137.5 q-67.5 -58.5 -160.5 -90.5 l0 153 Z" /><glyph glyph-name="uni56DB" unicode="&#x56db;" d="M926 -66 l-854 0 l0 828 l856 0 l-2 -828 ZM798 63 l0 114 l-253 0 l0 456 l-95 0 q-1 -145 -27.5 -254 q-26.5 -109 -89.5 -217 l-133 0 l0 -99 l598 0 ZM200 207 q68 98 95.5 201.5 q27.5 103.5 28.5 224.5 l-124 0 l0 -426 ZM798 303 l0 330 l-127 0 l0 -330 l127 0 Z" /><glyph glyph-name="uni56DE" unicode="&#x56de;" d="M914 772 l0 -844 l-828 0 l0 844 l828 0 ZM785 56 l0 588 l-570 0 l0 -588 l570 0 ZM295 566 l410 0 l0 -432 l-410 0 l0 432 ZM578 261 l0 179 l-156 0 l0 -179 l156 0 Z" /><glyph glyph-name="uni56E0" unicode="&#x56e0;" d="M921 -88 l-842 0 l0 875 l842 0 l0 -875 ZM792 39 l0 621 l-584 0 l0 -621 l584 0 ZM235 203 q142 57 184 189 l-173 0 l0 124 l192 0 l0 114 l124 0 l0 -114 l192 0 l0 -124 l-173 0 q42 -132 184 -189 l0 -139 q-92 29 -158.5 82 q-66.5 53 -106.5 125 q-40 -72 -106.5 -125 q-66.5 -53 -158.5 -82 l0 139 Z" /><glyph glyph-name="uni56E2" unicode="&#x56e2;" d="M923 -88 l-846 0 l0 875 l846 0 l0 -875 ZM794 37 l0 625 l-588 0 l0 -625 l588 0 ZM245 559 l267 0 l0 83 l129 0 l0 -83 l114 0 l0 -122 l-114 0 l-1 -371 l-218 0 l0 124 l90 0 l0 84 l-248 -114 l0 133 l248 114 l0 30 l-267 0 l0 122 Z" /><glyph glyph-name="uni56E4" unicode="&#x56e4;" d="M923 -88 l-846 0 l0 875 l846 0 l0 -875 ZM795 35 l0 629 l-590 0 l0 -629 l590 0 ZM237 593 l199 0 l0 51 l124 0 l0 -51 l204 0 l0 -122 l-204 0 l0 -127 l66 0 l0 99 l114 0 l0 -207 l-180 0 l0 -44 l203 0 l0 -119 l-327 0 l0 149 l-174 0 l0 221 l114 0 l0 -99 l60 0 l0 127 l-199 0 l0 122 Z" /><glyph glyph-name="uni56ED" unicode="&#x56ed;" d="M923 -88 l-846 0 l0 875 l846 0 l0 -875 ZM794 35 l0 629 l-588 0 l0 -629 l588 0 ZM228 443 l544 0 l0 -119 l-126 0 l0 -122 l123 0 l0 -120 l-243 0 l0 242 l-54 0 q-15 -114 -75.5 -178.5 q-60.5 -64.5 -162.5 -86.5 l0 127 q103 27 124 138 l-130 0 l0 119 ZM269 623 l462 0 l0 -119 l-462 0 l0 119 Z" /><glyph glyph-name="uni56F0" unicode="&#x56f0;" d="M921 -88 l-842 0 l0 875 l842 0 l0 -875 ZM792 39 l0 621 l-584 0 l0 -621 l584 0 ZM233 84 q47 152 60 332 l106 0 q-13 -191 -54 -332 l-112 0 ZM255 565 l183 0 l0 65 l124 0 l0 -65 l183 0 l0 -124 l-183 0 l0 -372 l-124 0 l0 372 l-183 0 l0 124 ZM707 416 q13 -180 60 -332 l-112 0 q-41 141 -54 332 l106 0 Z" /><glyph glyph-name="uni56F4" unicode="&#x56f4;" d="M924 -88 l-848 0 l0 875 l848 0 l0 -875 ZM796 37 l0 625 l-592 0 l0 -625 l592 0 ZM239 330 l183 -1 l0 40 l-152 0 l0 96 l152 0 l0 43 l-172 0 l0 99 l172 0 l0 34 l126 0 l0 -34 l190 0 l0 -99 l-190 0 l0 -43 l170 0 l0 -96 l-170 0 l0 -41 l210 -2 l0 -234 l-177 0 l0 92 l56 0 l0 49 l-89 0 l0 -175 l-126 0 l0 176 l-183 1 l0 95 Z" /><glyph glyph-name="uni56FD" unicode="&#x56fd;" d="M926 -92 l-854 0 l0 884 l856 0 l-2 -884 ZM798 29 l0 643 l-598 0 l0 -643 l598 0 ZM239 193 l194 0 l0 123 l-159 0 l0 109 l159 0 l0 80 l-180 0 l0 112 l495 0 l0 -112 l-191 0 l0 -80 l170 0 l0 -109 l-170 0 l0 -123 l58 0 l-16 93 l100 0 l16 -93 l44 0 l0 -113 l-520 0 l0 113 Z" /><glyph glyph-name="uni56FE" unicode="&#x56fe;" d="M923 -91 l-846 0 l0 881 l846 0 l0 -881 ZM797 33 l0 633 l-594 0 l0 -633 l594 0 ZM224 354 q96 23 172 59 q-35 31 -65 67 q-40 -27 -100 -47 l0 107 q67 34 100 96 l411 0 q-28 -127 -138 -223 q76 -36 172 -59 l0 -114 q-158 37 -276 102 q-37 -20 -79 -38 l226 -35 l0 -94 l-274 42 l0 67 q-71 -25 -149 -44 l0 114 ZM277 201 l446 -65 l0 -100 l-446 65 l0 100 ZM425 531 q32 -39 75 -65 q42 28 75 65 l-150 0 Z" /><glyph glyph-name="uni5706" unicode="&#x5706;" d="M923 -91 l-846 0 l0 881 l846 0 l0 -881 ZM798 30 l0 639 l-596 0 l0 -639 l596 0 ZM240 143 q78 15 124 44 l-118 0 l0 226 l508 0 l0 -226 l-120 0 l0 126 l-268 0 l0 -124 q59 38 75 105 l128 0 q-12 -41 -32 -79 l223 -69 l0 -113 l-247 77 l0 66 q-86 -123 -273 -143 l0 110 ZM277 643 l446 0 l0 -204 l-446 0 l0 204 ZM598 519 l0 44 l-196 0 l0 -44 l196 0 Z" /><glyph glyph-name="uni571F" unicode="&#x571f;" d="M50 59 l380 0 l0 363 l-331 0 l0 133 l331 0 l0 245 l140 0 l0 -245 l331 0 l0 -133 l-331 0 l0 -363 l380 0 l0 -133 l-900 0 l0 133 Z" /><glyph glyph-name="uni5723" unicode="&#x5723;" d="M937 293 q-265 32 -437 114 q-172 -82 -437 -114 l0 121 q179 23 307 69 q-155 113 -235 301 l103 1 l524 0 l103 -1 q-80 -188 -235 -301 q128 -46 307 -69 l0 -121 ZM45 40 l389 0 l0 88 l-341 0 l0 126 l341 0 l0 86 l132 0 l0 -86 l341 0 l0 -126 l-341 0 l0 -88 l389 0 l0 -128 l-910 0 l0 128 ZM357 665 q61 -76 143 -128 q82 52 143 128 l-286 0 Z" /><glyph glyph-name="uni5728" unicode="&#x5728;" d="M40 347 q162 106 236 267 l-226 0 l0 128 l270 0 q9 38 15 78 l123 0 q-3 -35 -11 -78 l503 0 l0 -128 l-538 0 q-47 -128 -130 -227 l0 -487 l-129 0 l0 364 q-54 -40 -113 -71 l0 154 ZM333 38 l244 0 l0 252 l-214 0 l0 128 l214 0 l0 143 l128 0 l0 -143 l215 0 l0 -128 l-215 0 l0 -252 l245 0 l0 -128 l-617 0 l0 128 Z" /><glyph glyph-name="uni5730" unicode="&#x5730;" d="M370 394 l-76 -25 l0 107 l-46 0 l0 -304 l80 19 l0 -134 l-288 -70 l0 134 l80 19 l0 336 l-70 0 l0 130 l70 0 l0 194 l128 0 l0 -194 l64 0 l0 -95 l58 19 l0 230 l125 0 l0 -190 l94 31 l0 203 l125 0 l0 -163 l215 70 l0 -594 l-125 0 l0 417 l-90 -29 l0 -388 l-125 0 l0 348 l-94 -31 l0 -397 l465 0 l0 -130 l-590 0 l0 487 Z" /><glyph glyph-name="uni5733" unicode="&#x5733;" d="M293 -100 q52 124 69.5 221.5 q17.5 97.5 17.5 250.5 l0 428 l128 0 l0 -428 q0 -159 -13 -258.5 q-13 -99.5 -54 -213.5 l-148 0 ZM45 126 l82 16 l0 334 l-74 0 l0 130 l74 0 l0 194 l128 0 l0 -194 l74 0 l0 -130 l-74 0 l0 -308 l82 16 l0 -133 l-292 -58 l0 133 ZM593 760 l123 0 l0 -810 l-123 0 l0 810 ZM801 800 l128 0 l0 -900 l-128 0 l0 900 Z" /><glyph glyph-name="uni573A" unicode="&#x573a;" d="M308 -100 q64 122 96.5 239.5 q32.5 117.5 37.5 244.5 l-53 0 l0 126 l154 0 l116 154 l-280 0 l0 126 l535 0 l-211 -280 l240 0 l0 -610 l-191 0 l0 125 l66 0 l0 359 l-55 0 q-2 -133 -23.5 -249.5 q-21.5 -116.5 -70.5 -234.5 l-139 0 q54 122 80.5 239.5 q26.5 117.5 31.5 244.5 l-77 0 q-4 -134 -30.5 -250 q-26.5 -116 -86.5 -234 l-140 0 ZM49 132 l93 18 l0 326 l-91 0 l0 130 l91 0 l0 194 l128 0 l0 -194 l83 0 l0 -130 l-83 0 l0 -301 l87 17 l0 -139 l-308 -60 l0 139 Z" /><glyph glyph-name="uni5740" unicode="&#x5740;" d="M45 144 l92 17 l0 315 l-84 0 l0 130 l84 0 l0 194 l130 0 l0 -194 l82 0 l0 -130 l-82 0 l0 -291 l90 17 l0 -137 l-312 -58 l0 137 ZM335 40 l87 0 l0 660 l130 0 l0 -660 l102 0 l0 760 l130 0 l0 -264 l154 0 l0 -130 l-154 0 l0 -366 l175 0 l0 -130 l-624 0 l0 130 Z" /><glyph glyph-name="uni5742" unicode="&#x5742;" d="M497 -100 q102 116 180 239 l-135 258 l-12 0 l0 -47 q0 -124 -16.5 -233.5 q-16.5 -109.5 -53.5 -216.5 l-145 0 q49 108 68 211.5 q19 103.5 19 238.5 l0 440 q283 0 540 26 l0 -128 q-182 -20 -412 -25 l0 -145 l431 0 q-50 -201 -133 -363 l142 -255 l-141 0 l-72 130 q-43 -67 -96 -130 l-164 0 ZM49 132 l98 19 l0 325 l-96 0 l0 130 l96 0 l0 194 l128 0 l0 -194 l88 0 l0 -130 l-88 0 l0 -300 l82 16 l0 -139 l-308 -60 l0 139 ZM749 269 q29 61 54 128 l-118 0 l64 -128 Z" /><glyph glyph-name="uni5747" unicode="&#x5747;" d="M708 30 l98 0 l0 540 l-277 0 q-9 -34 -21 -70 l103 0 l70 -220 l-135 0 l-56 175 l-1 -3 l-141 0 q77 173 85 358 l129 0 q-1 -56 -9 -112 l382 0 l0 -798 l-227 0 l0 130 ZM45 96 l86 15 l0 365 l-79 0 l0 130 l79 0 l0 194 l130 0 l0 -194 l79 0 l0 -130 l-79 0 l0 -343 l86 15 l0 -133 l-302 -52 l0 133 ZM392 119 l369 158 l0 -145 l-369 -158 l0 145 Z" /><glyph glyph-name="uni574F" unicode="&#x574f;" d="M351 300 q156 148 189 349 l-190 0 l0 128 l600 0 l0 -128 l-285 0 q-18 -108 -52 -192 l105 0 l0 -567 l-129 0 l-1 513 q-75 -148 -219 -251 l0 -113 l-326 -55 l0 134 l99 17 l0 339 l-93 0 l0 134 l93 0 l0 194 l133 0 l0 -194 l93 0 l0 -134 l-93 0 l0 -317 l76 13 l0 130 ZM858 550 l112 -401 l-125 0 l-112 401 l125 0 Z" /><glyph glyph-name="uni5750" unicode="&#x5750;" d="M45 40 l389 0 l0 76 l-341 0 l0 125 l341 0 l0 56 l-109 0 l-66 220 q-34 -114 -74 -220 l-129 0 q49 119 84 231 q35 112 64 243 l125 0 q-12 -68 -22 -112 l23 0 l104 -349 l0 500 l132 0 l0 -503 q47 115 81 225.5 q34 110.5 63 238.5 l125 0 q-14 -76 -22 -112 l23 0 l108 -362 l-113 0 l-66 220 q-34 -114 -74 -220 l-125 0 l0 -56 l341 0 l0 -125 l-341 0 l0 -76 l389 0 l0 -128 l-910 0 l0 128 Z" /><glyph glyph-name="uni5757" unicode="&#x5757;" d="M796 -102 q-63 137 -110 358 l-85 0 q-22 -108 -48.5 -196 q-26.5 -88 -62.5 -162 l-140 0 q79 175 121 358 l-119 0 l0 128 l203 0 l0 207 l-163 0 l0 128 l163 0 l0 91 l130 0 l0 -91 l236 0 l0 -335 l44 0 l0 -128 l-149 0 q43 -185 120 -358 l-140 0 ZM43 118 l102 17 l0 339 l-96 0 l0 134 l96 0 l0 194 l133 0 l0 -194 l96 0 l0 -134 l-96 0 l0 -317 l97 16 l0 -134 l-332 -55 l0 134 ZM797 384 l0 207 l-116 0 l0 -207 l116 0 Z" /><glyph glyph-name="uni575A" unicode="&#x575a;" d="M950 277 q-139 38 -240 114 q-84 -65 -196 -101 l52 0 l0 -47 l341 0 l0 -126 l-341 0 l0 -77 l389 0 l0 -128 l-910 0 l0 128 l389 0 l0 77 l-341 0 l0 126 l341 0 l0 47 l36 0 l0 115 q87 29 151 73 q-104 125 -129 312 l436 0 q-25 -187 -129 -312 q64 -44 151 -73 l0 -128 ZM80 757 l126 0 l0 -399 l-126 0 l0 399 ZM278 800 l130 0 l0 -492 l-130 0 l0 492 ZM641 675 q28 -65 69 -115 q41 50 69 115 l-138 0 Z" /><glyph glyph-name="uni5760" unicode="&#x5760;" d="M408 295 q101 116 147.5 239 q46.5 123 59.5 268 l132 0 q-3 -64 -14 -136 l81 0 l146 -371 l-140 0 l-108 274 q-37 -143 -124 -274 l-180 0 ZM45 38 l389 0 l0 78 l-341 0 l0 123 l341 0 l0 41 l132 0 l0 -41 l341 0 l0 -123 l-341 0 l0 -78 l389 0 l0 -126 l-910 0 l0 126 ZM70 794 l366 0 q0 -66 -13 -121 q-13 -55 -41 -109 q43 -67 43 -134 q0 -63 -41 -125 l-144 0 q32 33 47.5 63 q15.5 30 15.5 62 q0 32 -13 61.5 q-13 29.5 -41 62.5 q33 58 49 114 l-99 0 l0 -402 l-129 0 l0 528 Z" /><glyph glyph-name="uni5766" unicode="&#x5766;" d="M408 780 l511 0 l0 -633 l-511 0 l0 633 ZM43 118 l99 17 l0 339 l-93 0 l0 134 l93 0 l0 194 l133 0 l0 -194 l93 0 l0 -134 l-93 0 l0 -317 l94 16 l0 -132 l592 0 l0 -127 l-614 0 l0 121 l-304 -51 l0 134 ZM791 272 l0 130 l-255 0 l0 -130 l255 0 ZM791 525 l0 130 l-255 0 l0 -130 l255 0 Z" /><glyph glyph-name="uni576A" unicode="&#x576a;" d="M618 170 l-219 0 l0 126 l222 0 l0 363 l-207 0 l0 124 l536 0 l0 -124 l-207 0 l0 -363 l223 0 l0 -126 l-220 0 l0 -270 l-128 0 l0 270 ZM43 118 l109 17 l0 339 l-103 0 l0 134 l103 0 l0 194 l133 0 l0 -194 l103 0 l0 -134 l-103 0 l0 -318 l104 17 l0 -134 l-346 -55 l0 134 ZM538 599 l33 -243 l-103 0 l-33 243 l103 0 ZM824 599 l103 0 l-33 -243 l-103 0 l33 243 Z" /><glyph glyph-name="uni578B" unicode="&#x578b;" d="M672 399 l137 0 l0 401 l124 0 l0 -523 l-261 0 l0 122 ZM40 573 l90 0 l0 89 l-64 0 l0 132 l474 0 l0 -132 l-60 0 l0 -89 l86 0 l0 -131 l-86 0 l0 -171 l-126 0 l0 171 l-105 0 q-11 -84 -51 -171 l-154 0 q32 43 50.5 84.5 q18.5 41.5 27.5 86.5 l-82 0 l0 131 ZM45 31 l389 0 l0 66 l-346 0 l0 122 l346 0 l0 41 l132 0 l0 -41 l346 0 l0 -122 l-346 0 l0 -66 l389 0 l0 -122 l-910 0 l0 122 ZM354 573 l0 89 l-98 0 l0 -89 l98 0 ZM602 768 l124 0 l0 -327 l-124 0 l0 327 Z" /><glyph glyph-name="uni57C3" unicode="&#x57c3;" d="M361 16 q71 16 125.5 40 q54.5 24 103.5 66 l-224 0 l0 120 l237 0 l0 78 l-231 0 l62 182 l120 0 l-21 -62 l393 0 l0 -120 l-205 0 l0 -78 l231 0 l0 -120 l-221 0 q47 -41 101 -65.5 q54 -24.5 125 -40.5 l0 -126 q-101 21 -170 54.5 q-69 33.5 -124 95.5 q-61 -63 -131.5 -96 q-70.5 -33 -170.5 -54 l0 126 ZM43 118 l92 16 l0 340 l-87 0 l0 134 l87 0 l0 194 l129 0 l0 -194 l86 0 l0 -134 l-86 0 l0 -317 l87 16 l0 -134 l-308 -55 l0 134 ZM381 640 l55 0 l92 160 l140 0 l-92 -160 l205 0 l-35 98 l125 0 l78 -218 l-568 0 l0 120 Z" /><glyph glyph-name="uni57CE" unicode="&#x57ce;" d="M818 -100 q-31 73 -55 153 l-106 -62 l0 -91 l-177 0 l0 126 l66 0 l0 309 l-67 0 q-1 -130 -13.5 -233 q-12.5 -103 -46.5 -202 l-144 0 q35 80 51 150 l-281 -57 l0 133 l82 17 l0 333 l-74 0 l0 130 l74 0 l0 194 l127 0 l0 -194 l69 0 l0 -130 l-69 0 l0 -308 l77 16 l0 -113 q12 60 16.5 125 q4.5 65 4.5 154 l0 340 l350 0 l0 126 l127 0 l0 -126 l135 0 l0 -126 l-135 0 l0 -64 q0 -79 4 -138 l126 72 l0 -135 l-111 -63 q15 -87 43.5 -168.5 q28.5 -81.5 74.5 -167.5 l-148 0 ZM657 461 l0 -336 l77 45 q-31 149 -31 330 l0 64 l-224 0 l0 -103 l178 0 ZM947 810 l14 -102 l-89 0 l-14 102 l89 0 Z" /><glyph glyph-name="uni57DF" unicode="&#x57df;" d="M814 696 l146 0 l0 -123 l-142 0 l0 -140 q0 -31 2 -85 l139 72 l0 -140 l-122 -63 q15 -79 43 -153.5 q28 -74.5 72 -163.5 l-140 0 q-15 36 -30 77 l-134 -72 l0 106 l-292 -41 l0 124 l319 45 l0 -80 l69 37 q-37 146 -37 337 l0 140 l-356 0 l0 123 l344 0 l0 124 l119 0 l0 -124 ZM43 118 l88 15 l0 345 l-82 0 l0 130 l82 0 l0 194 l126 0 l0 -194 l81 0 l0 -130 l-81 0 l0 -323 l82 14 l0 -134 l-296 -51 l0 134 ZM364 519 l292 0 l0 -346 l-292 0 l0 346 ZM548 286 l0 120 l-76 0 l0 -120 l76 0 ZM937 812 l13 -99 l-84 0 l-13 99 l84 0 Z" /><glyph glyph-name="uni57FA" unicode="&#x57fa;" d="M40 369 l141 0 l0 287 l-113 0 l0 115 l113 0 l0 49 l130 0 l0 -49 l378 0 l0 49 l130 0 l0 -49 l113 0 l0 -115 l-113 0 l0 -287 l141 0 l0 -119 l-113 0 q38 -60 118 -90 l0 -129 q-115 40 -182 112 l0 -68 l-222 0 l0 -56 l357 0 l0 -116 l-837 0 l0 116 l358 0 l0 56 l-222 0 l0 68 q-67 -72 -182 -112 l0 129 q80 30 118 90 l-113 0 l0 119 ZM439 188 l0 38 l122 0 l0 -38 l187 0 q-17 24 -32 62 l-432 0 q-15 -38 -32 -62 l187 0 ZM689 355 l0 40 l-378 0 l0 -40 l378 0 ZM689 490 l0 42 l-378 0 l0 -42 l378 0 ZM689 628 l0 38 l-378 0 l0 -38 l378 0 Z" /><glyph glyph-name="uni5802" unicode="&#x5802;" d="M434 23 l0 64 l-333 0 l0 114 l333 0 l0 49 l-275 0 l0 243 l-114 0 l0 211 l108 0 l-39 104 l136 0 l39 -104 l147 0 l0 116 l128 0 l0 -116 l147 0 l39 104 l136 0 l-39 -104 l108 0 l0 -211 l-113 0 l0 -243 l-276 0 l0 -49 l333 0 l0 -114 l-333 0 l0 -64 l384 0 l0 -116 l-900 0 l0 116 l384 0 ZM825 543 l0 45 l-650 0 l0 -45 l650 0 ZM712 360 l0 73 l-423 0 l0 -73 l423 0 Z" /><glyph glyph-name="uni5815" unicode="&#x5815;" d="M807 293 l-184 0 l0 -43 l-121 0 l0 254 q-40 -32 -96 -58 l0 127 q71 41 108 98 l-89 0 l0 113 l136 0 q3 12 7 36 l114 0 l-6 -36 l284 0 l0 -113 l-322 0 l-15 -30 l305 0 l0 -407 l-121 0 l0 59 ZM45 27 l389 0 l0 58 l-346 0 l0 119 l346 0 l0 35 l132 0 l0 -35 l346 0 l0 -119 l-346 0 l0 -58 l389 0 l0 -120 l-910 0 l0 120 ZM70 794 l339 0 q0 -69 -13 -127 q-13 -58 -40 -116 q42 -70 42 -143 q0 -69 -39 -133 l-139 0 q31 36 46 67.5 q15 31.5 15 65.5 q0 65 -52 131 q34 66 48 127 l-80 0 l0 -432 l-127 0 l0 560 ZM807 379 l0 38 l-184 0 l0 -38 l184 0 ZM807 505 l0 39 l-184 0 l0 -39 l184 0 Z" /><glyph glyph-name="uni582A" unicode="&#x582a;" d="M391 218 l-52 0 l0 115 l73 0 l0 315 l-52 0 l0 109 l52 0 l0 42 l127 0 l0 -42 l220 0 l0 42 l127 0 l0 -42 l52 0 l0 -109 l-52 0 l0 -315 l71 0 l2 -115 l-440 0 l0 -192 l396 0 l0 -116 l-524 0 l0 308 ZM44 132 l88 18 l0 322 l-82 0 l0 134 l82 0 l0 194 l126 0 l0 -194 l80 0 l0 -134 l-80 0 l0 -297 l84 17 l0 -139 l-298 -60 l0 139 ZM759 327 l0 47 l-220 0 l0 -47 l220 0 ZM759 464 l0 47 l-220 0 l0 -47 l220 0 ZM759 601 l0 47 l-220 0 l0 -47 l220 0 ZM600 197 l114 0 l-54 -148 l-115 0 l55 148 ZM866 197 l54 -148 l-115 0 l-54 148 l115 0 Z" /><glyph glyph-name="uni5854" unicode="&#x5854;" d="M913 238 l0 -332 l-508 0 l0 332 l508 0 ZM45 116 l102 17 l0 343 l-96 0 l0 130 l96 0 l0 194 l129 0 l0 -194 l96 0 l0 -130 l-96 0 l0 -321 l97 16 l0 -130 l-328 -55 l0 130 ZM358 380 q119 76 176 193 l-82 0 l0 60 l-93 0 l0 122 l93 0 l0 48 l124 0 l0 -48 l166 0 l0 48 l124 0 l0 -48 l93 0 l0 -122 l-93 0 l0 -60 l-82 0 q57 -117 176 -193 l0 -152 q-86 44 -153 107 l0 -47 l-296 0 l0 47 q-67 -63 -153 -107 l0 152 ZM789 20 l0 104 l-260 0 l0 -104 l260 0 ZM755 390 q-25 32 -48 66 l-96 0 q-21 -34 -48 -66 l192 0 ZM742 576 l0 57 l-166 0 l0 -57 l166 0 Z" /><glyph glyph-name="uni589E" unicode="&#x589e;" d="M49 132 l96 18 l0 322 l-91 0 l0 134 l91 0 l0 194 l126 0 l0 -194 l86 0 l0 -134 l-86 0 l0 -297 l91 17 l0 -139 l-313 -60 l0 139 ZM381 726 l88 0 l-31 74 l133 0 l31 -74 l132 0 l31 74 l132 0 l-31 -74 l77 0 l0 -386 l-562 0 l0 386 ZM404 298 l517 0 l0 -388 l-517 0 l0 388 ZM617 441 l0 184 l-120 0 l0 -184 l120 0 ZM576 601 l31 -136 l-69 0 l-31 136 l69 0 ZM792 3 l0 58 l-259 0 l0 -58 l259 0 ZM792 148 l0 57 l-259 0 l0 -57 l259 0 ZM827 441 l0 184 l-119 0 l0 -184 l119 0 ZM749 601 l68 0 l-31 -136 l-69 0 l32 136 Z" /><glyph glyph-name="uni589F" unicode="&#x589f;" d="M834 553 l-113 0 l0 -47 l90 20 l0 -94 l-90 -18 l0 -27 l234 0 l0 -96 l-355 0 l0 87 l-109 -25 l0 -39 q0 -119 -11 -218.5 q-11 -99.5 -37 -195.5 l-133 0 q33 101 47 197 q14 96 14 217 l0 345 l208 0 l0 161 l127 0 l0 -29 l260 0 l0 -98 l-260 0 l0 -34 l252 0 l0 -232 l-124 0 l0 126 ZM46 116 l95 17 l0 344 l-89 0 l0 128 l89 0 l0 194 l127 0 l0 -194 l80 0 l0 -128 l-80 0 l0 -320 l67 12 l0 -127 l-289 -54 l0 128 ZM600 479 l0 74 l-109 0 l0 -99 l109 25 ZM496 14 l128 0 l0 258 l99 0 l0 -258 l29 0 l0 258 l100 0 l0 -258 l108 0 l0 -114 l-464 0 l0 114 ZM583 253 l19 -214 l-71 0 l-21 214 l73 0 ZM887 253 l73 0 l-20 -214 l-73 0 l20 214 Z" /><glyph glyph-name="uni58A8" unicode="&#x58a8;" d="M902 792 l0 -255 l-338 0 l0 -26 l352 0 l0 -87 l-352 0 l0 -26 l390 0 l0 -91 l-908 0 l0 91 l390 0 l0 26 l-352 0 l0 87 l352 0 l0 26 l-338 0 l0 255 l804 0 ZM111 288 l147 0 l-75 -111 l-147 0 l75 111 ZM49 7 l385 0 l0 39 l-334 0 l0 103 l334 0 l0 28 l-137 0 l39 111 l137 0 l-38 -109 l130 0 l-38 109 l137 0 l39 -111 l-137 0 l0 -28 l334 0 l0 -103 l-334 0 l0 -39 l384 0 l0 -104 l-901 0 l0 104 ZM436 611 l0 100 l-210 0 l0 -100 l210 0 ZM250 703 l162 -17 l0 -66 l-162 17 l0 66 ZM774 611 l0 100 l-210 0 l0 -100 l210 0 ZM588 686 l162 17 l0 -66 l-162 -17 l0 66 ZM889 288 l75 -111 l-147 0 l-75 111 l147 0 Z" /><glyph glyph-name="uni58C1" unicode="&#x58c1;" d="M950 -92 l-901 0 l0 120 l385 0 l0 62 l-322 0 l0 118 l322 0 l0 45 l132 0 l0 -45 l322 0 l0 -118 l-322 0 l0 -62 l384 0 l0 -120 ZM30 265 q25 70 36.5 137 q11.5 67 11.5 147 l0 239 l395 0 l0 -248 l-279 0 q-1 -77 -11 -143 q-10 -66 -31 -132 l-122 0 ZM353 637 l0 49 l-153 0 l0 -49 l153 0 ZM210 510 l263 0 l0 -245 l-263 0 l0 245 ZM373 355 l0 65 l-63 0 l0 -65 l63 0 ZM490 571 l86 0 l-20 88 l-46 0 l0 111 l146 0 l0 41 l128 0 l0 -41 l146 0 l0 -111 l-46 0 l-20 -88 l86 0 l0 -109 l-166 0 l0 -51 l156 0 l0 -113 l-156 0 l0 -44 l-128 0 l0 44 l-156 0 l0 113 l156 0 l0 51 l-166 0 l0 109 ZM684 571 l72 0 l20 88 l-112 0 l20 -88 Z" /><glyph glyph-name="uni58EB" unicode="&#x58eb;" d="M50 547 l381 0 l0 253 l138 0 l0 -253 l381 0 l0 -133 l-381 0 l0 -358 l333 0 l0 -133 l-804 0 l0 133 l333 0 l0 358 l-381 0 l0 133 Z" /><glyph glyph-name="uni58EE" unicode="&#x58ee;" d="M240 800 l129 0 l0 -900 l-129 0 l0 900 ZM94 350 l118 0 l-42 -394 l-118 0 l42 394 ZM170 744 l42 -350 l-118 0 l-42 350 l118 0 ZM412 592 l211 0 l0 212 l132 0 l0 -212 l205 0 l0 -128 l-205 0 l0 -410 l180 0 l0 -130 l-498 0 l0 130 l186 0 l0 410 l-211 0 l0 128 Z" /><glyph glyph-name="uni58F0" unicode="&#x58f0;" d="M30 -100 q48 106 67.5 206.5 q19.5 100.5 19.5 229.5 l0 118 l799 0 l0 -315 l-682 0 q-18 -130 -59 -239 l-145 0 ZM40 782 l393 0 l0 32 l134 0 l0 -32 l393 0 l0 -119 l-393 0 l0 -48 l343 0 l0 -115 l-820 0 l0 115 l343 0 l0 48 l-393 0 l0 119 ZM460 261 l0 71 l-215 0 l-1 -71 l216 0 ZM788 261 l0 71 l-200 0 l0 -71 l200 0 Z" /><glyph glyph-name="uni58F3" unicode="&#x58f3;" d="M635 119 l-276 0 q-10 -63 -34 -116 q-24 -53 -68 -103 l-184 0 q60 51 95 99 q35 48 51.5 106.5 q16.5 58.5 16.5 139.5 l528 0 l0 -217 l186 0 l0 -128 l-315 0 l0 219 ZM45 410 l910 0 l0 -223 l-130 0 l0 112 l-650 0 l0 -112 l-130 0 l0 223 ZM58 767 l375 0 l0 47 l134 0 l0 -47 l375 0 l0 -122 l-375 0 l0 -61 l329 0 l0 -122 l-792 0 l0 122 l329 0 l0 61 l-375 0 l0 122 Z" /><glyph glyph-name="uni5904" unicode="&#x5904;" d="M33 -100 q125 128 198 249 l-167 177 l173 0 l55 -56 q54 130 74 302 l-116 0 q-30 -108 -76 -209 l-144 0 q102 212 130 437 l134 0 q-6 -51 -15 -98 l226 0 q-9 -166 -35 -294.5 q-26 -128.5 -78 -240.5 l126 -129 l432 0 l0 -128 l-495 0 l-130 138 q-43 -69 -112 -148 l-180 0 ZM588 800 l130 0 l0 -730 l-130 0 l0 730 ZM874 691 q63 -237 72 -497 l-123 0 q-9 252 -80 497 l131 0 Z" /><glyph glyph-name="uni5907" unicode="&#x5907;" d="M860 793 q-77 -174 -222 -284 q120 -46 311 -79 l0 -130 q-27 3 -68 11 l0 -404 l-762 0 l0 404 q-41 -8 -68 -11 l0 130 q184 30 313 79 q-55 41 -105 96 q-77 -52 -169 -68 l0 130 q56 23 96 54 q40 31 69 72 l605 0 ZM436 20 l0 56 l-188 0 l0 -56 l188 0 ZM436 172 l0 56 l-188 0 l0 -56 l188 0 ZM741 341 q-130 33 -240 85 q-108 -52 -241 -85 l481 0 ZM381 673 q51 -53 119 -97 q66 41 119 97 l-238 0 ZM752 20 l0 56 l-188 0 l0 -56 l188 0 ZM752 172 l0 56 l-188 0 l0 -56 l188 0 Z" /><glyph glyph-name="uni590D" unicode="&#x590d;" d="M882 247 q-76 -121 -222 -199 q123 -29 294 -48 l0 -106 q-273 28 -454 87 q-179 -59 -454 -87 l0 106 q170 19 294 48 q-49 26 -93 59 q-76 -45 -176 -59 l0 108 q110 31 170 91 l641 0 ZM50 639 q46 30 79.5 66 q33.5 36 59.5 84 l717 0 l0 -120 l-651 0 q-12 -18 -27 -36 l625 0 l0 -362 l-706 0 l0 287 q-45 -33 -97 -50 l0 131 ZM723 368 l0 42 l-446 0 l0 -42 l446 0 ZM723 495 l0 42 l-446 0 l0 -42 l446 0 ZM381 151 q60 -37 119 -59 q59 22 119 59 l-238 0 Z" /><glyph glyph-name="uni590F" unicode="&#x590f;" d="M417 658 l6 29 l-373 0 l0 108 l900 0 l0 -108 l-395 0 l-6 -29 l316 0 l0 -396 l-730 0 l0 396 l282 0 ZM46 -3 q167 19 290 45 q-44 22 -88 53 q-78 -44 -177 -57 l0 104 q109 29 170 87 l641 0 q-77 -115 -218 -188 q127 -29 290 -47 l0 -100 q-269 26 -453 82 q-178 -55 -455 -82 l0 103 ZM735 345 l0 33 l-470 0 l0 -33 l470 0 ZM735 446 l0 31 l-470 0 l0 -31 l470 0 ZM735 545 l0 31 l-470 0 l0 -31 l470 0 ZM380 138 q57 -33 120 -57 q63 24 120 57 l-240 0 Z" /><glyph glyph-name="uni5916" unicode="&#x5916;" d="M84 -100 q85 93 141.5 180 q56.5 87 90.5 178 l-113 60 q-13 -45 -30 -90 l-143 0 q102 277 130 572 l139 0 q-6 -66 -10 -98 l221 0 q0 -180 -20.5 -313.5 q-20.5 -133.5 -74 -253 q-53.5 -119.5 -152.5 -235.5 l-179 0 ZM353 386 q19 85 25 186 l-115 0 q-12 -71 -25 -125 l115 -61 ZM588 800 l130 0 l0 -900 l-130 0 l0 900 ZM873 631 q69 -260 78 -542 l-121 0 q-9 271 -87 542 l130 0 Z" /><glyph glyph-name="uni591A" unicode="&#x591a;" d="M50 13 q253 13 412 64 l-83 137 q-107 -102 -280 -149 l0 131 q71 26 123.5 60 q52.5 34 90.5 80 q-101 -17 -243 -23 l0 118 q219 12 359 53 l-73 123 q-96 -85 -247 -127 l0 130 q82 32 139 77 q57 45 97 108 l556 0 q-35 -150 -127.5 -251 q-92.5 -101 -254.5 -158 l406 0 q-38 -158 -139 -263 q-101 -105 -281.5 -163.5 q-180.5 -58.5 -454.5 -69.5 l0 123 ZM480 638 l65 -110 q108 53 167 143 l-296 0 q-18 -22 -28 -33 l92 0 ZM522 225 l59 -96 q93 51 147 133 l-306 0 q-17 -22 -32 -37 l132 0 Z" /><glyph glyph-name="uni591C" unicode="&#x591c;" d="M332 20 q124 33 216 97 q-49 55 -91 132 l-20 -43 l-136 0 q88 187 129 379 l496 0 q-37 -293 -192 -469 q92 -64 216 -96 l0 -130 q-184 44 -308 140 q-127 -97 -310 -140 l0 130 ZM36 316 q116 119 162 294 l130 0 q-19 -100 -59 -191 l0 -519 l-128 0 l0 323 q-46 -52 -105 -96 l0 189 ZM50 767 l385 0 l0 53 l130 0 l0 -53 l385 0 l0 -126 l-900 0 l0 126 ZM523 399 q41 -117 118 -201 q34 37 58 77 l-86 0 l-34 154 l106 0 l29 -130 q44 79 66 166 l-239 0 l-18 -66 Z" /><glyph glyph-name="uni591F" unicode="&#x591f;" d="M189 189 l41 0 l0 198 l-41 0 l0 -198 ZM30 425 q66 183 98 375 l131 0 l-12 -69 l238 0 l0 -831 l-192 0 l0 130 l71 0 l0 573 l-144 0 q-10 -40 -26 -98 l134 0 l0 -435 l-236 0 l0 355 l-62 0 ZM497 15 q113 23 185 76 l-60 96 q-47 -31 -109 -48 l0 132 q89 40 140 116 q-59 -25 -139 -41 l0 128 q67 14 125 44 l-46 81 q-41 -25 -82 -37 l0 124 q41 20 73.5 49.5 q32.5 29.5 49.5 64.5 l321 0 q-45 -266 -236 -380 l251 0 q-23 -158 -75.5 -265.5 q-52.5 -107.5 -149 -173.5 q-96.5 -66 -248.5 -90 l0 124 ZM730 584 q43 44 69 101 l-110 0 l-8 -10 l49 -91 ZM765 179 q33 50 57 121 l-90 0 q-7 -11 -23 -33 l56 -88 Z" /><glyph glyph-name="uni5927" unicode="&#x5927;" d="M952 -110 q-177 56 -284.5 144.5 q-107.5 88.5 -166.5 220.5 q-60 -132 -167.5 -220.5 q-107.5 -88.5 -284.5 -144.5 l0 143 q108 44 179.5 96 q71.5 52 121 129 q49.5 77 84.5 194 l-384 0 l0 130 l385 0 l-1 228 l132 0 l0 -228 l384 0 l0 -130 l-383 0 q35 -117 84.5 -194 q49.5 -77 121 -129 q71.5 -52 179.5 -96 l0 -143 Z" /><glyph glyph-name="uni5929" unicode="&#x5929;" d="M951 -110 q-176 52 -283.5 135 q-107.5 83 -167.5 206 q-60 -123 -167.5 -206 q-107.5 -83 -283.5 -135 l0 140 q142 52 224.5 122 q82.5 70 133.5 190 l-357 0 l0 129 l383 0 l-1 176 l-337 0 l0 129 l810 0 l0 -129 l-337 0 l0 -176 l382 0 l0 -129 l-357 0 q51 -120 133.5 -190 q82.5 -70 224.5 -122 l0 -140 Z" /><glyph glyph-name="uni592A" unicode="&#x592a;" d="M952 -110 q-177 57 -284.5 147.5 q-107.5 90.5 -166.5 224.5 q-51 -111 -124 -184 l103 0 l40 -167 l-124 0 l-36 150 q-116 -108 -311 -171 l0 143 q108 45 179.5 98.5 q71.5 53.5 121 132 q49.5 78.5 84.5 198.5 l-384 0 l0 130 l385 0 l-1 218 l132 0 l0 -218 l384 0 l0 -130 l-383 0 q35 -120 84.5 -198.5 q49.5 -78.5 121 -132 q71.5 -53.5 179.5 -98.5 l0 -143 Z" /><glyph glyph-name="uni592B" unicode="&#x592b;" d="M951 -110 q-176 50 -283.5 129 q-107.5 79 -167.5 196 q-60 -117 -167.5 -196 q-107.5 -79 -283.5 -129 l0 138 q135 46 215.5 107.5 q80.5 61.5 131.5 164.5 l-354 0 l0 128 l391 0 l0 165 l-347 0 l0 127 l346 0 l0 100 l136 0 l0 -100 l346 0 l0 -127 l-346 0 l0 -165 l390 0 l0 -128 l-354 0 q51 -103 131.5 -164.5 q80.5 -61.5 215.5 -107.5 l0 -138 Z" /><glyph glyph-name="uni592D" unicode="&#x592d;" d="M951 -110 q-176 52 -283.5 135 q-107.5 83 -167.5 206 q-60 -123 -167.5 -206 q-107.5 -83 -283.5 -135 l0 140 q142 52 224.5 122 q82.5 70 133.5 190 l-357 0 l0 129 l383 0 l-1 169 q-150 -7 -322 -7 l0 128 q383 0 780 47 l0 -128 q-181 -22 -322 -31 l0 -178 l382 0 l0 -129 l-357 0 q51 -120 133.5 -190 q82.5 -70 224.5 -122 l0 -140 Z" /><glyph glyph-name="uni5931" unicode="&#x5931;" d="M951 -110 q-176 50 -283.5 129 q-107.5 79 -167.5 196 q-60 -117 -167.5 -196 q-107.5 -79 -283.5 -129 l0 138 q135 46 215.5 107.5 q80.5 61.5 131.5 164.5 l-354 0 l0 128 l391 0 l0 165 l-197 0 q-20 -71 -39 -116 l-143 0 q70 164 87 321 l129 0 q-3 -39 -9 -78 l171 0 l0 100 l136 0 l0 -100 l341 0 l0 -127 l-341 0 l0 -165 l390 0 l0 -128 l-354 0 q51 -103 131.5 -164.5 q80.5 -61.5 215.5 -107.5 l0 -138 Z" /><glyph glyph-name="uni5934" unicode="&#x5934;" d="M72 34 q220 58 464 176 l-486 0 l0 128 l521 0 l0 472 l128 0 l0 -472 l251 0 l0 -128 l-220 0 q86 -56 142.5 -135 q56.5 -79 82.5 -174 l-129 0 q-55 137 -183 220 q-252 -142 -571 -231 l0 144 ZM108 625 l283 -91 l0 -131 l-283 91 l0 131 ZM244 797 l283 -91 l0 -131 l-283 91 l0 131 Z" /><glyph glyph-name="uni593A" unicode="&#x593a;" d="M960 371 q-93 24 -169 57 l0 -55 l126 0 l0 -126 l-126 0 l0 -347 l-235 0 l0 128 l103 0 l0 219 l-576 0 l0 126 l576 0 l0 69 l103 0 q-143 72 -206 190 l-112 0 q-97 -185 -404 -261 l0 134 q170 38 247 127 l-209 0 l0 124 l355 0 l0 64 l134 0 l0 -64 l355 0 l0 -124 l-209 0 q77 -89 247 -127 l0 -134 ZM182 221 l316 -117 l0 -131 l-316 117 l0 131 Z" /><glyph glyph-name="uni5947" unicode="&#x5947;" d="M632 267 l0 -302 l-489 0 l0 302 l489 0 ZM40 439 l30 0 l0 117 q172 15 285 94 l-285 0 l0 120 l364 0 l0 50 l132 0 l0 -50 l364 0 l0 -120 l-285 0 q113 -79 285 -94 l0 -117 l30 0 l0 -124 l-91 0 l0 -415 l-212 0 l0 128 l82 0 l0 287 l-699 0 l0 124 ZM900 439 q-267 30 -400 180 q-133 -150 -400 -180 l800 0 ZM504 76 l0 81 l-233 0 l0 -81 l233 0 Z" /><glyph glyph-name="uni5948" unicode="&#x5948;" d="M960 340 q-150 39 -246 106 l0 -100 l-428 0 l0 100 q-96 -67 -246 -106 l0 134 q88 22 148.5 57 q60.5 35 98.5 84 l-237 0 l0 126 l384 0 l0 79 l132 0 l0 -79 l384 0 l0 -126 l-237 0 q38 -49 98.5 -84 q60.5 -35 148.5 -57 l0 -134 ZM64 -90 q76 105 111 201 l139 0 q-33 -98 -99 -201 l-151 0 ZM83 271 l834 0 l0 -122 l-352 0 l0 -249 l-130 0 l0 249 l-352 0 l0 122 ZM683 468 q-81 64 -121 147 l-124 0 q-40 -83 -121 -147 l366 0 ZM825 111 q35 -96 111 -201 l-151 0 q-66 103 -99 201 l139 0 Z" /><glyph glyph-name="uni5949" unicode="&#x5949;" d="M960 113 q-113 40 -188 112 l0 -46 l-206 0 l0 -64 l333 0 l0 -118 l-333 0 l0 -97 l-132 0 l0 97 l-333 0 l0 118 l333 0 l0 64 l-206 0 l0 46 q-75 -72 -188 -112 l0 130 q101 42 150 123 l-150 0 l0 110 l394 0 l0 46 l-325 0 l0 98 l325 0 l0 46 l-364 0 l0 109 l364 0 l0 45 l132 0 l0 -45 l364 0 l0 -109 l-364 0 l0 -46 l325 0 l0 -98 l-325 0 l0 -46 l394 0 l0 -110 l-150 0 q49 -81 150 -123 l0 -130 ZM434 295 l0 55 l132 0 l0 -55 l148 0 q-23 36 -37 71 l-354 0 q-14 -35 -37 -71 l148 0 Z" /><glyph glyph-name="uni5951" unicode="&#x5951;" d="M950 -104 q-300 24 -450 174 q-150 -150 -450 -174 l0 126 q215 17 344 120 l-332 0 l0 120 l372 0 l0 43 l132 0 l0 -43 l372 0 l0 -120 l-332 0 q129 -103 344 -120 l0 -126 ZM50 470 l168 0 l0 46 l-139 0 l0 102 l139 0 l0 46 l-153 0 l0 106 l153 0 l0 40 l130 0 l0 -40 l145 0 l0 -106 l-145 0 l0 -46 l131 0 l0 -102 l-131 0 l0 -46 l160 0 l0 -106 l-160 0 l0 -58 l-130 0 l0 58 l-168 0 l0 106 ZM489 325 q102 165 114 342 l-82 0 l0 118 l416 0 l-7 -460 l-195 0 l0 125 l72 0 l4 217 l-84 0 q-8 -190 -91 -342 l-147 0 Z" /><glyph glyph-name="uni5954" unicode="&#x5954;" d="M960 335 q-121 33 -205 85 l0 -89 l-191 0 l0 -102 l-128 0 l0 102 l-191 0 l0 89 q-84 -52 -205 -85 l0 135 q147 39 217 123 l-207 0 l0 126 l384 0 l0 101 l132 0 l0 -101 l384 0 l0 -126 l-207 0 q70 -84 217 -123 l0 -135 ZM50 191 l156 0 q2 34 2 51 l0 53 l130 0 l0 -53 q0 -34 -2 -51 l332 0 l0 104 l130 0 l0 -104 l152 0 l0 -126 l-152 0 l0 -165 l-130 0 l0 165 l-352 0 q-23 -85 -75 -165 l-166 0 q71 81 103 165 l-128 0 l0 126 ZM436 453 l0 97 l128 0 l0 -97 l143 0 q-78 60 -119 140 l-176 0 q-41 -80 -119 -140 l143 0 Z" /><glyph glyph-name="uni5956" unicode="&#x5956;" d="M456 472 q106 14 170 39 l-54 93 q-52 -32 -116 -49 l0 128 q93 37 138 117 l350 0 q-13 -159 -71.5 -252.5 q-58.5 -93.5 -159.5 -138.5 q-101 -45 -257 -59 l0 122 ZM50 23 q226 20 359 135 l-334 0 l0 126 l359 0 l0 58 l132 0 l0 -58 l359 0 l0 -126 l-334 0 q133 -115 359 -135 l0 -127 q-299 24 -450 175 q-151 -151 -450 -175 l0 127 ZM65 500 l217 79 l0 221 l129 0 l0 -435 l-129 0 l0 86 l-217 -79 l0 128 ZM209 785 l44 -189 l-121 0 l-44 189 l121 0 ZM723 569 q47 42 72 109 l-136 0 l64 -109 Z" /><glyph glyph-name="uni5957" unicode="&#x5957;" d="M960 410 q-89 23 -155 55 l0 -89 l-483 0 l0 -35 l483 0 l0 -91 l-483 0 l0 -35 l628 0 l0 -114 l-553 0 l-40 -76 l352 0 l-22 54 l155 0 l68 -170 l-813 0 l0 116 l99 0 l40 76 l-186 0 l0 114 l142 0 l0 248 q-70 -31 -152 -53 l0 128 q137 36 209 103 l-199 0 l0 118 l384 0 l0 61 l132 0 l0 -61 l384 0 l0 -118 l-199 0 q72 -67 209 -103 l0 -128 ZM800 467 q-33 16 -65 35 l-413 0 l0 -35 l478 0 ZM624 593 q-19 23 -36 48 l-176 0 q-16 -25 -36 -48 l248 0 Z" /><glyph glyph-name="uni5965" unicode="&#x5965;" d="M105 773 l319 0 l15 43 l134 0 l-14 -43 l337 0 l0 -530 l-125 0 l0 423 l-542 0 l0 -423 l-124 0 l0 530 ZM43 3 q112 18 198 42 q86 24 166 63 l-357 0 l0 110 l384 0 l0 31 l131 0 l0 -31 l385 0 l0 -110 l-358 0 q81 -39 167 -63 q86 -24 198 -42 l0 -112 q-156 25 -259.5 53 q-103.5 28 -197.5 78 q-93 -49 -197 -77.5 q-104 -28.5 -260 -53.5 l0 112 ZM246 526 l192 0 l0 121 l124 0 l0 -121 l190 0 l0 -94 l-190 0 l0 -169 l-124 0 l0 169 l-192 0 l0 94 ZM254 263 q36 66 49 150 l108 0 q-9 -48 -19 -83 q-10 -35 -26 -67 l-112 0 ZM372 647 l34 -103 l-104 0 l-35 103 l105 0 ZM696 413 q16 -89 50 -150 l-112 0 q-33 59 -45 150 l107 0 ZM628 647 l103 0 l-34 -103 l-103 0 l34 103 Z" /><glyph glyph-name="uni5973" unicode="&#x5973;" d="M546 94 q-185 -136 -496 -204 l0 138 q227 61 361 140 l-302 167 l111 257 l-190 0 l0 128 l246 0 l43 100 l155 0 l-43 -100 l539 0 l0 -128 l-127 0 q-42 -240 -188 -400 l260 -146 l0 -156 l-369 204 ZM533 261 q130 125 172 331 l-329 0 l-84 -196 l241 -135 Z" /><glyph glyph-name="uni5974" unicode="&#x5974;" d="M31 -100 q99 123 152 217 l-135 99 l68 341 l-66 0 l0 130 l92 0 l23 113 l138 0 l-21 -113 l153 0 q0 -162 -22.5 -286.5 q-22.5 -124.5 -69.5 -237.5 l60 -44 l-8 -157 l-111 81 q-35 -66 -87 -143 l-166 0 ZM242 239 q56 139 69 318 l-66 0 l-55 -280 l52 -38 ZM442 47 q107 68 184 174 q-97 169 -131 401 l-42 0 l0 128 l468 0 q-21 -310 -144 -529 q79 -107 184 -174 l0 -159 q-153 85 -260 220 q-105 -135 -259 -220 l0 159 ZM619 622 q26 -155 83 -273 q56 120 82 273 l-165 0 Z" /><glyph glyph-name="uni5979" unicode="&#x5979;" d="M473 383 l-52 -20 l0 154 l52 20 l0 223 l119 0 l0 -178 l61 24 l0 198 l119 0 l0 -153 l172 66 l0 -600 l-120 0 l0 400 l-52 -20 l0 -380 l-119 0 l0 335 l-61 -24 l0 -392 l371 0 l0 -129 l-490 0 l0 476 ZM50 687 l72 0 l17 113 l138 0 l-15 -113 l148 0 q0 -173 -13.5 -290.5 q-13.5 -117.5 -52.5 -228.5 l69 -49 l0 -157 l-120 85 q-37 -75 -81 -147 l-158 0 q92 135 134 220 l-135 96 l50 341 l-53 0 l0 130 ZM239 244 q41 128 50 313 l-64 0 l-39 -276 l53 -37 Z" /><glyph glyph-name="uni597D" unicode="&#x597d;" d="M308 36 q-34 -67 -76 -136 l-158 0 q87 127 129 210 l-150 106 l50 341 l-53 0 l0 130 l72 0 l17 113 l138 0 l-15 -113 l168 0 q0 -177 -14.5 -296.5 q-14.5 -119.5 -55.5 -233.5 l53 -38 l0 -157 l-105 74 ZM255 232 q46 138 54 325 l-84 0 l-39 -276 l69 -49 ZM438 441 l201 0 q69 102 104 214 l-263 0 l0 130 l433 0 q-39 -195 -127 -344 l184 0 l0 -130 l-192 0 l0 -411 l-271 0 l0 130 l145 0 l0 281 l-214 0 l0 130 Z" /><glyph glyph-name="uni5982" unicode="&#x5982;" d="M296 800 l-23 -113 l193 0 q-6 -170 -25.5 -287 q-19.5 -117 -64.5 -228 l94 -64 l0 -162 l-152 105 q-34 -64 -92 -151 l-175 0 q99 126 156 229 l-154 107 l66 321 l-69 0 l0 130 l96 0 l23 113 l127 0 ZM264 250 q51 135 66 307 l-83 0 l-52 -261 l69 -46 ZM539 748 l381 0 l0 -792 l-381 0 l0 792 ZM793 85 l0 534 l-127 0 l0 -534 l127 0 Z" /><glyph glyph-name="uni5987" unicode="&#x5987;" d="M448 52 l345 0 l0 237 l-312 0 l0 132 l312 0 l0 223 l-351 0 l0 133 l494 0 l0 -858 l-488 0 l0 133 ZM50 687 l88 0 l21 113 l138 0 l-17 -113 l145 0 q0 -183 -12 -299 q-12 -116 -50 -227 l64 -44 l0 -157 l-114 78 q-30 -63 -76 -138 l-158 0 q88 127 127 211 l-153 105 l62 341 l-65 0 l0 130 ZM256 235 q41 131 48 322 l-61 0 l-54 -276 l67 -46 Z" /><glyph glyph-name="uni5988" unicode="&#x5988;" d="M657 26 l158 0 l10 265 l-369 0 l36 371 l-53 0 l0 128 l463 0 l-30 -371 l83 0 l-20 -519 l-278 0 l0 126 ZM50 687 l72 0 l17 113 l138 0 l-15 -113 l164 0 q0 -176 -14.5 -295.5 q-14.5 -119.5 -55.5 -233.5 l63 -46 l0 102 l324 0 l0 -128 l-305 0 l0 -145 l-134 96 q-32 -65 -76 -137 l-158 0 q90 130 130 211 l-147 105 l50 341 l-53 0 l0 130 ZM251 234 q46 137 54 323 l-80 0 l-39 -276 l65 -47 ZM748 419 l20 243 l-153 0 l-23 -243 l156 0 Z" /><glyph glyph-name="uni5992" unicode="&#x5992;" d="M305 47 q-38 -79 -77 -147 l-159 0 q85 131 127 221 l-141 95 l50 341 l-55 0 l0 130 l74 0 l17 113 l136 0 l-15 -113 l154 0 q0 -172 -13 -289.5 q-13 -117.5 -50 -228.5 l63 -43 l0 -154 l-111 75 ZM243 245 q38 128 47 312 l-57 0 l-39 -278 l49 -34 ZM394 -100 q45 101 62 199.5 q17 98.5 17 225.5 l0 399 l180 0 l0 82 l130 0 l0 -82 l166 0 l0 -430 l-347 0 q-1 -107 -16 -202 q-15 -95 -44 -192 l-148 0 ZM820 424 l0 170 l-218 0 l0 -170 l218 0 Z" /><glyph glyph-name="uni5996" unicode="&#x5996;" d="M368 -101 q18 22 50 64 l-118 82 q-30 -66 -75 -145 l-162 0 q85 128 128 221 l-136 95 l49 341 l-54 0 l0 130 l73 0 l16 113 l129 0 l-15 -113 l159 0 q0 -174 -13 -291.5 q-13 -117.5 -50 -229.5 l70 -50 l0 -151 q73 99 115 189 q42 90 62 197 l-174 0 l0 128 l189 0 q4 51 4 121 l0 49 q-88 -3 -177 -3 l0 128 q259 0 496 26 l0 -128 q-79 -10 -190 -17 l0 -55 q0 -64 -3 -121 l210 0 l0 -128 l-220 0 q179 -199 239 -450 l-128 0 q-51 179 -149 303 q-45 -149 -150 -305 l-175 0 ZM239 244 q39 126 48 313 l-60 0 l-38 -278 l50 -35 Z" /><glyph glyph-name="uni5999" unicode="&#x5999;" d="M292 50 q-33 -71 -78 -150 l-160 0 q88 134 130 225 l-130 91 l49 341 l-55 0 l0 130 l74 0 l16 113 l128 0 l-15 -113 l150 0 q0 -172 -12.5 -288.5 q-12.5 -116.5 -48.5 -225.5 l52 -37 l0 -156 l-100 70 ZM231 249 q38 127 47 308 l-52 0 l-38 -277 l43 -31 ZM390 308 q38 117 56 221.5 q18 104.5 19 223.5 l119 0 q-1 -122 -15.5 -226 q-14.5 -104 -44.5 -219 l-134 0 ZM417 25 q162 17 264 94 q102 77 126 204 l135 0 q-31 -185 -159.5 -297.5 q-128.5 -112.5 -365.5 -135.5 l0 135 ZM625 810 l128 0 l0 -537 l-128 0 l0 537 ZM904 754 q28 -106 41 -198 q13 -92 14 -197 l-117 0 q-2 104 -17.5 196 q-15.5 92 -46.5 199 l126 0 Z" /><glyph glyph-name="uni59A8" unicode="&#x59a8;" d="M64 -100 q87 127 129 210 l-140 106 l50 341 l-53 0 l0 130 l72 0 l17 113 l138 0 l-15 -113 l158 0 q0 -179 -14.5 -299.5 q-14.5 -120.5 -57.5 -235.5 l70 -54 l0 -109 q103 178 103 384 l0 215 l-86 0 l0 130 l204 0 l0 92 l130 0 l0 -92 l181 0 l0 -130 l-299 0 l0 -135 l265 0 l0 -553 l-233 0 l0 126 l105 0 l0 301 l-140 0 q-4 -116 -33.5 -218.5 q-29.5 -102.5 -86.5 -208.5 l-169 0 q25 34 39 56 l-102 77 q-27 -55 -74 -133 l-158 0 ZM245 233 q46 137 54 324 l-74 0 l-39 -278 l59 -46 Z" /><glyph glyph-name="uni59AE" unicode="&#x59ae;" d="M41 -100 q92 134 135 221 l-130 95 l50 341 l-46 0 l0 130 l65 0 l17 113 l130 0 l-15 -113 l148 0 q0 -174 -13.5 -291.5 q-13.5 -117.5 -52.5 -228.5 l52 -39 l0 -128 q26 79 36.5 159.5 q10.5 80.5 10.5 182.5 l0 444 l499 0 l0 -331 l-374 0 l0 -113 q0 -249 -62 -442 l-150 0 q19 42 32 77 l-95 70 q-37 -75 -81 -147 l-156 0 ZM226 245 q41 128 50 312 l-58 0 l-39 -277 l47 -35 ZM799 573 l0 95 l-246 0 l0 -95 l246 0 ZM594 422 l127 0 l0 -138 l214 62 l0 -122 l-214 -62 l0 -134 l243 0 l0 -120 l-370 0 l0 514 Z" /><glyph glyph-name="uni59B9" unicode="&#x59b9;" d="M288 41 q-29 -59 -78 -141 l-158 0 q89 131 133 218 l-132 98 l50 341 l-53 0 l0 130 l72 0 l17 113 l138 0 l-15 -113 l146 0 q0 -177 -14 -295.5 q-14 -118.5 -55 -230.5 l69 -53 l0 -157 l-120 90 ZM236 241 q43 134 51 316 l-62 0 l-39 -278 l50 -38 ZM402 -98 q56 202 80 424 l-51 0 l0 127 l187 0 l0 148 l-171 0 l0 127 l171 0 l0 82 l135 0 l0 -82 l189 0 l0 -127 l-189 0 l0 -148 l205 0 l0 -127 l-69 0 q25 -230 80 -424 l-130 0 q-51 203 -72 424 l-18 0 l0 -426 l-127 0 l0 426 l-18 0 q-21 -221 -72 -424 l-130 0 Z" /><glyph glyph-name="uni59BB" unicode="&#x59bb;" d="M593 -37 q-92 -35 -220.5 -52 q-128.5 -17 -302.5 -17 l0 110 q172 0 281 11 l-175 38 l54 91 l-188 0 l0 110 l254 0 l19 32 l-217 0 l0 94 l338 0 l0 36 l-406 0 l0 101 l406 -1 l0 38 l-338 0 l0 94 l338 0 l0 31 l-378 0 l0 106 l378 0 l0 35 l128 0 l0 -35 l378 0 l0 -106 l-378 0 l0 -31 l321 0 l0 -124 l85 -1 l0 -116 l-85 0 l0 -121 l-415 0 l-18 -32 l506 0 l0 -110 l-130 0 q-39 -60 -97 -106 l199 -43 l0 -105 l-337 73 ZM574 72 q56 28 97 72 l-284 0 l-17 -28 l204 -44 ZM760 380 l0 36 l-196 0 l0 -36 l196 0 ZM760 515 l0 39 l-196 0 l0 -38 l196 -1 Z" /><glyph glyph-name="uni59C6" unicode="&#x59c6;" d="M924 424 l44 0 l0 -118 l-43 0 l4 -399 l-499 0 l14 399 l-49 0 l0 118 l53 0 l13 366 l460 0 l3 -366 ZM46 -96 q47 69 79 121 q32 52 56 103 l-124 90 l50 343 l-53 0 l0 122 l71 0 l17 113 l130 0 l-15 -113 l133 0 q0 -171 -13.5 -287 q-13.5 -116 -51.5 -225 l59 -45 l0 -147 l-107 78 q-38 -80 -83 -153 l-148 0 ZM227 244 q41 130 50 317 l-56 0 l-39 -283 l45 -34 ZM637 21 l-20 209 l105 0 l20 -209 l67 0 l-3 285 l-245 0 l-8 -285 l84 0 ZM636 424 l-19 176 l106 0 l19 -176 l63 0 l-3 253 l-230 0 l-7 -253 l71 0 Z" /><glyph glyph-name="uni59CB" unicode="&#x59cb;" d="M291 39 q-36 -72 -77 -139 l-158 0 q86 124 132 215 l-135 101 l50 341 l-53 0 l0 130 l72 0 l17 113 l138 0 l-15 -113 l150 0 q0 -178 -14 -297 q-14 -119 -56 -231 l66 -51 l0 -157 l-117 88 ZM239 238 q43 133 52 319 l-66 0 l-39 -278 l53 -41 ZM427 524 l54 0 l119 280 l140 0 l-119 -280 l171 0 l-35 110 l133 0 l75 -234 l-538 0 l0 124 ZM456 327 l472 0 l0 -419 l-472 0 l0 419 ZM812 28 l0 179 l-240 0 l0 -179 l240 0 Z" /></font>
</defs>
</svg>
